<?xml version="1.0" encoding="UTF-8"?>
<svg id="Capa_2" data-name="Capa 2" xmlns="http://www.w3.org/2000/svg" viewBox="0 0 423.26 121.98">
  <defs>
    <style>
      .cls-1 {
        fill: #fff;
      }
    </style>
  </defs>
  <g id="Capa_1-2" data-name="Capa 1">
    <path class="cls-1" d="m0,108.24c1.1-1.52,1.94-3.19,2.88-4.81,6.63-11.46,13.23-22.93,19.85-34.4,5.61-9.73,11.24-19.45,16.85-29.17.34-.58.76-1.06,1.28-1.49,8.04-6.73,16.07-13.48,24.11-20.21,7.09-5.94,14.19-11.87,21.28-17.8.17-.14.37-.24.55-.36-.07.91-.6,1.65-.97,2.43-3.56,7.66-7.14,15.31-10.72,22.97-5.24,11.22-10.47,22.44-15.71,33.66-3.17,6.78-6.34,13.56-9.5,20.34-4.41,9.45-8.82,18.9-13.22,28.35-.24.52-.49.84-1.15.84-11.84-.02-23.69-.03-35.53-.04v-.33Z"/>
    <path class="cls-1" d="m36.89,121.79c4.36-.77,8.72-1.55,13.08-2.32,9.27-1.64,18.55-3.27,27.82-4.91,10.47-1.85,20.93-3.7,31.4-5.55,1.3-.23,1.31-.23.48-1.22-5.42-6.44-10.86-12.88-16.28-19.32-5-5.94-9.98-11.89-14.96-17.84-1.87-2.24-3.73-4.48-5.62-6.71-.42-.5-.5-.93-.27-1.56,3.6-9.85,7.16-19.71,10.74-29.57,2.82-7.76,5.65-15.52,8.49-23.27.1-.27.14-.73.44-.72.43.01.51.52.7.84,5.05,8.68,10.1,17.37,15.13,26.07,9.43,16.3,18.85,32.6,28.28,48.9,6.98,12.08,13.96,24.17,20.95,36.25.64,1.11.63,1.11-.61,1.11-39.56,0-79.13,0-118.69,0h-1.06c0-.06,0-.12,0-.18Z"/>
    <path class="cls-1" d="m177.32,108.76c-1.29,0-2.59-.02-3.88,0-.73.02-.84-.25-.59-.89,2.58-6.73,5.14-13.47,7.71-20.21,6.22-16.33,12.46-32.66,18.66-48.99.28-.74.64-1.01,1.44-1,2.23.05,4.46.06,6.69,0,.88-.03,1.19.37,1.46,1.09,4.78,12.44,9.57,24.86,14.36,37.29,4.08,10.58,8.16,21.16,12.24,31.74.36.93.33.97-.65.98-2.48,0-4.96-.01-7.44.02-.65,0-.98-.21-1.21-.83-2.22-5.96-4.48-11.9-6.69-17.86-.31-.85-.7-1.18-1.64-1.18-9.23.04-18.46.03-27.69,0-.86,0-1.25.25-1.54,1.08-2.04,5.85-4.13,11.67-6.21,17.51q-.45,1.27-1.8,1.27c-1.07,0-2.15,0-3.22,0h0Zm26.49-62.02c-.36,3.08-1.58,5.83-2.6,8.65-3.01,8.28-6.05,16.54-9.07,24.81-.36.98-.3,1.07.69,1.07,7.52,0,15.04,0,22.56.02.63,0,.75-.15.53-.76-4.02-11.24-8.59-22.28-12.12-33.79Z"/>
    <path class="cls-1" d="m405.85,85.49c-5.43,0-10.85,0-16.28,0-1.05,0-1.08.02-1.06,1.06.09,4.42,1.47,8.41,4.4,11.73,2.24,2.54,5.21,4.01,8.55,4.45,6.48.85,12.48-.53,17.9-4.25.42-.29.87-.94,1.29-.73.49.25.23,1,.24,1.54.02,1.65,0,3.3.02,4.95.01.62-.2,1.02-.74,1.35-4.23,2.52-8.75,4.1-13.72,4.34-2.87.14-5.73.31-8.56-.32-8.07-1.78-13.57-6.58-16.12-14.41-2.6-7.99-2.64-16.05.62-23.91,3.04-7.34,8.27-12.38,16.16-14.16,6.27-1.42,12.23-.59,17.52,3.34,3.64,2.7,5.82,6.39,7.07,10.68.08.28.09.6.09.9,0,4.13-.01,8.26.02,12.39,0,.8-.26,1.04-1.05,1.03-5.45-.03-10.91-.01-16.36-.01v.02Zm-3.71-7c4.27,0,8.53-.01,12.8.01.76,0,1.04-.23.98-.99-.12-1.57-.33-3.11-.79-4.62-.82-2.66-2.1-5-4.32-6.77-3.96-3.17-10.7-2.96-14.64-.34-4.2,2.79-6.47,6.86-7.45,11.72-.2.98-.17,1,.87,1,4.18,0,8.37,0,12.55,0Z"/>
    <path class="cls-1" d="m323.59,101.15c-.69,1.01-1.24,1.99-1.97,2.85-3.4,3.99-7.73,5.97-12.96,6.07-3.23.06-6.39-.34-9.34-1.72-4.55-2.12-7.05-5.9-8.38-10.58-.83-2.91-1.1-5.9-1.11-8.9-.05-9.91-.04-19.82-.05-29.73,0-1.14,0-1.14,1.16-1.14,2.01,0,4.02,0,6.03,0,1.09,0,1.11.03,1.11,1.11.01,9.25,0,18.5.04,27.74.01,3.08.22,6.15,1.33,9.09,1.64,4.37,5.22,6.86,9.91,7.02,3.39.12,6.45-.52,9.07-2.78,2.42-2.09,3.87-4.76,4.75-7.78.36-1.25.51-2.52.51-3.83-.02-9.72,0-19.43,0-29.15q0-1.27,1.29-1.27c2.04,0,4.08.03,6.12-.02.84-.02,1.09.26,1.08,1.09-.02,9.39-.02,18.77-.02,28.16,0,6.72,0,13.43,0,20.15,0,1.22,0,1.22-1.25,1.22-1.9,0-3.8,0-5.7,0q-1.38,0-1.38-1.34c0-1.65,0-3.3-.01-4.95,0-.41.02-.83-.22-1.33Z"/>
    <path class="cls-1" d="m250.85,101.66c.31.2.65.1.97.1,9.06,0,18.13.01,27.19.01q1.22,0,1.22,1.25c0,1.51,0,3.03,0,4.54,0,1.2,0,1.21-1.18,1.21-3.91,0-7.82,0-11.74,0-9.23,0-18.46,0-27.69,0-1.23,0-1.18,0-1.26-1.24-.06-.95.27-1.68.81-2.42,7.03-9.62,14.05-19.26,21.07-28.89,2.51-3.45,5.02-6.9,7.53-10.35.14-.19.43-.38.26-.63-.14-.21-.46-.11-.7-.11-8.26-.17-16.52-.12-24.79-.14-1.17,0-1.23,0-1.28-1.15-.07-1.7-.04-3.41-.07-5.12,0-.53.25-.74.76-.72.27.01.55,0,.83,0,12.01,0,24.02,0,36.03.01.56,0,1.43-.34,1.64.31.26.79.35,1.75-.22,2.54-1.44,2.01-2.9,4.01-4.36,6.02-8.17,11.28-16.33,22.57-24.49,33.85-.2.28-.47.53-.54.91Z"/>
    <path class="cls-1" d="m356.78,67.78c.9-2,1.87-3.86,3.2-5.54,3.18-4.05,7.3-5.77,12.42-5.11.68.09,1.36.17,2.03.36.47.14.67.41.67.9,0,2.34,0,4.68,0,7.02,0,.72-.3.77-.87.49-2.02-1-4.13-1.4-6.41-1.12-3.39.42-5.96,2.08-7.69,4.95-2.2,3.65-3.39,7.6-3.37,11.91.04,8.31,0,16.62-.02,24.93q0,2.2-2.18,2.2c-1.65,0-3.31,0-4.96-.01-1.13,0-1.13-.02-1.15-1.16-.22-11.42-.09-22.84-.12-34.26-.01-4.73,0-9.47,0-14.2,0-1.12.02-1.14,1.17-1.14,2.07,0,4.13.03,6.2-.01.8-.02,1.06.28,1.06,1.06-.02,2.72,0,5.45,0,8.17,0,.18.02.37.03.55Z"/>
  </g>
</svg>