<?xml version="1.0" encoding="UTF-8"?>
<svg id="Capa_2" data-name="Capa 2" xmlns="http://www.w3.org/2000/svg" viewBox="0 0 436.55 62.54">
  <defs>
    <style>
      .cls-1 {
        fill: #fff;
      }
    </style>
  </defs>
  <g id="Capa_1-2" data-name="Capa 1">
    <g>
      <path class="cls-1" d="m38.39,30.95c1.04.36,2.02.65,2.96,1.05,5.34,2.26,8.15,6.37,8.53,12.05.6,8.84-4.76,14.12-12.72,16.39-3.99,1.14-8.1,1.15-12.23,1.08-5.32-.08-10.63-.15-15.95.12-2.01.1-2.02.02-2.02-1.96,0-15.23-.03-30.45.05-45.68.01-2.34-.81-4.04-2.6-5.43-1.14-.89-2.25-1.83-3.36-2.76-.28-.24-.56-.5-.76-.81-.55-.86-.31-1.3.73-1.31,1.7-.02,3.41.03,5.11.03,7.81,0,15.63-.08,23.44,0,4.05.05,8.04.65,11.6,2.82,7.29,4.46,8.57,15.2,2.5,21.03-1.21,1.16-2.67,1.95-4.17,2.67-.36.17-.78.24-1.11.71Zm-20.89,13.34c0,2.31.03,4.62-.01,6.92-.02.98.37,1.3,1.32,1.28,3.07-.05,6.14-.04,9.21-.04,1.88,0,3.73-.23,5.52-.77,4.17-1.25,6.48-4.95,5.75-9.18-.51-2.94-2.86-5.14-6.34-5.82-4.77-.92-9.6-.42-14.4-.52-.92-.02-1.06.57-1.06,1.31.02,2.27,0,4.53,0,6.8Zm0-24.4c0,1.98.03,3.96-.01,5.93-.02.99.28,1.4,1.35,1.38,2.95-.06,5.89,0,8.84-.03,1.84-.02,3.62-.41,5.32-1.13,2.48-1.05,3.7-3.06,3.88-5.59.3-4.15-2.54-7.1-7.03-7.53-3.72-.36-7.46-.23-11.19-.26-.87,0-1.17.34-1.16,1.18.03,2.02.01,4.04,0,6.06Z"/>
      <path class="cls-1" d="m342.47,1.42c2.29,0,4.57,0,6.86,0,1.49,0,1.69.16,1.64,1.63-.21,6.56-.17,13.12-.17,19.68,0,10.19-.01,20.38,0,30.57,0,2.35.09,4.7.19,7.05.04,1.03-.37,1.38-1.39,1.34-1.91-.07-3.82-.06-5.73-.03-1.04.01-1.63-.3-1.71-1.45-.07-1.06-.33-2.12-.54-3.17-.05-.27-.13-.61-.47-.66-.29-.04-.39.25-.54.44-3.03,3.79-7.08,5.4-11.84,5.64-5.41.27-10.23-1.18-14.18-4.91-5.04-4.75-6.61-10.79-6.18-17.48.22-3.43,1.17-6.63,2.88-9.64,3.57-6.28,11.15-9.99,18.34-9.09,4.04.51,7.52,1.95,10.31,4.94.19.2.39.51.72.36.31-.14.29-.48.28-.77-.37-5.44.01-10.89-.22-16.33-.1-2.27-1.48-3.79-3.2-5.06-.8-.59-1.69-1.05-2.53-1.58-.39-.25-.84-.55-.75-1.05.11-.63.72-.43,1.14-.43,2.37-.02,4.74,0,7.11,0h0Zm-1.27,40.49c-.36-7-4.98-11.61-11.6-11.54-6.23.07-11.04,4.41-11.21,11.65-.15,6.33,5.14,11.47,11.44,11.43,6.32-.03,11.4-5.18,11.37-11.54Z"/>
      <path class="cls-1" d="m137.14,17.44c0-2.64,0-5.28,0-7.93,0-2.05-.71-3.68-2.58-4.74-1.08-.61-2.09-1.34-3.13-2.03-.34-.23-.76-.49-.58-.97.16-.42.63-.33.99-.33,4.66,0,9.31.02,13.97-.03,1.31-.02,1.35.7,1.34,1.66-.01,11.76,0,23.52,0,35.28,0,5.57-.02,11.15.01,16.72.01,1.86-.35,3.7-.12,5.56.1.87-.54,1.02-1.11.96-2-.23-3.98.16-5.98.08-1.02-.04-1.49-.46-1.58-1.48-.08-.98-.32-1.95-.48-2.93-.05-.31.01-.72-.4-.82-.39-.1-.61.22-.8.48-.69.94-1.51,1.74-2.44,2.45-6.9,5.28-20.17,4.04-26.08-4.8-4.9-7.34-5.02-19.44,1.04-26.56,4.34-5.1,9.89-7.17,16.51-6.63,4.06.33,7.55,1.85,10.33,4.86.22.24.45.62.8.5.45-.15.28-.64.28-.98.01-2.77,0-5.53,0-8.3Zm.06,24.38c.18-6.41-4.49-11.39-11.38-11.52-6.01-.12-11.28,5.4-11.27,11.58,0,6.53,5.1,11.63,11.58,11.58,6.53-.05,11.12-4.87,11.08-11.64Z"/>
      <path class="cls-1" d="m241.59,62.49c-5.26-.09-10.23-1.12-14.48-4.44-5.82-4.56-8.19-10.56-7.7-17.84.26-3.76,1.24-7.28,3.4-10.34,3.64-5.14,8.62-8.14,15.07-8.37,2.23-.08,4.47-.31,6.7.17,7.45,1.6,12,6.15,13.97,13.39.82,3.03.99,6.1.88,9.2-.02.64-.04,1.28-.99,1.23-4.9-.28-9.81-.08-14.71-.12-4.24-.04-8.48-.01-12.72,0-1.54,0-1.73.25-1.2,1.66,1.5,3.99,4.65,6.01,8.64,6.9,5.77,1.29,11.2-.13,16.51-2.29.79-.32,1.7-1.38,2.43-.57.63.7-.45,1.52-.81,2.26-1.11,2.27-2.65,4.29-3.89,6.48-.35.62-.88.96-1.53,1.18-3.1,1.01-6.27,1.62-9.56,1.5Zm-2.38-24.62c2.91,0,5.82,0,8.73,0,.75,0,1.37-.12,1.19-1.09-.31-1.76-.74-3.45-2.01-4.85-3.98-4.38-11.78-4.15-15.43.5-.93,1.19-1.48,2.58-1.97,3.98-.45,1.28-.34,1.45,1.01,1.46,2.83,0,5.65,0,8.48,0Z"/>
      <path class="cls-1" d="m381.53,45.36c-4.45,0-8.89,0-13.34,0-1.72,0-1.88.24-1.25,1.88,1.34,3.52,4.15,5.33,7.57,6.43,3.56,1.14,7.14.86,10.71.13,2.52-.52,5-1.25,7.32-2.4.11-.06.22-.12.34-.15.54-.13,1.14-.71,1.61-.19.42.46-.16.98-.38,1.44-1.22,2.54-2.95,4.78-4.32,7.23-.41.74-1.08,1.16-1.85,1.37-9.23,2.53-17.97,2.13-25.53-4.5-3.34-2.93-5.04-6.78-5.67-11.14-1.22-8.57,1.22-15.69,8.47-20.79,3.11-2.19,6.65-3.24,10.54-3.23,2.58,0,5.15-.13,7.64.69,7.5,2.5,11.55,7.83,12.76,15.46.34,2.17.29,4.36.29,6.54,0,.93-.31,1.29-1.32,1.28-4.53-.05-9.06-.02-13.59-.02v-.02Zm-5-7.5c2.83,0,5.65-.02,8.48.01.99.01,1.43-.19,1.2-1.35-.75-3.83-2.95-6.26-6.73-7.32-5.57-1.55-11.19,1.54-12.61,6.94-.37,1.4-.14,1.71,1.31,1.72,2.78.01,5.57,0,8.35,0Z"/>
      <path class="cls-1" d="m175.62,62.48c-5.61.05-10.28-.99-14.42-3.88-5.17-3.62-8.07-8.59-8.51-14.85-.38-5.46.61-10.65,4.22-15.01,3.77-4.57,8.59-7.11,14.65-7.3,3.28-.1,6.45-.01,9.52,1.29,5.53,2.35,8.79,6.6,10.5,12.17.96,3.12,1.05,6.33,1.01,9.56,0,.68-.15,1.04-1,1.02-9.22-.24-18.45-.06-27.68-.1-1.17,0-1.35.29-.91,1.49,1.39,3.79,4.33,5.82,8.07,6.91,4.41,1.29,8.73.52,13.02-.61,1.93-.51,3.77-1.3,5.59-2.11.37-.16.8-.45,1.14-.05.28.33,0,.72-.18,1.03-1.55,2.59-3.1,5.18-4.69,7.74-.63,1.03-1.75,1.38-2.84,1.65-2.66.66-5.33,1.32-7.49,1.06Zm-2.88-24.62c2.82,0,5.65-.02,8.47.01.98,0,1.42-.19,1.21-1.35-.74-4.13-2.89-6.42-7.14-7.39-5.44-1.25-10.63,1.65-12.16,6.8-.48,1.6-.24,1.93,1.4,1.94,2.74,0,5.48,0,8.22,0Z"/>
      <path class="cls-1" d="m266.12,45.86c0-4.42.02-8.83-.01-13.25,0-1.23-.13-2.47-.28-3.7-.13-1.06-.71-1.92-1.51-2.64-1.12-1-2.41-1.76-3.69-2.52-.48-.28-1.32-.48-1.13-1.12.19-.63,1.02-.33,1.57-.35,3.32-.15,6.64.16,9.96.17,1.2,0,2.4-.12,3.6-.18.77-.04,1.13.27,1.08,1.1-.07,1.07-.03,2.15-.02,3.22,0,.3-.1.73.33.83.34.07.45-.3.64-.51,2.51-2.94,5.6-4.96,9.49-5.45,8.45-1.06,15.1,3.21,16.46,11.96.18,1.19.27,2.37.27,3.57-.01,7.68,0,15.35,0,23.03,0,1.63-.04,1.65-1.68,1.64-2.24-.01-4.49,0-6.73-.03-1.48-.02-1.63-.19-1.63-1.66,0-6.89-.02-13.78,0-20.68,0-1.25-.2-2.46-.5-3.67-.97-3.92-3.97-5.63-8.02-5.26-5.16.46-8,3.71-8.09,9.11-.11,6.93-.03,13.87.02,20.8,0,.91-.14,1.52-1.18,1.36-2.45-.36-4.9.05-7.34.03-1.18,0-1.62-.39-1.6-1.58.05-4.75.02-9.49.02-14.24h0Z"/>
      <path class="cls-1" d="m210.05,46.16c0,4.66-.03,9.33.02,13.99.01,1.09-.4,1.5-1.44,1.49-2.54,0-5.07,0-7.61.02-.73,0-1.23-.21-1.16-1.06.32-3.71.1-7.42.13-11.13.04-4.71-.09-9.41.04-14.12.09-3.26-1.04-5.73-3.71-7.62-1.79-1.27-3.46-2.7-5.17-4.08-.37-.3-1.01-.57-.81-1.11.21-.55.88-.3,1.35-.31,2.29-.02,4.57-.04,6.86,0,1.08.02,1.44-.42,1.46-1.47.06-3.13-.27-6.27.22-9.39.95-6.03,5.45-10.34,11.53-11.16,3.13-.42,6.21-.1,9.31.26.69.08,1.15.38,1.33,1.08.59,2.24,1.23,4.46,1.79,6.7.33,1.3.08,1.48-1.18,1.08-2.06-.65-4.11-1.25-6.33-1.17-3.86.14-6.49,2.6-6.63,6.46-.08,2.06,0,4.13-.05,6.19-.02,1,.39,1.43,1.4,1.42,2.16-.03,4.32.03,6.48-.02,1.04-.02,1.4.38,1.37,1.38-.05,1.9-.05,3.8-.02,5.7.02,1.05-.38,1.5-1.47,1.47-2.04-.06-4.08.02-6.11-.07-1.23-.05-1.69.33-1.67,1.6.06,4.62.02,9.25.02,13.87h0Z"/>
      <path class="cls-1" d="m80.02,42.11c0-3.54-.04-6.35.02-9.16.03-1.22-.37-2.14-1.27-2.94-2.46-2.22-5.29-4.01-7.6-6.4-.27-.28-.83-.46-.59-.95.2-.41.72-.3,1.14-.27,2.41.16,4.81.13,7.22-.08.72-.06,1.12-.31,1.35-1.02.94-2.99,1.96-5.96,2.86-8.97.25-.85.66-1.3,1.52-1.33,1.54-.04,3.07-.06,4.61-.08.86-.01.85.55.84,1.18-.02,2.93.02,5.86-.04,8.79-.02,1.15.31,1.66,1.55,1.6,2.4-.12,4.82.1,7.22-.19,1.56-.19,1.72.04,1.73,1.57.02,1.98-.12,3.96.09,5.94.12,1.14-.66,1.2-1.46,1.11-2.53-.29-5.07-.07-7.6-.19-1.12-.05-1.56.33-1.55,1.48.04,5.49.02,10.98.03,16.47,0,1.22.31,2.38.83,3.47.82,1.7,2.38,2.2,4.12,2.31,2.06.13,4.04-.38,6.03-.79.27-.06.6-.27.82-.01.31.34-.07.6-.23.86-1.35,2.13-2.72,4.25-4.08,6.37-.28.43-.6.82-1.12.92-3.86.75-7.66.98-11.22-1.21-3.09-1.9-4.42-4.84-4.96-8.22-.58-3.65-.14-7.34-.27-10.27Z"/>
      <path class="cls-1" d="m412.77,27.83c1.14-1.86,2.41-3.24,3.99-4.36,3.12-2.21,6.61-2.47,10.25-1.91.6.09.83.55.83,1.08.02,2.68.02,5.36.01,8.04,0,.98-.65.88-1.31.71-1.73-.46-3.46-.7-5.28-.47-4.67.57-8.28,4.29-8.64,9.01-.33,4.29.13,8.57-.02,12.85-.09,2.59-.12,5.19-.13,7.79,0,.9-.57,1.08-1.22,1-2.37-.28-4.73.11-7.09.09-1.68-.01-1.83-.09-1.76-1.73.29-7.59.18-15.17.17-22.76,0-2.39-.15-4.78-.23-7.17-.06-1.84-1-3.2-2.43-4.25-1.07-.78-2.11-1.6-3.29-2.23-.35-.19-.83-.42-.68-.91.13-.42.62-.32.99-.33,4.74-.01,9.47,0,14.21-.04,1.08,0,1.48.36,1.35,1.47-.15,1.26-.11,2.55.3,4.11Z"/>
      <path class="cls-1" d="m68.08,42.02c0,5.98,0,11.96,0,17.94,0,1.63-.11,1.71-1.69,1.57-2.33-.21-4.65.11-6.97.15-1.05.02-1.41-.25-1.41-1.4.06-9.94.03-19.88.05-29.82,0-2.13-.78-3.83-2.54-5.09-.78-.55-1.51-1.16-2.25-1.75-.28-.23-.7-.47-.57-.87.14-.45.64-.27.99-.27,2.95-.02,5.9,0,8.85-.02,1.33-.01,2.65-.08,3.98-.19,1.19-.1,1.61.37,1.6,1.56-.04,6.06-.02,12.12-.02,18.19Z"/>
      <path class="cls-1" d="m63.08,3.18c3.53.03,6.31,2.66,6.3,5.97-.01,3.22-2.99,5.99-6.39,5.95-3.72-.04-6.46-2.67-6.41-6.13.05-3.28,2.91-5.82,6.5-5.79Z"/>
      <path class="cls-1" d="m429.6,62.45c-4.13-.03-6.87-2.89-6.83-7.15.03-3.5,3.19-6.53,6.8-6.53,3.77,0,7.01,3.16,6.99,6.8-.02,3.88-3.07,6.89-6.95,6.87Zm-.22-1.27c3.52,0,5.87-2.23,5.89-5.6.02-2.97-2.73-5.71-5.73-5.71-3.05,0-5.67,2.83-5.65,6.07.02,2.7,2.76,5.57,5.49,5.24Z"/>
      <path class="cls-1" d="m427.05,55.56c0-.99,0-1.98,0-2.97,0-.7.37-1.06,1.07-1.09,1.04-.04,2.08-.04,3.09.26,1.64.48,2.24,2.62.91,3.61-1.13.84-1,1.53-.23,2.42.03.03.05.07.08.1.39.51,1.2,1.26.61,1.64-.78.5-1.16-.57-1.55-1.15-.34-.51-.58-1.1-.92-1.61-.29-.43-.76-.7-1.28-.6-.62.12-.63.71-.66,1.19-.04.49.05.99.04,1.48-.01.38-.11.82-.55.86-.49.04-.55-.43-.58-.79-.05-.57-.04-1.15-.04-1.73,0-.54,0-1.07,0-1.61h0Zm2.54-.39c1.25,0,2.01-.51,1.93-1.4-.11-1.25-1.2-1.09-1.99-1.18-1.1-.12-1.26.75-1.3,1.56-.04.9.62,1.05,1.35,1.02Z"/>
    </g>
  </g>
</svg>