<?xml version="1.0" encoding="UTF-8"?>
<svg id="Capa_2" data-name="Capa 2" xmlns="http://www.w3.org/2000/svg" viewBox="0 0 1835.3 360.35">
  <defs>
    <style>
      .cls-1 {
        fill: #fff;
      }
    </style>
  </defs>
  <g id="Capa_1-2" data-name="Capa 1">
    <g>
      <path class="cls-1" d="m584.33,217.8c0,11.05-2.9,20.36-8.7,27.94-5.8,7.58-13.62,13.34-23.45,17.27-9.83,3.93-20.54,5.9-32.15,5.9h-96.31V69.55h106.7c9.36,0,17.45,2.48,24.29,7.44,6.83,4.96,12.07,11.33,15.72,19.09,3.65,7.77,5.48,15.86,5.48,24.29,0,9.55-2.43,18.58-7.3,27.1-4.87,8.52-11.98,14.93-21.34,19.23,11.42,3.37,20.45,9.45,27.1,18.25,6.64,8.8,9.97,19.75,9.97,32.85Zm-121.86-115.12v50.26h51.66c4.3,0,8.24-1.03,11.79-3.09,3.55-2.06,6.41-4.96,8.56-8.7,2.15-3.74,3.23-8.14,3.23-13.2s-.98-9.69-2.95-13.34-4.59-6.55-7.86-8.7c-3.28-2.15-6.98-3.23-11.09-3.23h-53.35Zm82.83,107.54c0-5.05-1.03-9.59-3.09-13.62-2.06-4.02-4.82-7.25-8.28-9.69-3.47-2.43-7.44-3.65-11.93-3.65h-59.53v52.79h57.56c4.68,0,8.94-1.17,12.78-3.51,3.83-2.34,6.88-5.48,9.13-9.41,2.25-3.93,3.37-8.24,3.37-12.92Z"/>
      <path class="cls-1" d="m596.4,268.9V69.55h38.75v165.38h101.64v33.97h-140.39Z"/>
      <path class="cls-1" d="m818.58,69.55h39.31l73.28,199.36h-39.87l-16.57-49.7h-73.2l-16.65,49.7h-39.87l73.57-199.36Zm47.08,122.42l-27.42-82.27-27.56,82.27h54.99Z"/>
      <path class="cls-1" d="m911.72,167.54c0-12.35,2.2-24.38,6.6-36.08,4.4-11.7,10.85-22.32,19.37-31.87,8.52-9.55,18.86-17.17,31.03-22.88,12.17-5.71,25.92-8.56,41.28-8.56,18.34,0,34.21,4.03,47.59,12.07,13.38,8.05,23.26,18.53,29.62,31.45l-29.48,20.5c-3.37-7.48-7.77-13.38-13.2-17.69-5.43-4.3-11.28-7.39-17.55-9.27-6.27-1.87-12.31-2.81-18.11-2.81-9.74,0-18.21,1.97-25.41,5.9-7.21,3.93-13.2,9.08-17.97,15.44-4.77,6.37-8.38,13.48-10.81,21.34-2.43,7.86-3.65,15.82-3.65,23.87,0,8.61,1.4,16.99,4.21,25.13s6.78,15.35,11.93,21.62c5.15,6.27,11.32,11.23,18.53,14.88,7.2,3.65,15.11,5.48,23.73,5.48,5.99,0,12.17-1.03,18.53-3.09,6.36-2.06,12.26-5.33,17.69-9.83,5.43-4.49,9.83-10.39,13.2-17.69l31.45,18.53c-4.12,9.92-10.63,18.35-19.51,25.27-8.89,6.93-18.81,12.17-29.76,15.72-10.95,3.56-21.86,5.33-32.71,5.33-14.23,0-27.19-2.95-38.89-8.84-11.7-5.9-21.86-13.76-30.46-23.59-8.61-9.83-15.3-20.87-20.08-33.13-4.77-12.26-7.16-24.66-7.16-37.2Z"/>
      <path class="cls-1" d="m1098.16,268.9V69.55h38.75v94.76l83.67-95.04h42.68l-76.37,88.85,81.15,110.79h-43.8l-61.77-86.04-25.55,26.43v59.61h-38.75Z"/>
    </g>
    <path class="cls-1" d="m363.22,117.65c-3.65-10.14-22.8-60.39-75.98-92.08C248.04,2.17,210.56.92,187.13.13c-30.97-1.05-52.03,4.44-56.96,5.79-5.66,1.55-29.46,8.3-53.45,24.79C29.1,63.38,11.3,113.2,5.87,130.84,1.23,145.36-.97,169.15.41,201.33c.46,10.7,5.89,29.19,16.75,45.71,3.19,4.91,10.1,13.1,12.41,15.83-11.69-14.54-16.59-42.55-16.59-42.55-2.07-11.81-3.23-22.64-.95-38.8.95-6.74,3.78-19.41,5.03-23.53.43,10.3-.79,30.41,2.67,47.19,3.65,17.64,8.41,37.99,26.18,62.11,28.27,38.47,60.66,80.48,121.05,90.79,49.13,8.39,93.46-8.63,108.36-16.06,12.41-6.19,41.7-21.23,65.36-54.4,22.35-31.33,27.51-61.74,29.95-77.27,2.43-15.43,7.6-51.07-7.41-92.7Zm-212.62,217.52c-.99,1.72-20.27-6.32-37.12-18.1-6.09-4.27-10.83-8.32-14.08-11.25-.46-.27-1.42-.89-1.78-2.04-.1-.33-.26-.86,0-1.28.3-.4.92-.56,1.61-.4,2.08,1.25,4.15,2.53,6.22,3.79,14.58,8.91,29.09,17.9,43.47,26.88,1.62,1.55,1.81,2.14,1.68,2.4Zm163.69-102.61c-10.99,23.9-27.51,38.15-36.37,44.76,8.03-5.69,16.1-11.39,24.13-17.08-1.98,3.95-4.68,8.39-8.36,12.9-10.37,12.54-22.87,18.46-30.24,21.23,6.12-.83,14.9-2.97,23-9.18,3.98-3.07,6.25-5.89,9.51-9.81,4.93-5.96,12.27-14.42,22.05-24.62-1.98,4.41-4.51,9.28-7.74,14.32-8.06,12.57-16.75,20.24-21.09,23.99-21.79,18.92-47.22,26.42-54.4,28.5-10.17,2.89-32.68,9.05-61.5,4.51-17.74-2.83-30.51-8.49-34.76-10.47-28.1-13.16-44.75-34.03-52.94-46.37,1.74,3.52,4.57,8.99,8.52,15.44,3.36,5.52,5.86,9.05,5.3,9.51-.69.62-6.19-4.48-9.18-7.57-5.76-6.02-13.14-16.13-17.84-33.14-.03,2.93.2,7.47,1.74,12.7,1.78,5.93,4.45,9.97,9.18,17.05,2.14,3.22,5.24,7.57,9.35,12.57-3.03-1.98-7.21-5-11.58-9.35-2.47-2.43-12.57-12.8-19.98-34.29-10.46-30.4-8.75-63.61-7.9-75.16-1.21,2.43-2.4,5.2-3.45,8.29-2.54,7.6-3.19,14.48-3.23,19.72-1.77-3.69-3.09-7.31-4.01-10.7-8.46-31.26,10.89-60.55,17.8-70.09,6.12-11.49,20.37-34.49,47.95-52.49,6.81-4.45,30.5-19.06,65.03-22.55,38.43-3.85,67,8.4,72.76,10.96,31.03,13.82,47.98,35.21,51.83,40.25,24.74,32.28,26.32,66.48,26.72,78.88.39,11.88.85,33.11-10.3,57.29Z"/>
    <g>
      <path class="cls-1" d="m1461.02,268.9V106.61l-72.16,126.07h-12.35l-72.44-126.07v162.29h-19.65V69.55h20.22l77.78,136.46,78.34-136.46h19.94v199.36h-19.66Z"/>
      <path class="cls-1" d="m1508.75,268.9V69.55h67.67c21.15,0,38.79,4.45,52.93,13.34,14.13,8.89,24.75,20.88,31.87,35.94,7.11,15.07,10.67,31.78,10.67,50.12,0,20.22-3.89,37.81-11.65,52.79-7.77,14.98-18.81,26.58-33.13,34.82-14.32,8.24-31.21,12.36-50.68,12.36h-67.67Zm143.48-99.96c0-15.91-2.95-30.04-8.84-42.4-5.9-12.36-14.46-22.04-25.69-29.06-11.23-7.02-24.99-10.53-41.27-10.53h-48.01v164.54h48.01c16.47,0,30.32-3.65,41.56-10.95s19.75-17.17,25.55-29.62c5.8-12.45,8.7-26.44,8.7-41.98Z"/>
      <path class="cls-1" d="m1687.61,268.9V69.55h84.23c8.61,0,16.47,1.78,23.59,5.34,7.11,3.56,13.34,8.38,18.67,14.46,5.33,6.09,9.45,12.82,12.35,20.22,2.9,7.4,4.35,14.93,4.35,22.6,0,9.55-1.83,18.53-5.47,26.96-3.65,8.42-8.8,15.54-15.44,21.34-6.65,5.8-14.46,9.64-23.45,11.51l48.86,76.94h-22.18l-46.89-73.57h-58.96v73.57h-19.65Zm19.65-90.97h65.14c7.86,0,14.69-2.15,20.5-6.46,5.8-4.3,10.29-9.97,13.48-16.99,3.18-7.02,4.77-14.46,4.77-22.32s-1.83-15.49-5.48-22.32c-3.65-6.83-8.52-12.36-14.6-16.57-6.08-4.21-12.87-6.32-20.36-6.32h-63.46v90.97Z"/>
    </g>
  </g>
</svg>