<?xml version="1.0" encoding="UTF-8"?>
<svg id="Capa_2" data-name="Capa 2" xmlns="http://www.w3.org/2000/svg" viewBox="0 0 380.87 65.68">
  <defs>
    <style>
      .cls-1 {
        fill: #fff;
      }
    </style>
  </defs>
  <g id="Capa_1-2" data-name="Capa 1">
    <g>
      <path class="cls-1" d="m163.52,23.36c.24-.27.32-.53.4-.79,1.3-4.04,2.58-8.09,3.89-12.12.4-1.24.74-2.5,1.22-3.71.2-.49.5-.68,1-.68,2.37,0,4.74,0,7.1.01.29,0,.58.03.86.1.34.09.51.33.47.67-.02.18-.08.36-.13.53-.36,1.1-.82,2.15-1.22,3.23-.94,2.53-1.95,5.03-2.88,7.57-.82,2.22-1.71,4.41-2.56,6.62-1.32,3.45-2.63,6.91-3.94,10.37-.19.51-.41,1.01-.6,1.52-.11.31-.32.47-.64.49-.11,0-.21.01-.32.01-1.41,0-2.81,0-4.22,0-.49,0-.62-.08-.77-.49-.48-1.37-1.06-2.71-1.58-4.07-1.12-2.93-2.25-5.86-3.38-8.79-.37-.95-.78-1.88-1.08-2.85-.07-.23-.16-.46-.3-.66-.08-.12-.18-.11-.25,0-.05.08-.08.16-.11.25-1.62,4.23-3.25,8.46-4.87,12.69-.36.95-.71,1.9-1.07,2.85,0,.01-.01.03-.02.04-.34.89-.48.99-1.44.99-1.19,0-2.38,0-3.57,0-.14,0-.28,0-.41,0-.46-.03-.77-.25-.9-.71-.32-1.19-.82-2.31-1.25-3.46-1.05-2.75-2.11-5.49-3.16-8.24-1.54-4.05-3.08-8.1-4.62-12.16-.53-1.4-1.08-2.8-1.61-4.2-.2-.52-.41-1.05-.48-1.61-.01-.1-.03-.21-.03-.32,0-.33.06-.4.39-.42.21,0,.43,0,.64,0,2.4,0,4.8,0,7.19,0,.17,0,.34,0,.5,0,.47.02.53.08.67.52.7,2.29,1.47,4.56,2.22,6.83.75,2.27,1.51,4.54,2.26,6.82.27.81.45,1.64.8,2.42.04.08.06.17.1.25.1.21.19.22.32.04.1-.14.15-.3.2-.46.76-2.5,1.69-4.93,2.5-7.41.74-2.25,1.53-4.47,2.3-6.71.19-.56.36-1.13.51-1.7.13-.51.25-.6.76-.61,1.48,0,2.96,0,4.45,0,.4,0,.67.14.81.52.08.23.18.45.26.68,1.15,3.34,2.29,6.68,3.43,10.02.54,1.59,1.09,3.18,1.64,4.77.15.43.33.84.52,1.31Z"/>
      <path class="cls-1" d="m182.38,21.62c0-4.94,0-9.87,0-14.81,0-.89.07-.76.79-.76,4.44,0,8.89-.03,13.33,0,2.72.02,5.38.46,7.93,1.46,2.26.89,4.14,2.3,5.66,4.19,1.27,1.58,2.13,3.34,2.66,5.28.38,1.4.63,2.8.56,4.26-.02.42,0,.85,0,1.27-.11,3.15-1,6.06-2.89,8.61-1.45,1.96-3.31,3.42-5.56,4.39-1.86.81-3.8,1.28-5.83,1.49-1.42.14-2.83.16-4.25.16-3.96,0-7.91,0-11.87,0-.48,0-.52-.03-.52-.52,0-2.18,0-4.36,0-6.54,0-2.83,0-5.66,0-8.5Zm9.54-.05s0,0,.01,0c0,2.14,0,4.27,0,6.41,0,.35-.02.7,0,1.04.01.4.09.48.5.48,1.12,0,2.23.08,3.34.08.56,0,1.13-.05,1.69-.07.38-.01.76-.07,1.13-.16,3.06-.69,4.85-3.56,5.04-6.12.07-.91,0-1.81.02-2.72.03-1.24-.32-2.37-.9-3.43-.54-.99-1.3-1.79-2.28-2.37-1.18-.7-2.48-1.02-3.84-1.07-1.39-.05-2.78.14-4.17.07-.51-.02-.55.04-.55.54,0,2.44,0,4.88,0,7.32Z"/>
      <path class="cls-1" d="m113.53,37.64c-1.45.02-2.72-.01-3.97-.27-2.4-.5-4.66-1.36-6.69-2.74-1.89-1.29-3.46-2.88-4.63-4.84-1.14-1.9-1.82-3.96-2.14-6.14-.13-.88-.26-1.77-.18-2.67.28-3.56,1.46-6.76,3.78-9.52,1.34-1.6,2.99-2.81,4.82-3.77,2.09-1.1,4.32-1.75,6.67-2,.65-.07,1.3-.17,1.96-.17.7,0,1.4.04,2.1.16.63.11,1.27.15,1.9.26,1.44.25,2.81.72,4.13,1.34.9.42,1.81.82,2.6,1.43,1.42,1.09,2.72,2.3,3.8,3.73.82,1.1,1.45,2.31,1.93,3.6.2.54.37,1.09.55,1.64.19.55.26,1.12.31,1.69.18,2.06.21,4.11-.3,6.14-.63,2.5-1.83,4.69-3.57,6.62-2.07,2.29-4.63,3.76-7.54,4.72-1.86.62-3.77.88-5.54.81Zm-.2-8.38c.49,0,.98.02,1.46-.07,1.59-.29,2.97-.95,4.11-2.12,1.02-1.04,1.69-2.25,1.98-3.67.14-.66.15-1.32.15-1.99,0-1.28-.26-2.51-.92-3.61-1.31-2.19-3.15-3.59-5.83-3.65-.12,0-.24-.02-.37-.03-1.07-.05-2.15-.13-3.18.21-2.17.71-3.71,2.11-4.6,4.2-.54,1.27-.7,2.59-.58,3.96.18,2.07,1.12,3.76,2.72,5.07,1.45,1.19,3.14,1.78,5.05,1.69Z"/>
      <path class="cls-1" d="m65.04,21.62c0-4.94,0-9.87,0-14.81q0-.76.74-.76c4.49,0,8.98-.01,13.47,0,2.44.01,4.81.44,7.05,1.4,2.18.93,3.74,2.52,4.72,4.67.52,1.15.75,2.36.81,3.61.04.86.02,1.72-.14,2.58-.39,2.06-1.48,3.69-3.07,5.02-.63.53-1.32.98-2.09,1.29-.07.03-.14.06-.21.1-.26.14-.27.18-.07.39.3.3.6.6.91.9.51.5.94,1.07,1.31,1.69.25.42.55.8.87,1.17.65.75,1.37.92,2.29.57.49-.19.69-.11.88.39.2.52.33,1.07.46,1.62.27,1.18.56,2.36.83,3.54.08.34.16.68.06,1.03-.08.3-.23.51-.51.66-1.17.63-2.4,1.02-3.76.97-.75-.03-1.5-.01-2.24-.15-1.64-.31-2.95-1.18-4.06-2.39-.91-.99-1.62-2.12-2.33-3.25-.66-1.05-1.34-2.09-2.11-3.08-.45-.58-.96-1.1-1.5-1.59-.38-.35-.83-.62-1.32-.81-.14-.06-.29-.1-.44-.14-.75-.17-.88-.08-.96.66-.02.23-.03.45-.03.68,0,2.98,0,5.97,0,8.95,0,.06,0,.12,0,.18-.02.37-.08.45-.46.47-.29.01-.58,0-.87,0-2.6,0-5.19,0-7.79,0-.37,0-.42-.05-.44-.42,0-.15,0-.3,0-.45,0-4.89,0-9.78,0-14.68Zm12.2-1.57s0,.02,0,.03c.34,0,.67,0,1.01,0,.63,0,1.25,0,1.87-.13.83-.18,1.44-.65,1.83-1.38.56-1.03.56-2.1.03-3.14-.45-.88-1.16-1.48-2.16-1.68-.57-.11-1.15-.14-1.73-.09-.85.08-1.71.05-2.56.06-.2,0-.4,0-.6,0-.23,0-.33.12-.33.34,0,.3,0,.61,0,.91,0,1.5-.01,3-.01,4.5,0,.51.08.58.58.59.69,0,1.37,0,2.06,0Z"/>
      <path class="cls-1" d="m276.53,22.36c0-4.54,0-9.09,0-13.63,0-.74.11-1.48.01-2.22-.05-.37.05-.44.45-.45.46,0,.92,0,1.37,0,4.11,0,8.22-.02,12.33,0,2.34.01,4.62.4,6.81,1.26,2.44.97,4.14,2.71,5.13,5.09.5,1.21.76,2.5.84,3.8.06.96-.21,1.89-.47,2.81-.74,2.63-2.52,4.37-4.88,5.62-.55.29-.54.27-.25.79.87,1.55,1.72,3.1,2.58,4.66,1.02,1.86,2.04,3.73,3.06,5.59.09.17.19.35.27.53.2.45-.02.86-.5.95-.12.02-.24.02-.37.02-2.58,0-5.16,0-7.75,0-.12,0-.24,0-.37-.01-.38-.02-.65-.2-.84-.54-.76-1.42-1.53-2.83-2.29-4.25-1.01-1.87-2.01-3.74-3.01-5.62-.23-.44-.55-.62-1.04-.53-.35.06-.7.04-1.05.05-.53,0-.58.06-.58.57,0,1.05,0,2.09,0,3.14,0,2.15,0,4.3,0,6.45,0,.77,0,.77-.8.77-2.67,0-5.35,0-8.02,0-.66,0-.67-.01-.66-.65,0-1.7,0-3.39,0-5.09,0-3.03,0-6.06,0-9.09h0Zm9.47-5.51s0,0,0,0c0,.92,0,1.85,0,2.77,0,.37.06.43.42.44.38.02.76.01,1.15.01,1.08,0,2.17.02,3.25-.02.74-.03,1.45-.2,2.02-.73.72-.67,1.06-1.48,1.01-2.48-.07-1.67-1.1-2.85-2.76-3.13-.56-.09-1.13-.06-1.69-.07-.99-.03-1.98.15-2.97.04-.32-.04-.42.08-.42.44,0,.91,0,1.82,0,2.73Z"/>
      <path class="cls-1" d="m334.4,17.14c.18-.26.36-.52.56-.77,1.6-2.09,3.28-4.11,4.91-6.17.73-.92,1.45-1.84,2.18-2.75.24-.3.49-.58.74-.87.29-.35.68-.5,1.13-.53.06,0,.12,0,.18,0,2.92,0,5.84,0,8.75,0,.08,0,.15,0,.23,0,.25.03.31.12.27.36-.03.2-.12.37-.22.55-.23.41-.52.78-.82,1.15-2.08,2.58-4.14,5.17-6.24,7.73-1.01,1.23-1.98,2.5-2.95,3.77-.35.46-.37.49-.03.95,1.76,2.4,3.4,4.89,5.13,7.31,1.28,1.79,2.52,3.61,3.78,5.42.6.86,1.21,1.71,1.81,2.57.1.15.21.3.29.46.16.37-.01.71-.41.79-.16.04-.33.05-.5.05-2.84,0-5.68,0-8.52.02-.41,0-.68-.19-.92-.5-.94-1.23-1.78-2.54-2.66-3.81-1.53-2.23-3.07-4.45-4.6-6.68-.11-.16-.24-.31-.37-.46-.12-.14-.25-.16-.39,0-.45.5-.9.99-1.3,1.52-.14.19-.13.4-.13.61,0,2.68,0,5.36,0,8.04,0,.23,0,.45-.01.68-.03.47-.11.56-.57.58-.23.01-.46.02-.69.02-2.63,0-5.26,0-7.88-.01-.45,0-.49-.04-.5-.5,0-.11,0-.21,0-.32,0-9.82,0-19.63,0-29.45,0-.99,0-.85.88-.85,2.7,0,5.41,0,8.11,0,.66,0,.67,0,.67.65,0,3.3,0,6.6,0,9.91v.5s.06.03.1.04Z"/>
      <path class="cls-1" d="m356.91,21.61c0-4.94,0-9.88,0-14.82q0-.74.76-.74c7.39,0,14.79,0,22.18,0q.73,0,.73.73c0,1.09-.02,2.18.02,3.27.03.94.05,1.88.07,2.82.02.83-.03.86-.87.86-3.22,0-6.45,0-9.67-.01-1.07,0-2.14-.06-3.21-.09-.35-.01-.37-.02-.37.33,0,1.24,0,2.48,0,3.73,0,.44.03.49.47.46,1.31-.08,2.63-.06,3.94-.07,1.94-.01,3.88-.01,5.82-.02.41,0,.5.09.55.5.01.12.01.24.01.36,0,1.86,0,3.73,0,5.59,0,.56-.1.68-.66.68-2.7,0-5.41,0-8.11-.03-.53,0-1.07-.05-1.6-.05-.38,0-.42.03-.42.42,0,1.2,0,2.39,0,3.59,0,.41.09.48.48.47,4.14-.13,8.28-.05,12.42-.07.31,0,.61,0,.92,0,.33,0,.41.05.46.37.02.15.02.3.02.45,0,2.08,0,4.15,0,6.23,0,.11,0,.21-.02.32-.03.18-.14.3-.34.31-.11,0-.21,0-.32,0-6.19,0-12.37,0-18.56,0-1.39,0-2.78-.01-4.17-.02-.48,0-.53-.05-.54-.51,0-.45,0-.91,0-1.36,0-4.56,0-9.12,0-13.68Z"/>
      <path class="cls-1" d="m229.9,5.31c2.55.12,5.29.59,7.86,1.8.73.34,1.45.71,2.14,1.13.72.43,1.32.98,1.85,1.61.38.46.38.61-.02,1.06-1.32,1.47-2.58,3-3.85,4.5-.51.6-.51.6-1.17.12-.91-.66-1.81-1.34-2.81-1.87-1.74-.92-3.59-1.12-5.52-.82-.6.09-1.13.37-1.45.93-.38.66-.31,1.28.21,1.84.27.3.62.49.96.68,1.07.6,2.24.97,3.42,1.3,1.75.48,3.49,1.03,5.14,1.78,1.85.84,3.44,2.01,4.55,3.75.3.48.54.98.72,1.52.28.85.44,1.73.58,2.61.07.45,0,.91-.07,1.36-.28,1.81-.86,3.49-2.14,4.88-.9.97-1.95,1.73-3.13,2.34-1.47.76-3.04,1.17-4.66,1.45-1.24.21-2.48.24-3.74.22-1.8-.04-3.55-.36-5.28-.83-2.43-.66-4.63-1.78-6.58-3.38-.32-.26-.61-.56-.88-.86-.34-.38-.36-.56-.06-.96.55-.72,1.13-1.43,1.7-2.14.75-.94,1.49-1.88,2.33-2.75.1-.1.19-.2.28-.3.14-.14.29-.15.45-.03.11.08.22.16.33.25,1.99,1.61,4.22,2.73,6.77,3.14,1.22.2,2.44.15,3.62-.24.57-.19,1-.58,1.35-1.04.21-.28.2-.6.1-.91-.15-.47-.43-.83-.86-1.08-.59-.34-1.23-.53-1.88-.71-1.32-.37-2.67-.65-3.97-1.09-1.95-.65-3.81-1.5-5.46-2.72-1.32-.97-2.41-2.2-2.95-3.74-1.14-3.29-.64-6.35,1.7-9,.99-1.11,2.25-1.91,3.64-2.47,2.09-.84,4.26-1.28,6.78-1.31Z"/>
      <path class="cls-1" d="m258.89,6.05c4.35,0,8.71,0,13.06,0,.23,0,.46,0,.69.01.38.02.42.07.43.43,0,.11,0,.21,0,.32,0,1.73,0,3.45.01,5.18,0,.36.04.73.05,1.09.01.53-.11.64-.63.64-2.8,0-5.59,0-8.39,0-.49,0-.61.11-.56.59.06.64.04,1.27.04,1.91,0,5.82,0,11.63,0,17.45,0,.61-.03,1.21-.05,1.82,0,.33,0,.66.04,1,.06.59-.04.7-.63.71-.12,0-.24,0-.37,0-2.57,0-5.13,0-7.7,0-.72,0-.76-.03-.76-.74,0-5.68.02-11.36.02-17.04,0-1.73,0-3.45-.01-5.18,0-.47-.05-.52-.53-.52-1.73,0-3.45-.01-5.18,0-1.07.01-2.14-.08-3.21-.08-.4,0-.48-.09-.52-.47-.01-.12,0-.24,0-.36,0-2.01,0-4.03,0-6.04q0-.71.7-.71c4.49,0,8.98,0,13.47,0Z"/>
      <path class="cls-1" d="m47.66,29.23c2.37.1,4.33-.86,6.1-2.31.21-.17.42-.36.63-.52.28-.21.42-.22.7-.02.23.15.44.33.64.52,1,.92,2.01,1.82,3.07,2.66.45.36.92.7,1.35,1.09.91.82.78.84.1,1.59-1.61,1.74-3.54,3.05-5.72,4.01-.63.28-1.26.53-1.93.71-.42.11-.76.04-1.1-.24-3.62-2.84-7.42-5.43-11.34-7.85-1.78-1.1-3.52-2.24-5.28-3.36-1.21-.77-2.41-1.55-3.61-2.33-.11-.07-.22-.16-.33-.24-.44-.32-.64-.75-.63-1.29.1-3.92,1.32-7.41,3.95-10.4,1.82-2.07,4.07-3.49,6.63-4.48,1.76-.68,3.58-.97,5.44-1.17,1.07-.11,2.13-.02,3.19.1,1.42.16,2.8.43,4.14.92,2.16.8,4.09,1.96,5.74,3.56.37.36.72.74,1.07,1.12.4.43.38.68-.09,1.06-.82.68-1.63,1.37-2.44,2.06-.96.83-1.93,1.63-2.89,2.44-.32.27-.46.28-.78-.04-.45-.46-.92-.89-1.45-1.25-1.48-1-3.09-1.57-4.9-1.5-.69.02-1.37-.02-2.06.08-1.31.19-2.41.8-3.41,1.65-1.56,1.34-2.36,3.05-2.54,5.07-.21,2.41.45,4.54,2.17,6.27,1.32,1.32,2.94,2.04,4.83,2.09.24,0,.49,0,.73,0Z"/>
      <path class="cls-1" d="m0,0c.24.05.4.21.52.37.76,1.03,1.71,1.89,2.61,2.8,1,1.02,2.01,2.03,3.05,3.01,1.64,1.54,3.33,3.04,4.95,4.59,1.77,1.7,3.72,3.19,5.54,4.82.38.35.8.66,1.21.98,2.16,1.69,4.32,3.37,6.54,4.98,2.18,1.58,4.44,3.06,6.69,4.55.93.61,1.85,1.23,2.79,1.83,2.75,1.75,5.51,3.49,8.26,5.23,2.14,1.36,4.18,2.84,6.21,4.35,2.35,1.75,4.61,3.59,6.75,5.59,2.04,1.91,3.86,4.01,5.45,6.3,1.28,1.85,2.41,3.79,3.27,5.87.1.24.23.46.36.68.16.27.28.56.28,1-.31-.37-.61-.64-.8-.97-.6-1.05-1.41-1.94-2.21-2.84-1.99-2.25-4.27-4.19-6.66-6.02-2.78-2.12-5.76-3.93-8.79-5.67-3.25-1.87-6.58-3.6-9.77-5.58-.91-.56-1.79-1.16-2.7-1.72-1.77-1.08-3.51-2.2-5.23-3.36-3.23-2.17-6.37-4.45-9.39-6.89-1.68-1.36-3.36-2.73-4.94-4.19-1.87-1.73-3.7-3.53-5.36-5.48-1.26-1.48-2.51-2.97-3.65-4.55C3.36,7.41,1.96,4.98.86,2.39.54,1.61.31.79,0,0Z"/>
      <path class="cls-1" d="m309.25,21.57c0-4.92,0-9.84,0-14.77q0-.75.75-.76c2.64,0,5.28,0,7.93,0,.8,0,.8,0,.8.77,0,9.74,0,19.48,0,29.21,0,.21.03.42.04.63.02.33-.1.47-.44.51-.11.01-.21,0-.32,0-2.7,0-5.41,0-8.11,0-.05,0-.09,0-.14,0-.47,0-.52-.05-.52-.53,0-1.11.01-2.21.01-3.32,0-3.92,0-7.85,0-11.77Z"/>
      <path class="cls-1" d="m5.55,20c.28.28.51.47.7.7.79.93,1.67,1.77,2.56,2.6.97.9,1.92,1.82,2.94,2.66,2.5,2.07,4.98,4.14,7.64,6.02,1.82,1.29,3.63,2.56,5.51,3.76,2.23,1.43,4.48,2.85,6.8,4.12,2.39,1.31,4.72,2.73,7.17,3.95,2.19,1.08,4.28,2.34,6.41,3.53,3.34,1.87,6.56,3.94,9.63,6.22,2.13,1.58,4.11,3.34,5.93,5.27,1.42,1.51,2.66,3.16,3.73,4.93.27.44.54.88.81,1.32.05.08.1.15.13.24.04.11.16.23.02.33-.14.09-.27,0-.35-.12-.76-1.19-1.76-2.17-2.8-3.1-.93-.83-1.87-1.65-2.85-2.42-1.18-.94-2.45-1.76-3.71-2.58-3.84-2.51-7.96-4.48-12.14-6.35-2.63-1.18-5.22-2.43-7.74-3.84-1.88-1.04-3.77-2.07-5.63-3.14-1.93-1.11-3.78-2.34-5.65-3.55-3.2-2.07-6.23-4.38-9.1-6.88-2.7-2.36-5.15-4.95-7.18-7.92-.77-1.13-1.45-2.31-2.02-3.56-.13-.29-.3-.56-.45-.84-.2-.39-.37-.78-.36-1.32Z"/>
    </g>
  </g>
</svg>