<?xml version="1.0" encoding="UTF-8"?>
<svg id="Capa_2" data-name="Capa 2" xmlns="http://www.w3.org/2000/svg" viewBox="0 0 349.3 39.34">
  <defs>
    <style>
      .cls-1 {
        fill: #fff;
      }
    </style>
  </defs>
  <g id="Capa_1-2" data-name="Capa 1">
    <g>
      <path class="cls-1" d="m153.4,29.44c0-2.7-.3-5.2-2.7-6.9,0,0,0-.1-.1-.2.5-.6,1-1.3,1.5-2,2.1-3.4,2.3-7.1,1.7-11-.9-6.1-5.5-9.2-11.3-9.3C132.4-.06,122.3.04,112.3.04h-1.5v39h9.4v-13.9h20.2c.5,0,.9,0,1.4.1,1.3.1,2,.9,2.1,2.1.1,1,.1,1.9.1,2.9v9h8.6c.8,0,.8-.5.8-1,0-3-.1-5.9,0-8.8Zm-9.1-14.2c-.2,1.2-1,1.7-2.3,1.7h-20.8c-.8,0-1.1-.2-1.1-1.1.1-2.2,0-4.3,0-6.5,0-.8.1-1.1,1-1.1h20.4c2.2,0,3.1,1,3.1,3.1,0,1.3-.1,2.6-.3,3.9Z"/>
      <path class="cls-1" d="m301.8,15.54v7.5c0,.2-.7.6-1.1.6h-22.5v7.4h3.2c8.4,0,16.7-.1,25.1-.1.5,0,1-.1,1,.7v7.4h-38.9V.14h38.3v8h-28.8v7.4c7.9,0,15.7,0,23.7,0Z"/>
      <path class="cls-1" d="m260.9,39.04h-9.4V11.54c0-2.1-1-3.3-3-3.3-7-.1-13.9,0-20.9,0-.1,0-.2.1-.5.2v30.7h-9.4V.24c.4,0,.9-.1,1.3-.1h30c6.9,0,11.8,4.6,11.8,11.5.1,9.1.1,18.2.1,27.4Z"/>
      <path class="cls-1" d="m36.5,25.14H9.2v13.9H0V.14h41.1c0,.2.1.5.1.7v6.2c0,.8-.1,1.1-1.1,1.1-10-.1-20-.1-30-.1-.8,0-1.1.3-1.1,1.1,0,2.1.1,4.2,0,6.2,0,1.1.2,1.4,1.4,1.4h24.4q1.7,0,1.7,1.8c0,2.3,0,4.4,0,6.6Z"/>
      <path class="cls-1" d="m177.6,39.04h-9.2V8.24h-10.2V.14h37.1v7.4c0,.2-.7.6-1,.6-5.1.1-10.2.1-15.2,0-1.1,0-1.2.3-1.2,1.4v29.1c-.2.2-.2.3-.3.4Z"/>
      <path class="cls-1" d="m322.7,8.34c-3.1,0-5.9-.1-8.7,0-1.2,0-1.5-.3-1.4-1.5.1-2.2,0-4.4,0-6.7h36.7v8h-17.1v30.8h-9.5V8.34Z"/>
      <path class="cls-1" d="m210,39.04h-9.4V.14h9.4v38.9Z"/>
      <path class="cls-1" d="m82.8,9.44c0,.6-.2.9-.8.9-4.8,0-9.6,0-14.5-.1-.1,0-.2-.1-.4-.1V.14h15.7v4.2c0,1.7,0,3.4,0,5.1Z"/>
      <path class="cls-1" d="m46.9,24.64v-9.3c0-.2.5-.7.7-.7h14.1c.7,0,.9.3.9.9,0,2.7.1,5.5,0,8.2,0,.3-.4.8-.6.8-4.9.1-9.9.1-15.1.1Z"/>
      <path class="cls-1" d="m67.1,39.04v-9.8h15.6v9.8h-15.6Z"/>
      <path class="cls-1" d="m103,14.64v9.9c-.3,0-.7.1-1,.1h-13.6c-.9,0-1.1-.2-1.1-1.1v-7.9c0-.3.5-.9.7-.9,5-.1,9.9-.1,15-.1Z"/>
      <path class="cls-1" d="m95.5,38.94c-2.6.3-5.3.1-8,.1v-9.7h15.6c.3,5-2.6,8.9-7.6,9.6Z"/>
      <path class="cls-1" d="m103,10.04h-15.5V.34c2.9,0,5.7-.3,8.4.1,4.7.6,7.6,4.8,7.1,9.6Z"/>
      <path class="cls-1" d="m62.6.14v9.9h-15.4c-.8-3.8,1.4-7.8,5.1-9.1,1.4-.5,3-.7,4.5-.8,1.9-.1,3.8,0,5.8,0Z"/>
      <path class="cls-1" d="m62.6,39.34c-3.3-.3-6.5-.2-9.6-.8-4.1-.9-6.7-5.4-5.8-9.4h15.4v10.2Z"/>
    </g>
  </g>
</svg>