<?xml version="1.0" encoding="UTF-8"?>
<svg id="Capa_2" data-name="Capa 2" xmlns="http://www.w3.org/2000/svg" viewBox="0 0 442.61 139.7">
  <defs>
    <style>
      .cls-1 {
        fill: #fff;
      }
    </style>
  </defs>
  <g id="Capa_1-2" data-name="Capa 1">
    <path class="cls-1" d="m389.15,139.7c-29.52,0-53.45-23.93-53.45-53.45s23.93-53.45,53.45-53.45,53.45,23.93,53.45,53.45h0c0,29.52-23.93,53.45-53.45,53.45Zm0-22.09c17.32,0,31.36-14.04,31.36-31.36s-14.04-31.36-31.36-31.36-31.36,14.04-31.36,31.36,14.04,31.36,31.36,31.36Zm-111.9,22.09c-29.52,0-53.45-23.93-53.45-53.45s23.93-53.45,53.45-53.45,53.45,23.93,53.45,53.45h0c0,29.52-23.93,53.45-53.45,53.45Zm0-22.09c17.32,0,31.36-14.04,31.36-31.36s-14.04-31.36-31.36-31.36-31.36,14.04-31.36,31.36,14.04,31.36,31.36,31.36Zm-58.44-32.07c0,29.88-23.94,54.17-53.45,54.17s-53.45-24.23-53.45-54.12,21.74-52.79,53.45-52.79c11.72,0,22.56,2.49,31.36,8.97V10.76c0-5.94,5.18-10.76,11.05-10.76s11.05,4.82,11.05,10.76v74.77Zm-53.45,32.07c17.32,0,31.36-14.04,31.36-31.36s-14.04-31.36-31.36-31.36-31.36,14.04-31.36,31.36,14.04,31.36,31.36,31.36Zm-111.9,22.09C23.93,139.7,0,115.76,0,86.24s23.93-53.45,53.45-53.45,53.45,23.93,53.45,53.45h0c0,29.52-23.93,53.45-53.45,53.45Zm0-22.09c17.32,0,31.36-14.04,31.36-31.36s-14.04-31.36-31.36-31.36-31.36,14.04-31.36,31.36,14.04,31.36,31.36,31.36Z"/>
  </g>
</svg>