<?xml version="1.0" encoding="UTF-8"?>
<svg id="Capa_2" data-name="Capa 2" xmlns="http://www.w3.org/2000/svg" viewBox="0 0 285.73 61.46">
  <defs>
    <style>
      .cls-1 {
        fill: #fff;
      }
    </style>
  </defs>
  <g id="Capa_1-2" data-name="Capa 1">
    <path class="cls-1" d="m0,12.28c1.86-.68,3.72-1.36,5.57-2.05,3.5-1.3,7.01-2.6,10.51-3.91,5.36-1.99,10.71-3.98,16.06-5.99.98-.37,1.92-.44,2.95-.15,5.61,1.61,11.24,3.18,16.86,4.76.14.04.27.1.44.16,0,.23,0,.45,0,.67,0,16.68,0,33.36,0,50.04,0,.48-.02.82-.61.98-5.5,1.47-10.99,2.97-16.48,4.47-1.12.31-2.18.2-3.27-.19-7.85-2.88-15.71-5.74-23.58-8.59-1.91-.69-3.83-1.33-5.74-2-.25-.09-.48-.24-.7-.48.33,0,.66-.04.98,0,3.6.51,7.2,1.04,10.81,1.54,1.99.28,3.98.49,5.97.76,2.77.37,5.54.78,8.31,1.15,1.62.22,3.25.36,4.87.59.7.1.87-.15.87-.78-.01-3.82,0-7.64,0-11.46,0-10.52,0-21.04,0-31.56,0-.31-.05-.61-.08-.93-2.21.51-4.32.99-6.43,1.49-4.7,1.11-9.4,2.19-14.08,3.37-2.19.55-1.8-.05-1.81,2.24-.05,9.31-.06,18.63-.08,27.94,0,.24-.02.49-.03.66C7.5,46.5,3.75,47.94,0,49.39c0-12.37,0-24.74,0-37.11Z"/>
    <path class="cls-1" d="m133.45,26.3v23.02h-4.14c-.03-.36-.09-.75-.09-1.13,0-6.31,0-12.61,0-18.92,0-.79.06-1.58.11-2.36.03-.43-.11-.61-.59-.61-3.2.01-6.4.01-9.6,0-.41,0-.59.15-.59.56,0,.86,0,1.72,0,2.59,0,6.41,0,12.81,0,19.22,0,.2,0,.39,0,.65h-4.1v-23.03c-1.02.05-1.95.09-2.88.13-1.71.07-1.72.07-1.7-1.57,0-.64.06-1.28.09-2h4.47c0-.42-.02-.75,0-1.08.14-2.01.1-4.05.46-6.02.66-3.62,4-6.22,7.36-6.15,1.09.02,2.17.1,3.26.2.17.02.45.27.46.42.04,1.08.02,2.16.02,3.35-.43-.12-.78-.2-1.12-.3-3.15-.97-5.68.53-6.11,3.79-.25,1.86-.18,3.77-.26,5.71h10.83c0-1.39.01-2.76,0-4.13-.03-2.47.56-4.73,2.33-6.57,1.46-1.52,3.19-2.49,5.37-2.45,1.09.02,2.18.09,3.26.18.17.01.45.27.45.43.04,1.08.02,2.15.02,3.37-.48-.13-.88-.23-1.26-.35-2.95-.93-5.64.74-5.88,3.8-.15,1.88-.03,3.78-.03,5.76h6.14c0,1.12.02,2.14-.03,3.17,0,.14-.36.37-.55.37-1.54.02-3.08,0-4.61-.02-.32,0-.64,0-1.08,0Z"/>
    <path class="cls-1" d="m106.87,31.08c.18,2.71-.49,5.94-1.88,9.01-2.39,5.25-6.45,8.41-12.15,9.48-5.33,1-10.25.11-14.64-3.15-2.57-1.9-4.28-4.47-5.31-7.42-2.19-6.23-1.88-12.4.96-18.36,2.39-5.01,6.56-7.69,11.98-8.69,3.42-.63,6.76-.42,10.03.71,5.62,1.94,8.71,6.12,10.34,11.61.6,2.02.66,4.07.68,6.8Zm-30.95-.17c-.02,2.29.29,4.51,1.1,6.62.87,2.25,2.05,4.33,4,5.85,3.21,2.5,6.83,3.39,10.83,2.6,4.72-.93,7.9-3.72,9.58-8.16,1.23-3.25,1.2-6.66.92-10.06-.24-2.88-1.17-5.53-3.02-7.8-2.93-3.59-6.81-4.94-11.35-4.5-4.87.48-8.24,3.14-10.38,7.39-1.27,2.53-1.7,5.27-1.68,8.05Z"/>
    <path class="cls-1" d="m258.1,16.45c-.91-.32-1.73-.68-2.58-.89-2.32-.58-4.63-.72-6.94.14-2.22.83-3.7,2.45-4.9,4.35-1.55,2.46-2.36,5.18-2.56,8.08-.07,1.04-.16,2.08-.25,3.12.07.03.15.06.22.08.16-.22.35-.42.48-.65,1.69-3.07,4.39-4.43,7.82-4.5,2.7-.05,5.23.5,7.34,2.31,1.9,1.63,2.93,3.76,3.37,6.17.8,4.38.07,8.46-3.06,11.77-4.97,5.25-14.93,5.21-18.59-3.53-.96-2.3-1.51-4.69-1.71-7.14-.5-5.98.33-11.75,3.32-17.05,1.62-2.88,3.95-5.14,7.14-6.3,2.31-.85,4.73-1.05,7.18-.65.81.13,1.62.25,2.42.38,1.1.18,1.29.39,1.29,1.47,0,.92,0,1.85,0,2.83Zm-1.83,21.81c-.14-1.09-.13-2.22-.44-3.26-.93-3.1-3.36-5.49-7.43-5.33-2.3.09-4.08,1.05-5.49,2.78-2.34,2.84-2.08,7.53-.01,10.66,2.98,4.51,9.09,4.51,11.98-.05.92-1.45,1.33-3.06,1.4-4.8Z"/>
    <path class="cls-1" d="m264.86,44.26c1.02.44,1.92.88,2.86,1.24,2.92,1.12,5.85,1.35,8.85.24,2.99-1.11,4.99-4,5.05-7.42.05-3.12-1.83-5.92-4.89-6.96-1.29-.44-2.69-.69-4.06-.74-2.2-.09-4.41.06-6.62.1-.12,0-.24-.02-.48-.04.43-6.18.86-12.32,1.28-18.5h17.25v3.74c-.51,0-.98,0-1.44,0-3.9-.01-7.79-.02-11.69-.04-.39,0-.51.13-.54.51-.18,2.38-.38,4.75-.58,7.13-.07.91-.12,1.82-.24,2.72-.07.53.08.7.62.7,1.71.02,3.43-.02,5.12.15,2.64.27,5.2.89,7.21,2.79,1.76,1.67,2.9,3.68,3.07,6.13.08,1.2.1,2.41.04,3.6-.26,4.62-4.01,8.99-9.72,10.02-3.55.64-7,.33-10.41-.76-.5-.16-.73-.39-.71-.94.03-1.18.01-2.36.01-3.68Z"/>
    <path class="cls-1" d="m199.29,37.09c-.37,0-.62,0-.86,0-5.81,0-11.61,0-17.42,0-.84,0-.92.08-.74.89.29,1.29.45,2.64.98,3.84,1.38,3.12,4.02,4.46,7.34,4.64,2.77.15,5.28-.66,7.63-2.06.32-.19.64-.36,1.11-.63,0,1.25.02,2.38-.02,3.52,0,.17-.31.36-.51.49-1.85,1.19-3.93,1.71-6.07,2.04-2.37.35-4.7.22-6.98-.52-3.13-1.01-5.29-3.12-6.45-6.11-2.17-5.57-1.9-11,1.47-16.07,1.87-2.81,4.64-4.27,7.97-4.74,2.73-.38,5.32.11,7.63,1.55,1.84,1.16,3.04,2.93,3.88,4.93,1.11,2.62.91,5.39,1.05,8.24Zm-18.96-3.5c.22.02.39.04.56.04,3.7.01,7.4.02,11.09.03.87,0,1.74,0,2.61.01.41,0,.59-.12.47-.58-.12-.5-.13-1.03-.22-1.53-.45-2.38-1.63-4.3-3.94-5.19-5.63-2.18-10.16,2.49-10.58,7.22Z"/>
    <path class="cls-1" d="m211.84,17.56c0-1.28-.03-2.38.03-3.48.01-.25.3-.59.54-.7,4.11-1.96,8.34-2.36,12.7-.93,3.24,1.06,5.4,4.06,5.47,7.43.04,1.8-.14,3.53-.98,5.16-1.14,2.21-3.04,3.51-5.32,4.35-.35.13-.68.29-1.02.44.01.09.03.17.04.26.42.08.84.15,1.26.23,3.39.66,5.99,2.42,7.01,5.76.92,3.01.54,5.99-1.3,8.67-1.97,2.87-4.81,4.3-8.16,4.9-3.95.71-7.75.3-11.36-1.48-.17-.08-.38-.33-.38-.5-.03-1.28-.02-2.55-.02-3.98.3.16.51.26.71.38,2.6,1.65,5.42,2.51,8.52,2.37,2.51-.12,4.77-.81,6.54-2.71,2.23-2.4,2.66-7.85-1.61-10.32-1.77-1.02-3.71-1.35-5.7-1.49-1.29-.09-2.58-.09-3.87-.07-.59,0-.8-.19-.77-.77.04-.66.04-1.33-.01-1.99-.04-.54.17-.68.68-.68,1.56-.02,3.13-.01,4.68-.15,1.7-.15,3.3-.69,4.65-1.78,1.9-1.54,2.4-3.63,2.17-5.91-.32-3.23-2.41-5.09-5.66-5.38-3.19-.29-6.1.34-8.84,2.38Z"/>
    <path class="cls-1" d="m172.75,27.87c-.34-.19-.54-.3-.74-.42-3.4-1.93-6.89-2.34-10.39-.36-2.17,1.23-3.61,3.11-4.24,5.55-.64,2.47-.81,4.96-.04,7.43,1.63,5.27,6.67,7.38,11.5,5.98,1.03-.3,1.98-.87,2.96-1.33.29-.13.56-.29.95-.5,0,1.28,0,2.45-.01,3.62,0,.13-.15.3-.28.37-5.05,2.75-12.06,2.35-16.13-1.85-2.13-2.2-3.26-4.89-3.59-7.86-.52-4.69.55-8.97,3.93-12.45,2.24-2.3,5.08-3.38,8.28-3.73,2.63-.28,5.06.35,7.5,1.09.12.04.27.23.27.35.02,1.32.01,2.64.01,4.1Z"/>
    <path class="cls-1" d="m143.95,22.84h4.08c0,.37,0,.71,0,1.04,0,8.27,0,16.55.01,24.82,0,.51-.12.7-.65.69-1.13-.03-2.26,0-3.43,0v-26.54Z"/>
    <path class="cls-1" d="m145.95,15.95c-1.64,0-2.62-1.02-2.58-2.66.03-1.59,1.09-2.63,2.68-2.63,1.63,0,2.76,1.11,2.74,2.66-.02,1.63-1.11,2.64-2.84,2.63Z"/>
  </g>
</svg>