<?xml version="1.0" encoding="UTF-8"?>
<svg id="Capa_2" data-name="Capa 2" xmlns="http://www.w3.org/2000/svg" viewBox="0 0 304.9 55.24">
  <defs>
    <style>
      .cls-1 {
        fill: #fff;
      }
    </style>
  </defs>
  <g id="Capa_1-2" data-name="Capa 1">
    <path class="cls-1" d="m157.08,0c0,1.61.02,3.21.02,4.82,0,11.63,0,23.25.02,34.88,0,.7-.18.89-.88.88-2.63-.04-5.26-.02-8.01-.02V0c2.95,0,5.9,0,8.85,0Z"/>
    <path class="cls-1" d="m235.85,0c.01,2.56.04,5.12.04,7.69,0,9.78,0,19.55,0,29.33,0,1.14,0,2.29,0,3.49h-8.74V0h8.7Z"/>
    <path class="cls-1" d="m304.9,13.52c-.14.24-.33.46-.41.71-.74,2.22-2.51,3.35-5.03,3.17-2.09-.15-3.81-1.76-4.14-3.88-.32-2.07.63-4.04,2.43-5.03,1.78-.98,4.04-.74,5.57.71.51.49.78,1.23,1.17,1.85.13.21.28.4.41.6v1.87Zm-4.9-4.91c-2.55-.27-4.32,2.03-4.21,4.24.1,2.07,1.69,4.14,4.46,4.02,2.4-.11,4.08-1.8,4.04-4.24-.04-2.28-1.75-4.23-4.29-4.01Z"/>
    <path class="cls-1" d="m91.73,36.79c-.03.38-.08.62-.08.87,0,4.12,0,8.25.03,12.37,0,.58-.14.71-.72.7-2.42-.04-4.83-.02-7.25-.03-.26,0-.53-.02-.85-.04V10.77c.17-.02.36-.07.55-.06,2.2.02,4.4.06,6.6.06.56,0,.78.14.81.76.05,1.06.26,2.11.43,3.33.26-.29.4-.44.53-.6,2.09-2.6,4.85-3.86,8.17-4,5.56-.24,10.21,3.14,12.15,8.31,2.24,5.96,2.02,11.84-1.71,17.22-3.96,5.72-11.07,6.63-16.04,3.45-.85-.54-1.5-1.39-2.24-2.1-.08-.08-.16-.15-.37-.34Zm-.35-11.21c-.06.01-.13.03-.19.04.31,1.41.49,2.88.96,4.23.88,2.51,3.06,4.01,5.77,4,2.58-.02,4.53-1.28,5.54-3.6,1.36-3.1,1.4-6.32-.08-9.39-1.1-2.27-3.11-3.45-5.68-3.43-2.47.02-4.24,1.24-5.36,3.41-.77,1.49-.96,3.09-.97,4.73Z"/>
    <path class="cls-1" d="m198,20.57c-.11-.22-.25-.44-.35-.68-.72-1.77-1.42-3.56-2.16-5.32-.2-.47-.15-.68.34-.93,2.93-1.51,5.98-2.69,9.26-3.19,3.04-.46,6.07-.34,9.03.6,4.43,1.41,6.81,4.51,7.49,8.97.22,1.41.29,2.86.3,4.29.03,5.18.02,10.36.02,15.53,0,.19,0,.38,0,.65-.42.02-.8.05-1.18.05-1.98,0-3.96-.01-5.95.02-.51,0-.67-.18-.73-.65-.11-.88-.28-1.75-.44-2.62-.04-.2-.13-.39-.22-.64-.16.14-.27.2-.33.28-2.62,3.28-6.12,4.34-10.17,3.96-4.04-.37-7.26-2.91-8.12-6.6-.92-3.95.3-7.58,3.93-9.74,2.23-1.33,4.69-2,7.26-2.27,1.58-.17,3.17-.32,4.75-.5.33-.04.67-.12.98-.23.65-.22,1.29-.49,1.39-1.29.1-.86-.12-1.62-.86-2.16-.87-.64-1.88-.8-2.94-.84-3.81-.14-7.18,1.25-10.46,2.96-.19.1-.38.21-.58.3-.06.03-.14.02-.27.04Zm15.21,6.19c-.16.03-.26.05-.35.07-1.6.42-3.21.83-4.81,1.25-1.23.32-2.5.55-3.66,1.02-.97.39-1.32,1.34-1.32,2.38,0,1.05.4,1.95,1.4,2.31,1,.36,2.09.66,3.14.67,2.86.04,4.92-1.59,5.36-4.16.2-1.14.16-2.33.23-3.54Z"/>
    <path class="cls-1" d="m119.16,20.65c-.17-.33-.33-.6-.45-.88-.7-1.73-1.38-3.47-2.09-5.19-.18-.43-.19-.65.29-.9,2.99-1.56,6.1-2.77,9.46-3.24,3.05-.43,6.08-.33,9.02.66,4.16,1.4,6.58,4.3,7.3,8.57.19,1.15.3,2.33.31,3.5.03,5.54.02,11.07.02,16.61,0,.21,0,.43,0,.72-.28.01-.51.03-.74.04-2.1,0-4.21,0-6.31.02-.54,0-.76-.15-.81-.72-.1-1.03-.32-2.05-.51-3.21-.27.17-.38.21-.45.29-2.61,3.28-6.11,4.34-10.17,3.98-4.16-.38-7.37-3.01-8.18-6.89-.76-3.69.45-7.6,4.16-9.58,2.23-1.19,4.58-1.87,7.08-2.13,1.7-.18,3.41-.34,5.11-.58,1.26-.18,2.03-.84,2.1-1.66.08-.89-.64-1.98-1.7-2.35-.65-.23-1.35-.38-2.04-.42-3.86-.2-7.28,1.21-10.59,2.96-.25.13-.5.25-.81.41Zm15.2,5.96c-2.09,1.09-4.21,1.32-6.29,1.68-.82.14-1.64.39-2.4.73-1.08.48-1.57,1.42-1.49,2.57.08,1.09.57,2.03,1.7,2.35.98.28,2.02.54,3.03.53,2.78-.03,4.74-1.61,5.21-4.17.21-1.14.17-2.33.25-3.68Z"/>
    <path class="cls-1" d="m176.83,41.02c-6.27-.25-10.94-2.51-13.83-7.67-1.83-3.26-2.05-6.83-1.59-10.47.74-5.8,4.8-10.47,10.51-11.99,4.81-1.28,9.47-.9,13.72,1.8,4.36,2.77,6.5,6.88,6.69,11.99.09,2.36-.04,4.72-.94,6.93-2.04,5.04-5.86,8.02-11.19,9.08-1.24.25-2.54.26-3.36.34Zm6.61-15.34c-.07-.01-.14-.03-.21-.04.01-1.5-.14-2.97-.75-4.36-.91-2.09-2.46-3.41-4.77-3.73-2.37-.32-4.32.4-5.78,2.34-.91,1.21-1.44,2.53-1.56,4.03-.17,2.22-.17,4.41.86,6.47,1.19,2.37,3.19,3.54,5.79,3.45,2.59-.09,4.52-1.42,5.43-3.86.51-1.37.66-2.87.98-4.31Z"/>
    <path class="cls-1" d="m262.48,25.61c-.12-3.87,1.02-7.35,3.57-10.28,2.99-3.43,6.91-4.95,11.41-5.09,3.43-.11,6.69.59,9.58,2.51,3.89,2.59,6.03,6.24,6.42,10.88.23,2.67.16,5.33-.81,7.87-1.81,4.74-5.26,7.71-10.19,8.96-3.99,1.01-7.92.78-11.66-1.02-5.42-2.6-8.02-7.03-8.32-12.89-.02-.31,0-.62,0-.93Zm9.03.13c.11,1.47.2,3.02.89,4.46,1.09,2.28,2.91,3.56,5.45,3.65,2.27.08,4.14-.85,5.28-2.81,1.9-3.28,1.92-6.71.39-10.13-1.03-2.29-2.9-3.47-5.44-3.51-2.65-.04-4.48,1.26-5.64,3.56-.74,1.47-.84,3.08-.94,4.77Z"/>
    <path class="cls-1" d="m45.14.58c.16.11.3.19.42.3,2.64,2.6,5.27,5.21,7.91,7.81.39.39.8.77,1.2,1.15.32.31.43.62.06.98-6.94,6.87-13.88,13.75-20.82,20.62-1.21,1.2-2.46,2.37-3.71,3.53-.43.39-.34.61.04.97,1.36,1.26,2.67,2.57,4.01,3.84.47.45.45.79-.02,1.25-2.96,2.9-5.89,5.81-8.82,8.75-.4.4-.61.43-1.03.01-2.97-2.98-5.97-5.95-8.98-8.89-.44-.43-.34-.67.04-1.04,3.01-2.94,6.02-5.89,9.01-8.85,4.99-4.95,9.97-9.91,14.95-14.86.85-.84.85-.84.02-1.64-1.26-1.22-2.51-2.46-3.78-3.67-.37-.35-.34-.61,0-.96,3.04-2.99,6.06-5.98,9.1-8.97.12-.11.25-.21.41-.33Z"/>
    <path class="cls-1" d="m44.95,50.36c-.25-.3-.47-.62-.74-.88-2.78-2.77-5.57-5.53-8.35-8.29q-.78-.77.02-1.57c5.04-5,10.09-9.99,15.13-14.99,2.87-2.85,5.75-5.69,8.6-8.56.51-.51.8-.52,1.32,0,2.89,2.89,5.82,5.74,8.75,8.61.58.57.58.68-.07,1.33-3.54,3.5-7.09,7-10.63,10.51-4.53,4.49-9.05,8.99-13.57,13.48-.1.1-.22.18-.45.37Z"/>
    <path class="cls-1" d="m9.79,35.26c-.17-.14-.3-.24-.42-.35-3.03-3-6.04-6.01-9.09-8.99-.55-.54-.19-.82.16-1.17,2.95-2.9,5.91-5.8,8.85-8.71,4.89-4.84,9.78-9.69,14.66-14.54,1.06-1.06,1.05-1.04,2.15.06,2.7,2.71,5.42,5.41,8.13,8.11.69.68.67.75-.02,1.42-5.83,5.77-11.66,11.55-17.49,17.33-2.17,2.15-4.34,4.31-6.51,6.46-.13.13-.28.24-.44.38Z"/>
    <path class="cls-1" d="m241.07,5.19c3.01-.45,5.94-.88,8.92-1.32.03.23.07.39.07.55,0,1.89.01,3.79-.03,5.68-.01.52.14.65.65.65,3.07-.02,6.14,0,9.21-.03.63,0,.82.15.8.81-.05,1.75-.04,3.5.02,5.25.02.56-.13.69-.68.68-3.07-.02-6.14-.01-9.21,0-.23,0-.47.03-.79.05,0,.8,0,1.54,0,2.28,0,3.09-.02,6.18,0,9.28,0,.74.06,1.49.19,2.21.33,1.72,1.35,2.62,3.13,2.54,1.24-.05,2.46-.39,3.68-.66.58-.13,1.14-.39,1.69-.63.47-.21.68-.18.88.37.58,1.6,1.22,3.17,1.89,4.73.28.64.12.89-.49,1.18-3.33,1.61-6.81,2.32-10.52,2.18-5.09-.19-8.61-3.32-9.12-8.35-.18-1.81-.28-3.63-.29-5.45-.03-7.07-.01-14.14-.01-21.21,0-.24,0-.47,0-.77Z"/>
    <path class="cls-1" d="m245.24,53.08c.2-.6.41-1.2.6-1.8.31-1.01.59-2.02.93-3.02.07-.19.38-.3.59-.44.03-.02.09.02.14.02,1.42.11,1.41.11,1.82,1.48.29.99.59,1.97.9,2.95.07.23.23.43.52.61.26-1.27.56-2.54.76-3.83.17-1.11.12-1.12,1.26-1.22.33-.03.67-.05,1.08-.08-.03.26-.04.47-.09.66-.53,1.99-1.08,3.97-1.59,5.97-.13.51-.35.7-.89.69-2.06-.03-2.06-.01-2.62-1.98-.23-.82-.48-1.63-.78-2.64-.23.56-.42.95-.56,1.37-.3.91-.55,1.84-.88,2.73-.08.22-.41.34-.64.5-.03.02-.09,0-.14,0-.67-.03-1.52.17-1.97-.17-.43-.32-.45-1.18-.63-1.81-.46-1.61-.91-3.22-1.36-4.83-.04-.13-.02-.27-.03-.45.76.04,1.47.07,2.19.11.39,1.72.77,3.44,1.16,5.16.08,0,.15.02.23.03Z"/>
    <path class="cls-1" d="m219,51.73v-3.94c.57,0,1.07-.03,1.57.02.16.02.41.27.41.42,0,2.13-.02,4.26-.05,6.39,0,.14-.09.35-.2.41-.45.26-1.93-.08-2.26-.51-.93-1.22-1.85-2.44-2.9-3.82v4.32h-2.06v-7.25c.69.04,1.34.06,1.97.14.18.02.36.22.48.38.77.98,1.54,1.97,2.29,2.96.17.22.3.48.44.72.1-.08.19-.16.29-.24Z"/>
    <path class="cls-1" d="m266.63,47.75c1.7.08,3.38.14,5.06.26.99.07,1.57.68,1.8,1.61.24.98.18,1.96-.67,2.63-.61.48-.55.82-.09,1.32.38.42.69.9,1.05,1.38-1.61.38-2.22.13-3.09-1.12-.2-.29-.49-.66-.79-.73-1.19-.26-1.26-.17-1.28,1.04q-.01.92-.96.92c-.24,0-.5.06-.72,0-.17-.05-.42-.26-.42-.4-.02-2.2,0-4.4,0-6.6,0-.07.05-.13.11-.31Zm2.03,1.78c-.04.51-.06.98-.11,1.45-.05.45.14.6.58.57.5-.03,1.01-.04,1.51-.03.66.01.91-.37.91-.94,0-.55-.23-1-.86-1.04-.64-.04-1.29,0-2.03,0Z"/>
    <path class="cls-1" d="m259.76,55.23c-1.61-.02-2.99-.57-3.65-2.09-.61-1.42-.62-2.9.47-4.19,1.72-2.02,5.77-1.74,6.92.63,1.18,2.43.24,5.26-3.17,5.64-.19.02-.39,0-.58,0Zm.05-1.72c1.38,0,2.12-.72,2.12-2.06,0-1.34-.75-2.1-2.09-2.12-1.26-.02-2.12.84-2.11,2.13,0,1.26.8,2.05,2.08,2.06Z"/>
    <path class="cls-1" d="m223.97,47.81c1.86,0,3.67.04,5.47-.02.68-.02.85.22.84.79,0,.28,0,.56,0,.91-1.13,0-2.24,0-3.34,0-1.03,0-1.04.01-.88,1.12h3.35v1.54c-.9,0-1.78-.03-2.67.02-.26.02-.66.22-.73.43-.16.45.03.77.61.76,1.04-.02,2.08.02,3.12,0,.49-.01.67.1.62.64-.11,1.22.04,1.06-1.15,1.06-1.59,0-3.19,0-4.78,0-.31,0-.57.03-.56-.42.02-2.2,0-4.41.01-6.61,0-.07.05-.13.09-.23Z"/>
    <path class="cls-1" d="m292.56,49.95c-1.02-.25-1.9-.47-2.78-.67-.21-.05-.47-.1-.64-.02-.32.15-.59.41-.88.62.26.2.5.49.79.57.79.22,1.61.31,2.4.51.83.22,1.41.73,1.51,1.63.1.92-.3,1.67-1.17,2.12-1.74.89-3.48.48-5.2-.06-.17-.05-.34-.35-.37-.55-.06-.39-.02-.8-.02-1.29.25.07.44.1.6.18,1.13.54,2.33.58,3.54.48.21-.02.4-.33.6-.51-.17-.16-.32-.4-.53-.46-.83-.23-1.7-.37-2.53-.61-1.14-.33-1.63-.9-1.68-1.81-.05-.95.49-1.68,1.54-2.11,1.44-.59,2.89-.43,4.31.05.21.07.41.42.47.68.08.39.02.8.02,1.22Z"/>
    <path class="cls-1" d="m278.74,47.77c-.04.79-.1,1.45-.09,2.12,0,.24.16.63.33.68.25.07.65-.02.83-.2.52-.53,1-1.11,1.42-1.72.38-.55.8-.84,1.49-.77.42.04.86-.04,1.4-.08-.14.22-.23.4-.35.55-.65.83-1.29,1.67-1.97,2.48-.35.42-.31.73.02,1.12.69.8,1.34,1.63,2,2.46.14.17.25.37.42.65-.71,0-1.28.05-1.84-.02-.27-.03-.57-.24-.77-.45-.58-.64-1.08-1.35-1.67-1.98-.21-.22-.64-.45-.88-.37-.21.07-.34.53-.42.84-.07.27.01.57-.02.86-.04.36-.04.98-.19,1.02-.52.14-1.09.09-1.64.06-.08,0-.19-.3-.2-.47-.02-2.08-.01-4.16-.03-6.25,0-.4.11-.56.53-.54.52.03,1.05,0,1.61,0Z"/>
    <path class="cls-1" d="m239.52,47.85s.05.05.05.07c.36,1.72.31,1.78-1.46,1.66-.99-.07-1.01-.07-1.01.9,0,1.32,0,2.63.04,3.95.01.45-.12.63-.61.63-1.49.02-1.49.04-1.5-1.42,0-1.31,0-2.62,0-4.03h-2.64c.06-.59.09-1.08.18-1.56.02-.12.26-.28.4-.28,2.12-.01,4.25,0,6.37.01.07,0,.14.04.19.06Z"/>
    <path class="cls-1" d="m301.99,14.86c-.72.28-.94-.08-1.2-.51-.23-.38-.56-.78-.94-.96-.39-.18-.81,0-.75.6.03.28,0,.57,0,.87-.63.23-.88.05-.87-.58.02-1.13,0-2.25-.02-3.38,0-.39.11-.58.53-.55.53.03,1.06-.02,1.59.02.86.05,1.62.61,1.65,1.33.02.37-.15.89-.42,1.1-.45.35-.51.61-.2,1.05.21.3.38.64.6,1.02Zm-2.83-2.25c.54-.02,1.09,0,1.61-.09.36-.06.6-.3.42-.73-.22-.54-.92-.81-1.66-.68-.7.12-.37.65-.44,1.01-.02.11.02.23.06.48Z"/>
  </g>
</svg>