<?xml version="1.0" encoding="UTF-8"?>
<svg id="Capa_2" data-name="Capa 2" xmlns="http://www.w3.org/2000/svg" viewBox="0 0 483.71 71.53">
  <defs>
    <style>
      .cls-1 {
        fill: #fff;
      }
    </style>
  </defs>
  <g id="Capa_1-2" data-name="Capa 1">
    <g>
      <path class="cls-1" d="m342.7,34.58c.29-.41.48-.79.66-1.18.91-2,1.84-3.99,2.71-6.01.59-1.36,1.26-2.68,1.9-4.02.53-1.11,1.04-2.24,1.59-3.34.74-1.5,1.62-2.91,2.89-4.04,2.15-1.92,4.62-3.06,7.56-3.09,2.02-.02,4.03-.11,6.05-.08.65,0,1.3.02,1.94.1,1.36.16,2.39.87,3.08,2.02.57.94.82,1.97.88,3.06.02.34.02.68.02,1.02,0,12.86,0,25.73,0,38.59,0,.04,0,.07,0,.11,0,.86-.12.99-1.01.94-.95-.06-1.88-.21-2.79-.57-2.09-.81-3.91-1.99-5.29-3.76-1.46-1.88-2.36-3.97-2.44-6.39-.2-5.92-.08-11.84-.09-17.77,0-1.61,0-3.21,0-4.82,0-.83-.39-1.2-1.23-1.23-.2,0-.34.08-.47.21-.22.21-.37.48-.5.76-1.29,2.69-2.53,5.4-3.75,8.13-.87,1.94-1.8,3.85-2.69,5.78-1.1,2.4-2.17,4.82-3.3,7.21-.87,1.84-1.67,3.72-2.51,5.57-.25.54-.52,1.06-.87,1.54-.8,1.08-1.91,1.44-3.2,1.06-.58-.17-.96-.54-1.27-1.02-.35-.52-.62-1.09-.87-1.66-.96-2.19-2.04-4.33-3.04-6.51-.65-1.41-1.26-2.84-1.91-4.25-.74-1.61-1.5-3.2-2.24-4.81-.74-1.61-1.46-3.22-2.2-4.83-.68-1.46-1.37-2.91-2.05-4.37-.31-.66-.61-1.33-.89-2.01-.2-.47-.5-.67-1.04-.65-1.03.03-1.03,0-1.03,1.05,0,7.17,0,14.34,0,21.52,0,3.01-1.04,5.67-3,7.95-1.88,2.18-4.33,3.37-7.18,3.78-.25.04-.5.08-.75.09-.53.02-.64-.08-.66-.6-.01-.32,0-.64,0-.96-.2-10.74-.06-21.48-.08-32.22,0-2.5.1-4.99.09-7.49,0-.55.09-1.1.24-1.64.4-1.43,1.92-2.64,3.54-2.84.52-.06,1.04-.1,1.56-.09,1.82.01,3.64,0,5.46.02.79,0,1.59.01,2.37.13,3.57.56,6.31,2.37,8.24,5.4.95,1.5,1.63,3.14,2.37,4.74.65,1.41,1.3,2.82,1.95,4.24.76,1.67,1.52,3.35,2.28,5.03.32.71.73,1.38,1,2.2Z"/>
      <path class="cls-1" d="m401.81,58.65c-3.98,0-7.96,0-11.94,0-1.33,0-2.6-.22-3.84-.73-2.26-.92-4.15-2.29-5.49-4.33-.85-1.3-1.5-2.69-1.77-4.22-.1-.6-.15-1.2-.15-1.81,0-7.78-.02-15.55,0-23.33.01-3.79,1.63-6.84,4.67-9.09,2.02-1.5,4.34-2.22,6.91-2.26,7.31-.1,14.62-.03,21.93-.05,1.04,0,2.1-.01,3.12.18,4.11.76,7.01,3.05,8.76,6.8.68,1.46.91,3,.96,4.58.05,1.41.03,2.82.03,4.23,0,5.99,0,11.99,0,17.98,0,1.02-.08,2.03-.29,3.03-.41,1.89-1.26,3.55-2.52,5.02-1.54,1.79-3.5,2.94-5.73,3.68-.79.26-1.62.33-2.45.33-4.07,0-8.14,0-12.21,0h0Zm11.5-22.8v-.21c0-2.83.01-5.67,0-8.5,0-1.52-.92-2.5-2.43-2.73-.68-.1-1.36-.11-2.05-.11-4.9,0-9.79,0-14.69,0-.43,0-.87,0-1.3.03-1.42.11-2.3.84-2.61,2.28-.11.48-.13.99-.13,1.49,0,5.14,0,10.27,0,15.41,0,.5.05,1,.12,1.49.17,1.13,1.1,2.05,2.22,2.17.59.06,1.18.12,1.78.12,5.33,0,10.66,0,15.98,0,.16,0,.32,0,.49,0,.94-.08,1.75-.39,2.24-1.26.29-.52.39-1.06.38-1.65,0-2.83,0-5.67,0-8.5Z"/>
      <path class="cls-1" d="m224.89,58.65c-3.93,0-7.85,0-11.78,0-2.96,0-5.51-1.04-7.66-3.07-2.34-2.23-3.5-4.97-3.64-8.15-.2-4.53-.06-9.06-.09-13.59-.02-2.91-.03-5.82.02-8.72.03-1.81.27-3.6,1.03-5.27,1.61-3.58,4.37-5.82,8.2-6.75.42-.1.85-.14,1.28-.16,1.51-.05,3.02-.09,4.53-.09,5.64-.01,11.27,0,16.91,0,1.3,0,2.59.04,3.89.11,2.21.11,4.16.96,5.91,2.26,2.46,1.81,3.87,4.27,4.5,7.2.22,1.03.35,2.07.35,3.13,0,6.96.02,13.91-.02,20.87-.02,3.21-1,6.12-3.19,8.54-1.91,2.11-4.31,3.35-7.18,3.65-.67.07-1.33.07-2,.07-3.69,0-7.38,0-11.07,0h0Zm.14-11.38h0c2.99,0,5.98-.01,8.97,0,.82,0,1.46-.3,1.98-.91.5-.58.73-1.26.75-2.02.03-1.12-.07-2.25-.07-3.37-.02-3.55,0-7.1,0-10.65,0-.23,0-.47.02-.7.09-.87.04-1.75.06-2.62.02-1.34-1.11-2.23-1.92-2.54-.42-.16-.88-.17-1.33-.17-5.85,0-11.7,0-17.56-.01-.11,0-.22,0-.32,0-.36,0-.68.11-.96.31-.87.59-1.41,1.36-1.44,2.44,0,.27-.01.54,0,.8.05,4.62.04,9.24.03,13.86,0,.73-.02,1.46-.07,2.19-.04.66,0,1.32.38,1.91.63.97,1.48,1.49,2.69,1.48,2.93-.03,5.87-.01,8.81-.01Z"/>
      <path class="cls-1" d="m148.54,37.65c0-4.32,0-8.63,0-12.95,0-2.3.02-4.6.03-6.9,0-.64.09-1.28.22-1.91.11-.55.36-1.04.77-1.45.48-.49.94-.99,1.6-1.25.7-.28,1.44-.32,2.17-.35.65-.03,1.3,0,1.94,0,9.16,0,18.33,0,27.49,0,1.35,0,2.69.13,4,.54,3.44,1.08,5.81,3.31,7.3,6.53.6,1.3.84,2.65.86,4.05.04,3.12.08,6.24.02,9.36-.05,2.48-.92,4.67-2.46,6.6-1.39,1.75-3.13,3.03-5.26,3.78-.44.15-.88.31-1.36.33-.3.01-.38.17-.22.43.14.23.33.43.48.65,1.36,1.99,2.81,3.93,4.22,5.89,1.09,1.51,2.15,3.04,3.21,4.56.29.41.57.82.9,1.21.11.14.22.29.3.44.11.21.05.37-.18.47-2.04.88-4.17,1.22-6.38.92-3.31-.46-5.96-2.01-7.89-4.72-1.27-1.78-2.51-3.57-3.78-5.35-.73-1.02-1.49-2.01-2.23-3.02-.23-.32-.44-.65-.65-.98-.18-.28-.4-.45-.76-.33-.1.03-.21.03-.32.03-2.83.02-5.65.18-8.48.08-1.08-.04-2.16-.07-3.24-.07-.65,0-.65,0-.65.66,0,.84.05,1.68-.01,2.51-.26,3.59-1.68,6.62-4.57,8.87-1.8,1.4-3.87,2.17-6.15,2.4-.11.01-.22.02-.32.02-.36-.01-.47-.11-.52-.47-.02-.16-.02-.32-.02-.48,0-6.69,0-13.38,0-20.07h-.03Zm21.93-13.35h0c-3.13-.01-6.27-.01-9.4-.01-.16,0-.32,0-.49,0-.35.02-.39.07-.41.42,0,.11,0,.21,0,.32,0,2.89,0,5.78,0,8.67,0,.11,0,.21,0,.32.02.35.07.4.43.39.49,0,.97-.06,1.46-.07,5.98-.01,11.95-.02,17.93-.03.25,0,.5,0,.76-.01,1.45-.1,2.5-1.07,2.58-2.47.09-1.62.09-3.25,0-4.87-.08-1.46-.97-2.33-2.44-2.57-.37-.06-.75-.1-1.13-.1-3.1,0-6.19,0-9.29,0Z"/>
      <path class="cls-1" d="m95.19,37.56c0-6.67,0-13.34,0-20.02,0-1.65.72-2.91,2.01-3.88.53-.4,1.14-.62,1.79-.71.48-.06.96-.12,1.45-.12,9.56,0,19.13,0,28.69.01.81,0,1.63,0,2.43.11,2.95.41,5.41,1.75,7.37,3.98,1.7,1.94,2.58,4.21,2.78,6.77.05.61.06,1.21.06,1.82,0,3.28.02,6.57,0,9.85-.01,1.78-.34,3.51-1.11,5.14-.65,1.37-1.57,2.55-2.66,3.6-1.69,1.63-3.76,2.46-6.03,2.89-1.42.27-2.84.42-4.29.42-6.59-.02-13.18,0-19.77,0-.14,0-.29,0-.43,0-.86-.01-.79.05-.81.8-.03,1.14-.36,2.22-.78,3.27-.8,2.01-2.08,3.67-3.84,4.94-1.76,1.27-3.72,2.09-5.93,2.24-.04,0-.07,0-.11,0-.73.04-.81-.03-.81-.76,0-6.78,0-13.56,0-20.34Zm22.28-.32h0c2.32,0,4.64,0,6.96,0,1.1,0,2.2,0,3.29-.03.64-.02,1.26-.18,1.69-.7.54-.66.86-1.41.87-2.26.02-2.41.02-4.81,0-7.22-.01-1.37-.99-2.42-2.35-2.65-.36-.06-.72-.08-1.08-.08-6.51,0-13.03,0-19.54-.01-.05,0-.11,0-.16,0-.4.02-.45.07-.47.48,0,.11,0,.21,0,.32,0,3.76,0,7.52,0,11.28,0,.85,0,.85.86.85,3.31,0,6.62,0,9.93,0Z"/>
      <path class="cls-1" d="m262.63,12.9c2.67.03,5.05.87,7.1,2.58,1.66,1.38,3.1,2.98,4.49,4.62.93,1.1,1.97,2.08,2.98,3.1,1.14,1.14,2.26,2.29,3.25,3.57.34.44.46.44.91.07.74-.61,1.3-1.38,1.93-2.09.54-.62,1.07-1.25,1.67-1.82,1.21-1.15,2.33-2.38,3.49-3.58.64-.65,1.22-1.36,1.82-2.05,1.76-2,3.87-3.45,6.49-4.13,1.13-.29,2.28-.3,3.43-.2,2.41.21,4.5,1.19,6.39,2.64.54.41.52.66.04,1.17-1.61,1.7-3.36,3.27-4.91,5.04-.87.99-1.73,2-2.68,2.93-.8.79-1.54,1.65-2.29,2.49-1.74,1.97-3.66,3.78-5.44,5.72-.69.75-1.36,1.52-2.02,2.3-.32.37-.31.68.06.97.37.29.65.67.95,1.02.82.95,1.64,1.89,2.53,2.78.52.52,1,1.08,1.46,1.65.58.71,1.22,1.36,1.88,1.99,1.29,1.22,2.4,2.6,3.59,3.92.53.58,1.05,1.18,1.61,1.73,1.12,1.13,2.08,2.41,3.2,3.55.65.67,1.26,1.37,1.89,2.06.11.12.23.23.31.37.18.29.15.42-.15.61-.47.29-.89.67-1.36.96-1.09.68-2.26,1.19-3.49,1.54-1.26.36-2.56.44-3.85.3-2.4-.26-4.42-1.34-6.16-2.94-1.46-1.35-2.74-2.88-4.06-4.36-.41-.45-.81-.91-1.23-1.35-1.04-1.11-2.09-2.22-3.13-3.33-.7-.74-1.41-1.48-2.08-2.24-.24-.27-.35-.26-.62-.04-.08.07-.15.15-.22.24-.93,1.25-2.07,2.33-3.07,3.52-1.06,1.26-2.22,2.43-3.34,3.64-1.32,1.44-2.54,2.96-4.07,4.2-2.45,1.98-5.22,2.95-8.41,2.65-1.99-.19-3.67-1.06-5.28-2.14-.27-.18-.52-.38-.77-.58-.42-.33-.46-.66-.11-1.04.67-.72,1.33-1.45,2.04-2.14,1.46-1.43,2.79-2.98,4.17-4.48,1.51-1.65,2.88-3.43,4.48-4.99.45-.44.87-.9,1.32-1.34,1.1-1.06,2.09-2.22,3.1-3.35.68-.76,1.43-1.46,2.14-2.19.48-.49.51-.81.04-1.28-1.25-1.24-2.37-2.59-3.55-3.88-1.07-1.16-2.19-2.27-3.3-3.39-1.07-1.08-2.03-2.26-3.08-3.37-.42-.44-.81-.91-1.23-1.35-1.32-1.39-2.5-2.9-3.88-4.24-.77-.75-1.47-1.57-2.19-2.36-.35-.39-.32-.65.1-.98,1.53-1.22,3.28-1.99,5.15-2.5.64-.18,1.31-.2,1.99-.2Z"/>
      <path class="cls-1" d="m439.56,12.91c2.53.06,4.8.83,6.78,2.41,1.02.82,1.91,1.78,2.82,2.72.92.96,1.78,1.96,2.69,2.93,1.42,1.51,2.85,3.02,4.25,4.56.44.48.86.96,1.32,1.41.28.28.51.29.77-.01,1.14-1.31,2.4-2.52,3.52-3.84.37-.44.75-.87,1.16-1.27.92-.89,1.68-1.9,2.52-2.86,1.16-1.34,2.29-2.74,3.74-3.77,2.25-1.59,4.76-2.54,7.59-2.25,1.64.17,3.21.63,4.66,1.45.53.3,1.07.6,1.56.96.14.11.29.21.42.34.26.28.39.62,0,.97-1.18,1.05-2.22,2.24-3.25,3.43-1.27,1.46-2.64,2.82-3.92,4.27-.69.78-1.44,1.5-2.15,2.26-.77.82-1.54,1.65-2.3,2.48-.9.97-1.81,1.94-2.69,2.93-1.02,1.13-2.13,2.17-3.17,3.29-.28.3-.3.52-.05.84.09.11.19.21.29.32.68.69,1.35,1.38,2.05,2.06,1.05,1.03,2.05,2.1,3.02,3.2.84.95,1.69,1.9,2.57,2.82.73.77,1.39,1.59,2.1,2.38.35.39.7.77,1.07,1.13,1.66,1.61,3.2,3.33,4.73,5.07.53.6,1.1,1.18,1.64,1.77.1.1.2.21.27.33.25.43.23.45-.18.75-.73.53-1.5.99-2.28,1.42-2.35,1.29-4.84,1.72-7.46,1.16-1.65-.35-3.16-1.08-4.45-2.19-1.29-1.12-2.46-2.34-3.58-3.63-.81-.93-1.68-1.81-2.51-2.73-1.19-1.31-2.37-2.63-3.56-3.94-.46-.5-.93-.99-1.35-1.53-.27-.35-.48-.35-.79,0-1.1,1.21-2.22,2.39-3.28,3.63-1.54,1.79-3.09,3.58-4.78,5.23-.52.51-1.02,1.06-1.51,1.6-1.75,1.91-3.89,3.17-6.45,3.63-1.98.36-3.93.17-5.82-.64-1.22-.53-2.28-1.29-3.36-2.03-.34-.23-.37-.48-.07-.75,1.35-1.22,2.38-2.72,3.68-3.98.72-.7,1.32-1.51,1.96-2.28.22-.26.44-.52.68-.76,1.71-1.71,3.33-3.51,4.96-5.29,1.96-2.13,3.75-4.42,5.86-6.42.53-.5.51-.9.01-1.43-2.16-2.34-4.37-4.65-6.45-7.06-1.37-1.59-2.89-3.03-4.32-4.57-1.51-1.63-3-3.28-4.49-4.92-.47-.52-.93-1.04-1.4-1.56-.21-.23-.41-.45-.56-.71-.12-.22-.11-.4.12-.55,1.49-.94,2.96-1.91,4.68-2.41.89-.26,1.8-.33,2.73-.34Z"/>
      <path class="cls-1" d="m74.3,8.94c1.61.03,3.09.3,4.51.85,1.52.58,2.92,1.39,4.23,2.34.15.11.28.22.37.38.11.23.12.39-.1.6-1.69,1.61-3.2,3.37-4.71,5.15-.21.25-.45.47-.67.7-1.51,1.56-2.96,3.16-4.43,4.76-.96,1.04-1.89,2.1-2.86,3.13-1.32,1.39-2.59,2.82-3.89,4.23-1.03,1.12-2.07,2.23-3.12,3.33-.3.31-.59.62-.85.97-.22.31-.21.49.05.76,1.42,1.47,2.69,3.06,4.12,4.52.51.52.98,1.1,1.45,1.65.8.94,1.69,1.81,2.58,2.66.88.85,1.66,1.78,2.45,2.7.83.96,1.71,1.88,2.58,2.81.66.71,1.28,1.45,1.91,2.18.62.72,1.32,1.37,1.99,2.04.82.83,1.59,1.7,2.35,2.58.29.34.61.66.88,1.01.4.52.35.73-.2,1.07-.61.38-1.12.88-1.75,1.25-1.67.96-3.45,1.56-5.35,1.91-2.23.42-4.28-.04-6.29-.95-1.86-.84-3.48-2.02-4.92-3.42-.64-.62-1.2-1.33-1.8-1.99-.73-.81-1.46-1.63-2.19-2.44-1.09-1.21-2.18-2.42-3.27-3.63-.07-.08-.14-.17-.21-.24-2.07-1.89-3.78-4.11-5.71-6.13-.94-.98-1.77-2.06-2.72-3.04-1.39-1.45-2.65-3.01-4.18-4.32-.14-.12-.26-.25-.31-.43-.07-.24-.06-.46.16-.62.46-.33.78-.79,1.14-1.2,1.02-1.18,2.09-2.31,3.21-3.39,1.01-.97,1.89-2.06,2.85-3.07,1.46-1.52,2.74-3.21,4.21-4.73,1.33-1.38,2.68-2.74,3.99-4.14,1.28-1.37,2.57-2.74,3.73-4.23.95-1.23,2.1-2.24,3.39-3.11.77-.52,1.55-1.04,2.41-1.41,1.61-.7,3.29-1.02,4.95-1.07Z"/>
      <path class="cls-1" d="m9.09,8.95c2.19.05,4.2.72,6.14,1.68,1.7.84,3.01,2.12,4.25,3.5.62.69,1.3,1.33,1.91,2.04,1.37,1.59,2.92,3.01,4.29,4.6,2.06,2.39,4.32,4.59,6.36,7,.16.19.34.37.52.54,1.14,1.12,2.19,2.32,3.27,3.49,1.07,1.15,2.04,2.4,3.23,3.45.41.36.38.69-.02,1.07-.88.84-1.72,1.72-2.51,2.66-.3.36-.65.67-.97,1.01-1.25,1.38-2.58,2.69-3.78,4.11-.6.71-1.3,1.33-1.92,2.03-1.62,1.81-3.25,3.63-4.93,5.39-1.04,1.09-2,2.25-3.06,3.31-1.01,1.01-1.93,2.12-2.91,3.16-2.16,2.3-4.77,3.82-7.9,4.43-.62.12-1.24.21-1.87.29-.62.08-1.22-.03-1.83-.12-1.42-.22-2.75-.7-4.02-1.36-.88-.46-1.75-.93-2.51-1.56-.14-.11-.3-.19-.46-.28-.46-.29-.51-.66-.12-1.05.8-.8,1.62-1.57,2.35-2.43,1.72-2.01,3.63-3.87,5.28-5.94.32-.4.72-.75,1.08-1.12,1.63-1.66,3.26-3.33,4.77-5.1.64-.75,1.42-1.37,2.03-2.15,1.31-1.69,2.86-3.16,4.36-4.67.19-.19.36-.4.54-.6.33-.39.34-.65.01-1.05-.35-.43-.73-.83-1.11-1.24-1.34-1.42-2.67-2.85-4.01-4.27-1.84-1.96-3.52-4.06-5.46-5.93-1-.97-1.9-2.04-2.85-3.07-.71-.78-1.42-1.56-2.13-2.35-1.05-1.15-2.08-2.31-3.14-3.46-.52-.57-1.07-1.11-1.6-1.67-.43-.45-.4-.71.09-1.09,1.18-.92,2.45-1.69,3.82-2.3.56-.25,1.15-.43,1.75-.54,1.01-.18,2.01-.43,3.05-.4Z"/>
      <path class="cls-1" d="m21.91,0c2.49-.01,4.41.55,6.22,1.56.95.53,1.79,1.19,2.56,1.95.8.79,1.56,1.63,2.31,2.48.68.76,1.41,1.48,2.1,2.23,1.97,2.13,3.93,4.27,5.9,6.4.21.22.39.47.59.7.22.24.24.24.45,0,.4-.46.77-.94,1.18-1.39,1.05-1.15,2.09-2.32,3.16-3.44,1.13-1.18,2.2-2.41,3.29-3.61,1.07-1.18,2.11-2.39,3.25-3.5,1.72-1.68,3.78-2.8,6.18-3.19,3.05-.5,5.9.1,8.52,1.75.49.31.93.68,1.46.92.21.1.28.4.16.65-.05.11-.14.21-.22.3-1.84,1.86-3.45,3.93-5.26,5.82-.79.83-1.57,1.67-2.37,2.5-2.36,2.46-4.66,4.96-6.94,7.49-.97,1.08-1.97,2.13-2.98,3.18-1.72,1.8-3.36,3.67-5.05,5.5-1.06,1.15-2.13,2.28-3.19,3.41-.39.42-.77.85-1.17,1.26-.34.35-.38.34-.71-.03-2.3-2.53-4.58-5.08-6.9-7.59-2.28-2.46-4.67-4.81-6.88-7.32-2.51-2.85-5.19-5.55-7.7-8.4-1.66-1.88-3.4-3.69-5.11-5.53-.16-.17-.32-.34-.45-.53-.19-.29-.16-.52.13-.69,1.33-.78,2.52-1.77,4.02-2.26C19.74.21,21.01.04,21.91,0Z"/>
      <path class="cls-1" d="m61.01,71.53c-3-.03-5.58-1.11-7.77-3.11-1.37-1.24-2.56-2.65-3.8-4.02-.81-.89-1.6-1.78-2.42-2.66-1.67-1.8-3.4-3.54-4.95-5.45-.25-.31-.27-.31-.52-.02-1.6,1.84-3.31,3.57-4.95,5.38-1.32,1.46-2.62,2.94-3.96,4.39-.96,1.04-1.87,2.13-3.03,2.97-2.13,1.54-4.47,2.46-7.15,2.53-1.75.04-3.39-.36-4.99-1-.54-.22-1.02-.52-1.49-.86-.42-.3-.85-.6-1.27-.91-.12-.08-.23-.17-.33-.28-.27-.28-.26-.4.01-.67,1.53-1.49,2.91-3.11,4.36-4.67,1.18-1.27,2.34-2.57,3.53-3.84,1.72-1.85,3.46-3.68,5.13-5.58.52-.59,1.07-1.15,1.62-1.72.95-.98,1.82-2.03,2.76-3.01,1.75-1.82,3.45-3.69,5.14-5.56,1.44-1.59,2.92-3.15,4.39-4.73.06-.07.13-.13.19-.19.17-.18.33-.19.5-.01.07.08.15.15.22.23.94,1.11,2.02,2.09,3,3.16,1.56,1.7,3.14,3.39,4.69,5.1,1.49,1.63,2.96,3.26,4.48,4.86,1.26,1.32,2.45,2.71,3.69,4.05,1.42,1.54,2.83,3.09,4.28,4.61,1.53,1.59,2.95,3.27,4.45,4.88.73.78,1.46,1.57,2.2,2.35.42.45.37.71-.16,1.04-.53.33-1.05.68-1.59,1-1.93,1.15-3.99,1.79-6.26,1.73Z"/>
    </g>
  </g>
</svg>