<?xml version="1.0" encoding="UTF-8"?>
<svg id="Capa_2" data-name="Capa 2" xmlns="http://www.w3.org/2000/svg" viewBox="0 0 447.77 151.82">
  <defs>
    <style>
      .cls-1 {
        fill: #fff;
      }
    </style>
  </defs>
  <g id="Capa_1-2" data-name="Capa 1">
    <g>
      <path class="cls-1" d="m135.55,37.15c0,10.99,0,21.99,0,32.98,0,.9.1,1.85-.14,2.7-3.18,11.18-6.2,22.42-13.64,31.8-7.28,9.18-16.73,14.73-28.12,17.12-2.27.48-2.45.29-2.08-2.03.67-4.2.88-8.42.88-12.68-.03-26.16,0-52.32-.02-78.48,0-3.64.31-7.23,1.45-10.7,2.63-8.02,8.69-12.34,16.36-14.78C117.75.69,125.5-.05,133.35,0c2.03.01,2.21,1.16,2.21,2.71-.02,11.48,0,22.96,0,34.44Z"/>
      <path class="cls-1" d="m67.01,151.54c-3.32.62-6.44.02-9.51-.29-10.73-1.08-20.94-3.99-30.22-9.63C12.45,132.6,3.82,119.37.9,102.37.28,98.73,0,95.06,0,91.36c.02-21.72,0-43.43.01-65.15,0-3.14,0-3.14,3.13-3.15.98,0,1.95,0,2.93,0,2.68.02,2.78.11,2.78,2.88,0,13.36,0,26.73,0,40.09,0,2.84.11,2.96,2.94,2.95,5.63-.03,4.93.59,4.98-4.84.03-3.48.04-3.53,3.49-3.5,6.34.05,5.61-.8,5.65,5.71.02,3.41.06,6.82-.02,10.23-.04,1.73.47,2.55,2.36,2.5,6.56-.15,5.53.78,5.58-5.49.06-7.59,0-15.17.02-22.76,0-2.58.13-2.74,2.73-2.71,7.15.09,6.07-1.01,6.09,6.02.05,17.75.11,35.5,0,53.25-.12,18.16,8.09,31.81,22.43,42.28.65.47,1.53.71,1.91,1.87Z"/>
      <path class="cls-1" d="m135.13,85.97c0,3.34.14,6.29-.02,9.22-.58,10.7-3.48,20.7-9.47,29.68-7.75,11.61-18.68,18.88-31.82,23.13-5,1.61-10.12,2.6-15.32,3.23-2.37.28-4.59.23-6.85-1.02-11.46-6.33-19.65-15.38-23.98-27.81-.05-.13-.12-.26-.14-.39-.15-.93-1.07-2.04-.27-2.73.87-.75,1.75.42,2.56.83,6.88,3.49,14.22,5.15,21.88,5.77,8.5.69,16.85.06,25.08-2.05,14.68-3.77,25.42-12.54,32.61-25.77,1.77-3.25,3.17-6.66,4.41-10.14.2-.56.26-1.21,1.32-1.94Z"/>
      <path class="cls-1" d="m199.22,59.39c0-7.93,0-15.86,0-23.79,0-2.77.21-3.02,2.97-2.95,6.96.17,13.95-.59,20.87.45,7.88,1.18,12.46,6.72,12.11,14.44-.18,4-2.02,7.17-5.25,9.52-.9.66-1.64,1.06-.11,1.98,5.46,3.28,8.13,9.88,6.6,15.99-1.56,6.23-6.93,10.83-13.6,11.07-7.17.26-14.35.07-21.52.13-1.93.01-2.07-1.19-2.07-2.63.01-8.07,0-16.14,0-24.2Zm16.31,19.59c1.88-.11,4.26.25,6.6-.32,4.24-1.03,6.74-4.12,6.59-8.19-.16-4.53-2.67-7.37-7.19-8.1-3.88-.63-7.79-.24-11.69-.33-1.23-.03-1.77.57-1.77,1.78.02,4.45.02,8.91,0,13.36,0,1.37.69,1.84,1.96,1.82,1.67-.03,3.35,0,5.5,0Zm-7.92-31.71c0,1.95,0,3.9,0,5.85,0,.96.3,1.67,1.4,1.65,3.97-.07,7.95.39,11.9-.31,4.23-.75,5.54-2.56,5.5-7.41-.03-4.04-1.76-6.13-5.59-6.8-3.88-.67-7.79-.29-11.69-.36-1.21-.02-1.54.69-1.53,1.75.02,1.88,0,3.76,0,5.64Z"/>
      <path class="cls-1" d="m308.28,85.73c-6.38.05-11.37.1-16.38.73-13.15,1.64-22.9-5.54-25.44-18.6-1.76-9.06-1.32-17.94,3.86-25.97,4.75-7.37,11.94-9.95,20.35-9.47,14.32.82,20.45,11.98,21.5,23.51.71,7.84-.68,15.11-5.71,21.41-.78.97-.47,1.32.66,1.31,2.09,0,4.19-.04,6.27.02,3.14.1,5.36,2.47,5.35,5.56,0,1.44-.99,1.5-2,1.5-3.28.02-6.55,0-8.46,0Zm-4.52-26.14c-.1-4.01-.57-7.99-2.2-11.77-2.11-4.92-5.77-7.66-11.19-8.05-6.11-.45-11,1.64-13.55,7.3-3.69,8.18-3.79,16.65-.16,24.89,2.52,5.72,7.46,7.83,13.49,7.44,5.72-.38,9.57-3.41,11.63-8.73,1.37-3.55,1.88-7.25,1.98-11.08Z"/>
      <path class="cls-1" d="m322.56,51.25c0-5.5-.02-11,0-16.49,0-2.29.35-2.53,2.63-2.14,3.95.69,5.73,2.84,5.75,7.18.04,8.7,0,17.4.03,26.1,0,1.32,0,2.66.25,3.95,1.32,6.7,6.33,10.1,13.97,9.56,6.68-.47,10.97-4.91,11.24-11.96.19-4.86.06-9.74.07-14.61,0-4.73-.02-9.47.02-14.2.03-3.88,3.06-5.99,7.04-6.17.77-.04,1.16.4,1.25,1.12.06.48.07.97.07,1.46,0,10.51.1,21.02-.04,31.53-.07,5.25-1.4,10.19-5.14,14.2-4.57,4.89-10.45,6.07-16.78,5.97-3.23-.05-6.4-.48-9.38-1.82-7.68-3.46-10.61-9.9-10.92-17.8-.21-5.28-.04-10.58-.04-15.87,0,0-.01,0-.02,0Z"/>
      <path class="cls-1" d="m144.73,51.7c0-5.64-.01-11.28,0-16.91,0-2.31.35-2.56,2.6-2.17,3.97.68,5.8,2.84,5.78,7.15-.04,8.21-.22,16.42-.27,24.62-.01,1.8.15,3.62.45,5.4,1.18,7.01,7.6,10.93,15.36,9.45,6.51-1.24,9.89-5.62,9.96-13.18.08-8.91.04-17.82.07-26.73.01-3.85,1.79-5.96,5.52-6.68,2.48-.48,2.83-.21,2.83,2.31,0,10.09.01,20.18-.05,30.28-.01,1.8-.25,3.61-.55,5.39-1.54,8.91-6.88,14.28-15.8,15.74-3.87.63-7.79.57-11.63-.34-8.38-1.98-14-8.84-14.24-17.63-.15-5.56-.03-11.14-.03-16.7,0,0,0,0,0,0Z"/>
      <path class="cls-1" d="m408.4,63.03c0-6.75,0-13.5,0-20.25,0-2.93-.02-2.95-2.87-2.96-3.48,0-6.97-.07-10.45.02-1.93.05-2.55-.74-2.56-2.59-.03-4.67-.09-4.67,4.63-4.67,10.73,0,21.47,0,32.2,0,2.63,0,2.84.23,2.87,2.86,0,.63-.01,1.25-.02,1.88-.03,1.69-.81,2.54-2.59,2.51-3.21-.05-6.41-.01-9.62,0q-3.15,0-3.16,3.07c0,13.22,0,26.44,0,39.66,0,3.66-.29,3.96-3.87,3.98q-4.56.03-4.56-4.51c0-6.33,0-12.66,0-19Z"/>
      <path class="cls-1" d="m256.1,59.24c0,7.93,0,15.86,0,23.79,0,3.21-.3,3.51-3.41,3.52-5.53,0-4.97.38-4.97-4.92-.01-14.05-.01-28.11,0-42.16,0-4.04,1.87-6.2,5.81-6.86,2.23-.37,2.56-.12,2.56,2.21.02,8.14,0,16.28,0,24.42Z"/>
      <path class="cls-1" d="m385.77,59.08c0,7.99.01,15.99,0,23.98,0,2.83-.33,3.16-3.09,3.15-5.99-.04-5.25.7-5.26-5.17-.03-13.97-.01-27.94,0-41.92,0-3.69,2-5.95,5.66-6.51,2.41-.36,2.69-.16,2.7,2.28.02,6.95,0,13.9,0,20.85,0,1.11,0,2.22,0,3.34Z"/>
      <path class="cls-1" d="m446.9,59.2c0,8.07,0,16.14,0,24.21,0,2.5-.29,2.81-2.75,2.8-6.27-.03-5.58.73-5.59-5.55-.02-13.71-.02-27.41,0-41.12,0-4.06,1.69-6.17,5.46-7,2.47-.54,2.87-.25,2.88,2.24.01,8.14,0,16.28,0,24.42Z"/>
      <path class="cls-1" d="m274.77,107.73c-.73,2.67-1.49,5.34-2.19,8.02-.31,1.18-.75,2.09-2.19,2.06-1.34-.03-1.72-.93-2.01-2.01-1.04-3.97-2.12-7.93-3.14-11.91-.21-.81-.78-1.87.65-2.18,1.26-.27,2.14.15,2.46,1.55.62,2.7,1.32,5.39,2.46,8.16.54-1.94,1.08-3.87,1.61-5.81.2-.74.41-1.48.58-2.22.27-1.17.92-1.79,2.2-1.76,1.22.03,1.69.69,1.95,1.76.65,2.69,1.36,5.37,2.59,8.12.66-2.64,1.33-5.27,1.98-7.91.27-1.08.66-2,2.03-1.94,1.04.04,1.63.45,1.33,1.56-1.21,4.43-2.43,8.86-3.66,13.28-.26.93-.93,1.32-1.88,1.34-1.07.01-1.7-.52-1.97-1.51-.59-2.22-1.14-4.45-1.73-6.67-.17-.66-.38-1.3-.58-1.96-.17.02-.33.03-.5.05Z"/>
      <path class="cls-1" d="m17.1,21.23c.02-4.73-.43-4.42,4.36-4.43,4.37,0,4,.32,4.02-4.1.01-4.59-.37-4.26,4.3-4.27q4.53,0,4.52,4.53,0,4.27-4.37,4.27-4.01,0-4.01,3.93,0,4.45-4.41,4.45c-4.8,0-4.4.33-4.41-4.38Z"/>
      <path class="cls-1" d="m148.94,107.63c0,2.38,0,4.21,0,6.05,0,.76,0,1.53-.04,2.29-.06,1-.43,1.78-1.62,1.74-1.1-.03-1.64-.63-1.64-1.72,0-4.17,0-8.34,0-12.5,0-.8.15-1.57,1.11-1.76,1.17-.23,2.2-.07,2.9,1.07,1.56,2.55,3.16,5.07,4.76,7.59.24.38.31.94,1.22,1.04,0-2.5,0-4.97,0-7.43,0-1.12-.12-2.37,1.59-2.33,1.56.04,1.45,1.21,1.45,2.25.01,3.82.01,7.64,0,11.46,0,.95.15,2.05-1.16,2.36-1.24.29-2.15-.19-2.81-1.27-1.55-2.55-3.13-5.09-4.71-7.63-.17-.27-.42-.49-1.05-1.22Z"/>
      <path class="cls-1" d="m354.38,109.59c0-1.94.05-3.89-.02-5.83-.05-1.48.51-2.2,2.05-2.15,2.01.06,4.03-.05,6.05.04,4.17.19,6.05,3.48,4.07,7.09-.44.8-.66,1.4-.12,2.27,1.03,1.66.53,3.67,1.08,5.46.21.68-.3,1.01-.95,1.05-1.02.07-2.04.03-2.3-1.22-.19-.88-.18-1.79-.29-2.68-.13-1.06-.64-1.9-1.71-2.13-1.35-.3-2.76-.55-4.05.17-.53.29-.42.99-.44,1.53-.03.9-.01,1.8-.05,2.71-.04,1.08-.59,1.64-1.71,1.64-1.18,0-1.6-.63-1.6-1.7,0-2.08,0-4.16,0-6.25h-.01Zm6.14-5.09c-.79.25-2.09-.44-2.6.86-.35.89-.54,2.14.17,2.76,1.24,1.08,2.88.55,4.36.38.9-.11,1.46-.74,1.52-1.7.08-1.2-.41-2.01-1.66-2.2-.54-.08-1.1-.07-1.8-.1Z"/>
      <path class="cls-1" d="m187.08,109.56c0-1.95.02-3.89,0-5.84-.02-1.34.49-2.11,1.94-2.1,2.72.02,5.43,0,8.15.01.96,0,1.62.36,1.62,1.46,0,1.1-.68,1.43-1.64,1.44-1.53.02-3.06.03-4.6.02-1.13,0-2.09.08-2.11,1.61-.03,1.63.97,1.77,2.2,1.75,1.32-.01,2.65,0,3.97.03.94.02,1.65.36,1.63,1.46-.02,1.1-.77,1.38-1.7,1.4-1.46.02-2.93.06-4.39.02-1.44-.03-1.74.78-1.72,2,.01,1.2.29,2.06,1.72,2.05,1.67-.01,3.34,0,5.01.02.98,0,1.89.16,1.86,1.42-.03,1.18-.9,1.5-1.87,1.51-2.65.03-5.29.02-7.94.02-1.48,0-2.13-.8-2.13-2.23.01-2.02,0-4.03,0-6.05Z"/>
      <path class="cls-1" d="m326.48,109.57c.01,5.07-2.96,8.38-7.52,8.37-4.55-.01-7.66-3.39-7.67-8.31-.01-4.67,3.42-8.39,7.74-8.39,4.31,0,7.44,3.5,7.45,8.33Zm-11.8-.7c-.06,2.85.38,4.92,2.65,6.02,1.67.81,3.8.21,4.86-1.26,1.57-2.17,1.53-6.11-.07-8.05-1.23-1.48-3.37-1.9-5.11-.93-1.89,1.05-2.27,2.85-2.32,4.22Z"/>
      <path class="cls-1" d="m398.76,107.71c2.09-1.38,3.25-2.97,4.67-4.26.57-.51,1.07-1.15,1.72-1.5.94-.5,2.29-.75,2.95.01.84.97-.58,1.49-1.12,2.04q-4.15,4.23-.64,9.04c.74,1.01,1.45,2.04,2.19,3.06.85,1.17.3,1.62-.9,1.73-1.22.11-2.16-.32-2.86-1.35-.97-1.44-1.98-2.87-2.99-4.28-.39-.54-.7-1.36-1.57-1.08-.77.25-1.27.9-1.35,1.71-.1,1.04-.1,2.08-.11,3.13-.01,1.23-.7,1.75-1.84,1.78-1.25.03-1.48-.82-1.49-1.81,0-4.11,0-8.21,0-12.32,0-1.09.28-1.93,1.6-1.96,1.45-.03,1.74.87,1.73,2.04,0,1.17,0,2.34,0,4.01Z"/>
      <path class="cls-1" d="m441.39,117.89c-2.69.06-4.98-.69-6.19-3.33-.36-.78-.91-1.82.26-2.35,1-.45,2.09-.36,2.64.88.72,1.63,2.06,2.21,3.71,2.16,1.18-.04,2.26-.49,2.49-1.8.25-1.46-.84-1.88-1.97-2.21-1.47-.43-2.96-.81-4.39-1.35-1.64-.62-2.61-1.9-2.65-3.66-.05-1.82.85-3.18,2.47-4.05,2.84-1.53,6.56-1.07,8.48,1.14.76.88,1.76,2.08.54,3.06-.98.78-2.26.43-2.96-.9-.46-.88-1.27-1.28-2.23-1.31-1.13-.04-2.43-.04-2.79,1.27-.42,1.52.96,1.79,1.99,2.14.99.34,2.01.58,3.01.88,2.94.86,4.23,2.5,3.96,5.03-.23,2.22-2.33,4.12-4.89,4.4-.48.05-.97,0-1.46,0Z"/>
      <path class="cls-1" d="m230.18,111.05c0-.83,0-1.67,0-2.5,0-3.4,0-3.42-3.31-4.01-.93-.17-1.34-.62-1.31-1.54.03-.84.48-1.32,1.29-1.33,3.41-.02,6.82-.02,10.24.01.9,0,1.4.54,1.41,1.47.01.98-.58,1.28-1.45,1.4-3.47.47-3.47.49-3.47,4.03,0,2.36,0,4.73,0,7.09,0,1.13-.16,2.16-1.64,2.12-1.38-.04-1.71-.99-1.73-2.14-.02-1.53,0-3.06,0-4.59,0,0-.01,0-.02,0Z"/>
      <path class="cls-1" d="m8.85,4.6c-.01,4.56.38,4.29-4.26,4.29C-.35,8.89.01,9.18.01,4.23,0-.27-.26.1,4.2.09c.07,0,.14,0,.21,0,4.9.02,4.42-.4,4.45,4.51Z"/>
      <path class="cls-1" d="m38.14,29.77c-4.68,0-4.3.31-4.29-4.24,0-4.96-.51-4.52,4.62-4.54,4.23,0,4.24,0,4.22,4.17-.02,5.05.48,4.58-4.55,4.61Z"/>
      <path class="cls-1" d="m30.07,31.43q4.22,0,4.22,4.2c0,5.03.22,4.59-4.66,4.6-4.15,0-4.16,0-4.14-4.2.02-5.02-.5-4.58,4.58-4.6Z"/>
      <path class="cls-1" d="m21.53,52.74c-4.83-.01-4.44.36-4.43-4.33,0-4.83-.45-4.44,4.52-4.45q4.29,0,4.29,4.34t-4.38,4.45Z"/>
    </g>
  </g>
</svg>