<?xml version="1.0" encoding="UTF-8"?>
<svg id="Capa_2" data-name="Capa 2" xmlns="http://www.w3.org/2000/svg" viewBox="0 0 312.64 54.4">
  <defs>
    <style>
      .cls-1 {
        fill: #fff;
      }
    </style>
  </defs>
  <g id="Capa_1-2" data-name="Capa 1">
    <g>
      <path class="cls-1" d="m304.86,8.77c-.71.5-.94,1.01-1.2,1.48-3.44,6.42-6.86,12.86-10.3,19.28-3.18,5.94-6.28,11.93-9.61,17.78-4.25,7.47-14.19,7.54-18.65.19-1.55-2.56-2.85-5.28-4.26-7.93-4.23-7.95-8.46-15.9-12.69-23.84-1.14-2.13-2.3-4.25-3.44-6.38-.1-.19-.17-.4-.42-.48-.37.28-.23.68-.25,1.02-.23,4.75-.15,9.5-.16,14.25,0,7.64,0,15.28,0,22.93,0,.84.04,1.68.1,2.52.15,2.13-1.25,3.94-3.15,4.03-2.69.13-4.3-1.21-4.3-3.7-.02-13.89-.02-27.79,0-41.68,0-3.33,2.3-6.12,5.62-7.02,3.28-.88,6.8.38,8.45,3.21,1.71,2.94,3.26,5.98,4.86,8.98,1.47,2.74,2.92,5.49,4.38,8.24,1.99,3.75,3.97,7.5,5.97,11.25,1.77,3.33,3.56,6.64,5.36,9.96.23.42.48.82.78,1.2,1.66,2.09,4.11,1.93,5.39-.42,2.17-3.99,4.27-8.01,6.41-12.01,3.94-7.36,7.9-14.71,11.84-22.06.8-1.48,1.52-3.01,2.34-4.48,2.07-3.7,5.8-5.08,9.79-3.6,2.86,1.06,4.2,3.32,4.68,6.16.17.97.23,1.96.23,2.95.01,12.29,0,24.57,0,36.86,0,1.17-.05,2.35-.4,3.47-.59,1.91-1.99,2.85-3.91,2.67-1.93-.18-3.24-1.45-3.44-3.4-.05-.51-.03-1.02-.03-1.53,0-12.47,0-24.94,0-37.4,0-.76,0-1.52,0-2.5Z"/>
      <path class="cls-1" d="m90.18,30.9c-6.81,0-13.63,0-20.44,0-1.39,0-1.57.19-1.19,1.53,1.84,6.45,8.09,13.44,16.73,14.36,6.32.68,11.78-1.05,16.52-5.19.95-.83,1.51-1.98,2.35-2.9,2.02-2.2,5.36-1.56,6.46,1.19.53,1.34,0,2.44-.73,3.49-1.21,1.76-2.71,3.27-4.35,4.64-4.27,3.56-9.23,5.65-14.74,6.22-7.77.81-14.73-1.29-20.75-6.3-4.21-3.5-7.23-7.86-8.64-13.1-1.95-7.29-1.4-14.37,2.57-21.05,3.65-6.14,8.83-10.32,15.61-12.53,4.46-1.45,9.05-1.57,13.65-.68,7.25,1.4,12.94,5.19,17.23,11.13,3.12,4.32,4.62,9.17,4.82,14.44.03.65-.07,1.32-.21,1.96-.34,1.58-1.53,2.66-3.15,2.77-4.45.29-8.91.03-13.36.09-2.8.04-5.6,0-8.4,0,0-.02,0-.04,0-.06Zm-2.25-7.38c5.97,0,11.93,0,17.9,0,1.56,0,1.7-.22,1.24-1.75-.84-2.82-2.3-5.26-4.21-7.5-6.51-7.63-18.37-8.6-25.3-3.99-4.14,2.75-7.2,6.32-8.85,11.02-.66,1.87-.4,2.21,1.54,2.21,5.89,0,11.79,0,17.68,0Z"/>
      <path class="cls-1" d="m148.86,31c-6.33,0-12.67,0-19,0-.88,0-1.75-.19-2.64-.03-.59.11-.7.29-.55.87,1.82,6.92,8.13,13.99,16.85,14.92,7.44.79,13.53-1.59,18.32-7.26,1.6-1.89,3.31-2.39,5.12-1.43,2,1.05,2.58,3.63,1.18,5.45-4.22,5.48-9.72,9-16.56,10.29-9.56,1.8-17.86-.71-24.84-7.44-3.84-3.7-6.46-8.19-7.42-13.33-1.82-9.66.42-18.28,7.74-25.28,4.44-4.25,9.69-6.97,15.82-7.58,5.57-.56,11.02.16,16.07,2.87,4.83,2.59,8.64,6.18,11.35,10.91,2.25,3.93,3.26,8.22,3.4,12.69.09,2.75-1.61,4.36-4.28,4.36-6.85,0-13.7,0-20.55,0,0,0,0,0,0,0Zm-2.7-7.49h0c6.12,0,12.23,0,18.35,0,.73,0,1.38,0,1.09-1.06-1.83-6.77-6.19-11.59-12.7-13.72-9.77-3.2-16.73-.41-22.78,6.75-1.58,1.87-2.7,4.1-3.22,6.55-.3,1.43-.25,1.47,1.24,1.47,6.01,0,12.01,0,18.02,0Z"/>
      <path class="cls-1" d="m197.57,40.45c-4.02-.13-8.15.17-12.27-.17-.78-.06-1.21.28-1.56.94-1.58,3.02-3.19,6.02-4.8,9.02-.45.84-.9,1.68-1.6,2.35-1.13,1.08-2.82,1.34-4.19.63-1.46-.76-2.26-2.27-2.01-3.82.1-.62.3-1.21.6-1.76,5.44-9.84,10.58-19.83,15.86-29.75,2.15-4.04,4.26-8.1,6.55-12.06,3.21-5.54,10.12-6.23,14.48-1.54.73.79,1.21,1.75,1.71,2.68,4.1,7.69,8.08,15.44,12.28,23.07,2.33,4.23,4.5,8.55,6.9,12.74.93,1.62,1.8,3.27,2.6,4.96,1.46,3.06-.41,5.98-3.59,5.68-1.55-.15-2.5-1.11-3.19-2.41-1.13-2.13-2.28-4.26-3.43-6.38-5.77-10.65-11.28-21.45-17.15-32.05-.57-1.02-1.05-2.1-1.8-3.01-.78-.94-1.48-.92-2.24.06-1.37,1.79-2.21,3.88-3.28,5.83-2.1,3.81-4.09,7.69-6.12,11.54-.82,1.55-1.63,3.11-2.42,4.68-.52,1.04-.37,1.28.82,1.28,6.34.01,12.68,0,19.02.01.55,0,1.11,0,1.66,0,2.25.04,3.77,1.45,3.81,3.53.04,2.16-1.41,3.63-3.72,3.79-4.27.3-8.55.05-12.92.17Z"/>
      <path class="cls-1" d="m31.4,54.29c-3.4-.09-6.19-1.57-7.92-4.59-2.35-4.1-4.54-8.28-6.77-12.45C11.74,27.95,6.79,18.64,1.85,9.33c-.51-.97-.97-1.97-1.42-2.97C-.49,4.29.11,2.31,1.88,1.46c2.03-.97,4.38-.21,5.4,1.75,3.22,6.16,6.42,12.34,9.68,18.48,2.38,4.5,4.94,8.9,7.25,13.44,1.76,3.46,3.72,6.81,5.47,10.27.23.46.48.9.97,1.16.89.48,1.63.26,2.26-.86,1.42-2.52,2.79-5.07,4.15-7.62,4.03-7.6,8.03-15.22,12.07-22.81,2.15-4.04,4.33-8.06,6.51-12.09.91-1.68,2.86-2.39,4.63-1.69,1.92.76,2.86,2.58,2.28,4.53-.46,1.56-1.45,2.87-2.2,4.29-3.4,6.4-6.83,12.79-10.25,19.18-3.56,6.65-7.04,13.35-10.7,19.94-1.66,2.99-4.3,4.77-7.99,4.85Z"/>
    </g>
  </g>
</svg>