<?xml version="1.0" encoding="utf-8"?>
<!-- Generator: Adobe Illustrator 27.4.0, SVG Export Plug-In . SVG Version: 6.00 Build 0)  -->
<svg version="1.1" xmlns="http://www.w3.org/2000/svg" xmlns:xlink="http://www.w3.org/1999/xlink" x="0px" y="0px"
	 viewBox="0 0 219 67.8" style="enable-background:new 0 0 219 67.8;" xml:space="preserve">
<style type="text/css">
	.st0{fill:#FFFFFF;}
</style>
<g id="Capa_2">
</g>
<g id="Capa_1">
	<g>
		<path class="st0" d="M40.4,3.1C40,3.3,39.5,3.2,39,3.3c0.6,0.2,1.1,0.2,1.6,0.2c5.4,0.6,10.6,2.2,15.6,4.4
			c1.4,0.6,2.8,1.3,4.2,2.1c0.5,0.3,0.7,0.6,0.8,1.1c0.1,1.3,0.2,2.7,0.4,4c0.4,3.6,0.1,7.3-0.4,10.9c-0.8,5.7-2.5,11.1-5.1,16.3
			c-0.7,1.3-1.8,2.4-2.9,3.4c-2.8,2.4-6.1,3.9-9.8,4.3c-4.7,0.5-8.8-0.9-12.5-3.7c-2.5-1.9-4.1-4.5-5.3-7.3
			c-0.7-1.8-1.2-3.8-1.1-5.8c0.2-6.8,3.3-12.1,9.4-15.3c4.8-2.5,9.9-2.5,14.9-0.3c0.8,0.4,1.6,0.8,2.4,1.3c1.2,0.8,2.4,0.7,3.4-0.1
			c1.6-1.3,1.6-3.2,0-4.5c-1.4-1.1-3-2-4.7-2.6c-2.7-1-5.4-1.5-8.3-1.5c-5.3,0-10.2,1.6-14.3,4.9c-3,2.4-5.2,5.4-6.8,8.8
			c-1.8,3.9-2.3,8.1-1.7,12.3c0.5,4,2.1,7.6,4.6,10.8c2.8,3.6,6.5,6.1,10.8,7.6c3.6,1.3,7.2,1.6,11,1c0.2,0,0.4-0.1,0.6-0.1
			c0.2,0,0.5-0.2,0.6,0c0.1,0.2-0.2,0.4-0.4,0.5c-3.5,3.4-7.3,6.3-11.5,8.7c-0.5,0.3-0.9,0.3-1.3,0c-1.5-0.9-3-1.8-4.5-2.8
			c-2.8-1.9-5.5-4.1-7.8-6.6c-3.1-3.4-5.8-7-8.1-11c-2.2-4-3.9-8.2-5-12.5C7,28.1,6.5,24.6,6.3,21c-0.2-3.3,0.1-6.6,0.4-9.9
			c0-0.5,0.3-0.8,0.7-1.1c3.4-1.8,6.9-3.4,10.7-4.5c3-0.9,6.1-1.6,9.2-2c0.6-0.1,1.1-0.1,1.7-0.2c-0.6-0.2-1.2,0-1.8-0.2
			C31.6,3.1,36,3.1,40.4,3.1z M30.9,33c-0.2,3.1,1.9,7.1,5,9c4.6,2.8,10,2,13.4-1.3c0.8-0.8,1-2,0.6-3c-0.8-1.9-3.1-2.4-4.7-1.1
			c-1,0.8-2.2,1.4-3.5,1.3c-3.9-0.2-6.1-4.3-4.1-7.4c1.8-2.9,5.2-3.1,7.4-1.3c0.3,0.2,0.6,0.4,0.9,0.6c1.3,0.8,2.9,0.5,3.8-0.6
			c1-1.2,0.9-2.8-0.3-3.9c-2.7-2.5-5.9-3.5-9.5-2.9C34.6,23.2,30.9,27.8,30.9,33z"/>
		<path class="st0" d="M88.4,33.8c0-1.6,0-3.1,0-4.7c0-0.3,0.1-0.6,0.5-0.6c2,0,3.9-0.1,5.9,0.1c0.5,0.1,1,0.2,1.4,0.5
			c1.5,0.9,1.6,2.9,0.2,3.9c-0.3,0.2-0.4,0.4,0,0.6c1.8,0.9,1.6,4-0.3,4.9c-0.6,0.3-1.3,0.5-2,0.5c-1.7,0-3.3,0-5,0
			c-0.6,0-0.7-0.2-0.7-0.7C88.4,36.8,88.4,35.3,88.4,33.8z M92.7,36.8c0.3,0,0.6,0,1,0c0.8,0,1.2-0.5,1.2-1.2c0-0.6-0.5-1.1-1.1-1.1
			c-0.5,0-1.1,0-1.6,0c-0.9,0-0.9,0-0.9,0.9C91.3,37,91,36.8,92.7,36.8z M92.6,30.9c-0.3,0-0.6,0-1,0c-0.2,0-0.4,0.1-0.4,0.3
			c0,0.4,0,0.8,0,1.1c0,0.2,0.1,0.3,0.4,0.3c0.6,0,1.3,0,1.9,0c0.5,0,0.9-0.5,0.8-1c0-0.5-0.4-0.8-0.9-0.8
			C93.2,30.9,92.9,30.9,92.6,30.9z"/>
		<path class="st0" d="M166.4,51.7c0-1.9,0-3.7,0-5.5c0-0.8,0-0.8,0.8-0.8c0.4,0,0.8,0,1.1,0c0.4,0,0.6,0.1,0.6,0.6
			c0,3.1,0,6.3,0,9.4c0,0.4-0.1,0.6-0.5,0.5c0,0-0.1,0-0.1,0c-1.5,0.2-2.6-0.2-3.2-1.8c-0.5-1.3-1.4-2.5-2.1-3.7
			c-0.1-0.2-0.2-0.5-0.4-0.5c-0.3,0.1-0.2,0.4-0.2,0.6c0,1.5,0,3.1,0,4.6c0,0.8,0,0.8-0.8,0.8c-0.4,0-0.9,0-1.3,0
			c-0.4,0-0.6-0.1-0.6-0.5c0-3.2,0-6.4,0-9.6c0-0.3,0.2-0.5,0.5-0.5c0.8-0.1,1.6,0,2.3,0.1c0.2,0,0.3,0.2,0.4,0.4
			c1.1,1.9,2.2,3.8,3.2,5.7C166.2,51.5,166.3,51.6,166.4,51.7z"/>
		<path class="st0" d="M71.9,50.6c0-1.4,0-2.9,0-4.3c0-1,0-0.9,0.9-1c1.4-0.1,2.7-0.1,4.1,0c2.8,0.2,4.6,2.1,4.7,4.8
			c0,0.7,0,1.4-0.2,2.1c-0.6,2.3-2.1,3.5-4.7,3.6c-1.4,0.1-2.9,0-4.3,0c-0.5,0-0.5-0.2-0.5-0.6C71.9,53.8,71.8,52.2,71.9,50.6
			C71.9,50.6,71.9,50.6,71.9,50.6z M74.6,50.5C74.6,50.5,74.6,50.5,74.6,50.5c0,0.4,0,0.9,0,1.3c0,1.7,0,1.7,1.7,1.7
			c1.5,0,2.3-0.6,2.6-2.1c0.4-1.8-0.4-3.3-2-3.6c-0.5-0.1-1.1,0-1.6-0.1c-0.4,0-0.6,0.1-0.6,0.5C74.6,49,74.6,49.7,74.6,50.5z"/>
		<path class="st0" d="M164.8,33.8c0-1.5,0-3,0-4.5c0-0.5,0.2-0.7,0.7-0.7c1.9-0.1,3.7-0.2,5.6,0c1.6,0.2,2.6,1.1,2.9,2.6
			c0.2,1-0.2,1.8-1,2.5c-0.3,0.3-0.4,0.4,0,0.7c0.5,0.4,0.7,1,0.8,1.7c0.1,0.8,0.2,1.7,0.3,2.5c0.1,0.3,0,0.5-0.4,0.4
			c-0.5,0-1.1,0-1.6,0c-0.5,0-0.7-0.1-0.7-0.6c0-0.6-0.1-1.2-0.2-1.8c-0.2-1-0.7-1.3-1.6-1.3c-2.4,0-1.9-0.3-2,1.8c0,0,0,0,0,0.1
			c0,0.6,0.3,1.5-0.1,1.8c-0.6,0.4-1.5,0.1-2.2,0.1c-0.4,0-0.4-0.3-0.4-0.6C164.8,36.9,164.8,35.4,164.8,33.8z M169.2,33.1
			c0.2,0,0.5,0,0.7,0c0.7,0,1.2-0.5,1.2-1.2c0-0.6-0.5-1-1.1-1c-0.6,0-1.2,0-1.8,0c-0.5,0-0.7,0.1-0.7,0.7
			C167.6,33.3,167.4,33,169.2,33.1z"/>
		<path class="st0" d="M113.4,28.6c0.9-0.1,1.9-0.1,2.8,0c2.1,0.3,3.2,1.8,2.7,3.8c-0.1,0.6-0.4,1.1-0.9,1.4
			c-0.3,0.2-0.4,0.4-0.1,0.6c0.7,0.6,0.9,1.4,1,2.3c0.1,0.7,0.1,1.3,0.3,2c0.1,0.3,0,0.4-0.3,0.4c-0.5,0-1.1,0-1.6,0
			c-0.6,0-0.8-0.2-0.8-0.8c0-0.7-0.1-1.4-0.3-2c-0.2-0.6-0.6-0.9-1.2-1c-2.2-0.3-2.3-0.2-2.3,1.9c0,0.5,0,0.9,0,1.4
			c0,0.3-0.1,0.5-0.5,0.5c-0.6-0.1-1.1,0-1.7,0c-0.4,0-0.6-0.1-0.6-0.5c0.1-3.1,0.1-6.3,0-9.4c0-0.4,0.1-0.6,0.5-0.6
			C111.4,28.6,112.4,28.6,113.4,28.6z M114.1,33.1c0.3,0,0.7,0,1,0c0.7,0,1.1-0.5,1.2-1.2c0-0.5-0.5-1-1.1-1c-0.5,0-1.1,0-1.6,0
			c-0.6-0.1-0.8,0.1-0.8,0.8C112.7,33.1,112.7,33.1,114.1,33.1z"/>
		<path class="st0" d="M103.7,39.1c-1.2,0-2.4,0-3.6,0c-0.5,0-0.7-0.1-0.7-0.7c-0.1-2.7-0.1-5.5,0-8.2c0-0.3,0-0.5,0-0.8
			c-0.1-0.9-0.1-0.9,0.9-0.9c2.3,0,4.6,0,6.9,0c0.8,0,0.8,0.1,0.8,0.8c0,1.8,0.1,1.5-1.5,1.5c-1.2,0-2.4,0-3.6,0
			c-0.5,0-0.7,0.1-0.7,0.7c0,1,0,1,1.1,1c1.1,0,2.3,0,3.4,0c0.5,0,0.7,0.2,0.8,0.7c0,1.4,0,1.4-1.4,1.4c-1.1,0-2.1,0-3.2,0
			c-0.5,0-0.7,0.2-0.7,0.7c0,1.3,0,1.3,1.3,1.3c1.2,0,2.5,0,3.7,0c0.5,0,0.8,0.2,0.8,0.8c-0.1,1.9,0.2,1.6-1.6,1.7
			C105.5,39.1,104.6,39.1,103.7,39.1C103.7,39.1,103.7,39.1,103.7,39.1z"/>
		<path class="st0" d="M151.4,36.2c0,0.7,0,1.5,0,2.2c0,0.5-0.1,0.7-0.7,0.6c-0.2,0-0.4,0-0.6,0c-0.4,0-0.6-0.1-0.6-0.5
			c0-0.3-0.1-0.4-0.4-0.2c-2.6,1.7-5.4,1.2-7-1.4c-1.9-2.9-0.9-7.7,3.5-8.5c2.1-0.4,4.3,0.3,5.3,2.2c0,0.1,0.1,0.1,0.1,0.2
			c0.6,1.1,0.4,1.4-0.8,1.4c-0.2,0-0.3,0-0.5,0c-0.6,0.1-1.1-0.1-1.4-0.7c-0.5-0.9-1.5-0.8-2.4-0.7c-0.8,0.1-1.4,0.7-1.6,1.5
			c-0.3,1-0.3,2-0.1,2.9c0.2,0.9,0.8,1.5,1.7,1.6c1,0.2,1.9,0,2.6-0.7c0.2-0.2,0.4-0.3,0.2-0.6c-0.1-0.3-0.4-0.2-0.6-0.2
			c-1.2,0-1.3-0.2-1.2-1.4c0-0.6,0.2-0.8,0.9-0.8c0.9,0.1,1.9,0,2.8,0c0.8,0,0.8,0,0.8,0.9C151.5,34.8,151.5,35.5,151.4,36.2
			C151.4,36.2,151.4,36.2,151.4,36.2z"/>
		<path class="st0" d="M131.2,33.8c0-1.6,0-3.1,0-4.7c0-0.5,0.1-0.6,0.6-0.6c2.4,0,4.8,0,7.2,0c0.5,0,0.6,0.2,0.6,0.6
			c0,2,0.2,1.6-1.6,1.7c-1.2,0-2.3,0-3.5,0c-0.5,0-0.6,0.1-0.6,0.6c0,1.1,0,1.1,1.1,1.1c1.1,0,2.3,0,3.4,0c0.5,0,0.8,0.1,0.7,0.7
			c0,0,0,0.1,0,0.1c-0.1,1.3-0.1,1.3-1.5,1.3c-1.1,0-2.1,0-3.2,0c-0.4,0-0.6,0.1-0.6,0.6c0,1.4,0,1.4,1.4,1.4c1.3,0,2.5,0,3.8,0
			c0.5,0,0.7,0.2,0.7,0.7c-0.1,2.1,0.3,1.7-1.7,1.8c-2.1,0-4.1,0-6.2,0c-0.6,0-0.8-0.1-0.8-0.7C131.2,36.9,131.2,35.4,131.2,33.8
			C131.2,33.8,131.2,33.8,131.2,33.8z"/>
		<path class="st0" d="M175.9,34.5c0-2.2,0-3.7,0-5.3c0-0.5,0.1-0.7,0.6-0.7c2.4,0,4.7,0,7.1,0c0.6,0,0.7,0.2,0.7,0.7
			c0,1.9,0.1,1.6-1.5,1.6c-1.1,0-2.3,0-3.4,0c-0.6,0-0.8,0.2-0.8,0.8c0,0.1,0,0.2,0,0.3c0,0.5,0.2,0.6,0.6,0.6c1.3,0,2.6,0,3.9,0
			c0.5,0,0.7,0.2,0.6,0.7c0,1.5,0,1.5-1.6,1.5c-1,0-2,0-3,0c-0.5,0-0.7,0.1-0.7,0.6c0,1.4,0,1.4,1.4,1.4c1.3,0,2.5,0,3.8,0
			c0.5,0,0.7,0.2,0.7,0.7c0,0.4,0,0.8,0,1.3c0,0.4-0.2,0.5-0.5,0.5c-2.5,0-5,0-7.4,0c-0.7,0-0.7-0.4-0.7-0.9
			C175.9,36.8,175.9,35.2,175.9,34.5z"/>
		<path class="st0" d="M83.4,50.6c0-1.6,0-3.1,0-4.7c0-0.5,0.1-0.7,0.6-0.7c2.4,0,4.9-0.1,7.3,0.1c0.5,0,0.6,0.2,0.6,0.7
			c0,1.8,0.2,1.5-1.5,1.6c-1.2,0-2.3,0-3.5,0c-0.5,0-0.7,0.2-0.7,0.7c0,1.2,0,1.1,1.2,1.2c1.2,0,2.3-0.2,3.5,0
			c0.4,0.1,0.6,0.2,0.6,0.6c0,1.8,0.1,1.5-1.5,1.5c-1.1,0-2.1,0-3.2,0c-0.4,0-0.6,0.1-0.6,0.5c0,1.7-0.2,1.4,1.4,1.4
			c1.3,0,2.5,0,3.8,0c0.5,0,0.7,0.1,0.7,0.7c-0.1,2.2,0.3,1.8-1.8,1.8c-2.1,0-4.1,0-6.2,0c-0.5,0-0.7-0.2-0.7-0.7
			C83.4,53.7,83.4,52.2,83.4,50.6z"/>
		<path class="st0" d="M121.7,35.6c0.2,0,0.5,0,0.7,0c0.5,0,0.8,0.1,0.8,0.6c0,0.4,0.4,0.7,0.7,0.8c0.7,0.3,1.4,0.3,2,0
			c0.4-0.1,0.7-0.3,0.7-0.8c0-0.5-0.2-0.8-0.6-1c-0.7-0.2-1.4-0.4-2.1-0.6c-0.6-0.1-1.1-0.3-1.6-0.6c-2-1-2.3-3.5-0.5-4.8
			c1.7-1.3,4.7-1.2,6.3,0.1c0.6,0.5,0.9,1.2,1.1,2c0,0.2,0,0.5-0.3,0.4c-0.6-0.1-1.2,0.1-1.8,0c-0.4,0-0.7-0.2-0.9-0.6
			c-0.4-0.9-2.1-1-2.7-0.2c-0.2,0.3-0.2,0.5,0,0.7c0.2,0.2,0.5,0.4,0.9,0.5c0.9,0.3,1.9,0.5,2.8,0.8c1.3,0.4,2.2,1.1,2.3,2.5
			c0.1,1.3-0.5,2.5-1.7,3.2c-1.8,1-4.7,0.8-6.3-0.4c-0.7-0.6-1-1.4-1.2-2.2c-0.1-0.3,0.1-0.5,0.4-0.5
			C121.1,35.6,121.4,35.6,121.7,35.6C121.7,35.6,121.7,35.6,121.7,35.6z"/>
		<path class="st0" d="M156.3,32.4c0,1,0,2,0,3c0,0.9,0.4,1.3,1.3,1.4c0.4,0.1,0.8,0,1.3-0.1c0.5-0.1,0.8-0.4,0.9-0.9
			c0.1-0.4,0.1-0.8,0.1-1.2c0-1.8,0-3.6,0-5.4c0-0.6,0.2-0.8,0.8-0.8c0.5,0,1,0,1.5,0c0.4,0,0.6,0.2,0.6,0.6c0,2.2,0.1,4.3-0.1,6.5
			c-0.2,2.2-1.3,3.3-3.5,3.6c-0.9,0.1-1.8,0.1-2.7-0.1c-1.7-0.4-2.7-1.6-2.9-3.2c-0.2-2.3-0.1-4.6-0.1-6.9c0-0.3,0.1-0.4,0.4-0.4
			c0.6,0,1.2,0,1.8,0c0.4,0,0.6,0.2,0.6,0.7C156.3,30.3,156.3,31.3,156.3,32.4z"/>
		<path class="st0" d="M155,49c0-1,0-2,0-3c0-0.6,0.2-0.8,0.7-0.8c0.4,0,0.8,0,1.3,0c0.9,0.1,0.9,0.1,0.9,1c0,1.7,0,3.4,0,5.1
			c0,0.6-0.1,1.2-0.3,1.9c-0.4,1.4-1.3,2.3-2.8,2.6c-1.4,0.3-2.9,0.3-4.2-0.4c-1.4-0.6-1.9-1.9-1.9-3.2c-0.1-2.1-0.1-4.1-0.1-6.2
			c0-0.5,0.1-0.7,0.7-0.8c0.5,0,1,0,1.5,0c0.5,0,0.7,0.2,0.7,0.7c0,1.7,0,3.4,0,5.1c0,0.3,0,0.5,0,0.8c0,1.2,0.6,1.8,1.7,1.8
			c1.3,0,1.9-0.6,1.9-1.8C155,51,155,50,155,49z"/>
		<path class="st0" d="M107.3,49.1c-0.2,0-0.5,0-0.7,0c-0.4,0-0.7-0.1-0.8-0.5c-0.4-0.9-1.1-1.2-2.1-1.1c-0.9,0.1-1.7,0.5-2,1.3
			c-0.4,1.1-0.4,2.2-0.1,3.3c0.3,1,1.2,1.6,2.4,1.5c1,0,1.6-0.5,2-1.5c0.1-0.2,0.2-0.4,0.4-0.4c0.6,0,1.3,0,1.9,0
			c0.5,0,0.5,0.4,0.4,0.7c-0.4,1.8-1.9,3.2-3.8,3.5c-3.8,0.6-6.8-2.5-6.2-6.4c0.5-3.8,4.6-5.6,7.9-3.9c1.1,0.6,1.8,1.4,2.1,2.6
			c0.2,0.7,0.1,0.8-0.6,0.8C107.7,49.1,107.5,49.1,107.3,49.1C107.3,49.1,107.3,49.1,107.3,49.1z"/>
		<path class="st0" d="M80.2,32.4c-0.3,0-0.6,0-0.8,0c-0.3,0-0.6-0.1-0.7-0.4c-0.3-0.9-1-1.2-1.9-1.2c-0.9,0-1.7,0.3-2.1,1.1
			c-0.6,1.1-0.7,2.3-0.2,3.5c0.4,1,1.1,1.5,2.2,1.6c1,0,1.7-0.4,2.1-1.5c0.1-0.4,0.3-0.5,0.7-0.4c0.5,0,1,0,1.5,0
			c0.6,0,0.8,0.2,0.6,0.8c-0.6,2.3-2.8,3.8-5.1,3.6c-2.4-0.2-4.2-1.8-4.7-4.1c-0.6-2.6,0.3-5,2.5-6.2c2.3-1.3,6-0.8,7.3,2.1
			c0,0.1,0.1,0.2,0.1,0.2c0.3,0.8,0.2,1-0.7,1C80.6,32.4,80.4,32.4,80.2,32.4z"/>
		<path class="st0" d="M188.6,55.9c0,0-0.1,0-0.1,0c-1.4,0-1.4,0-1.8-1.3c-0.1-0.4-0.3-0.5-0.7-0.5c-0.8,0-1.7,0-2.5,0
			c-0.6,0-0.8,0.2-1,0.7c-0.4,1.2-0.5,1.2-1.7,1.2c-1.5,0-1.5,0-1-1.4c1.1-2.8,2.1-5.7,3.2-8.5c0.2-0.4,0.4-0.7,0.9-0.7
			c0.6,0,1.3,0,1.9,0.1c0.3,0,0.4,0.2,0.5,0.4c1.2,3.2,2.4,6.3,3.6,9.5c0.2,0.4,0.1,0.7-0.4,0.6C189.1,55.9,188.9,55.9,188.6,55.9
			C188.6,55.9,188.6,55.9,188.6,55.9z M184.6,51.9c0.2,0,0.4,0,0.6,0c0.4,0,0.6-0.2,0.4-0.5c-0.3-0.9-0.5-1.7-0.8-2.6
			c0-0.1-0.1-0.2-0.2-0.2c-0.2,0-0.2,0.1-0.2,0.2c-0.2,0.7-0.4,1.4-0.6,2C183.4,51.9,183.4,51.9,184.6,51.9z"/>
		<path class="st0" d="M114.7,54c-0.1,0-0.2,0-0.3,0c-1-0.1-1.9,0-2.1,1.3c-0.1,0.4-0.4,0.6-0.9,0.6c-0.5,0-1.1,0-1.6,0
			c-0.4,0-0.5-0.2-0.4-0.6c1.2-3.1,2.4-6.2,3.6-9.3c0.2-0.4,0.4-0.6,0.9-0.6c2.5-0.2,2.1-0.2,2.9,1.9c1,2.7,2,5.3,3,8
			c0.2,0.6,0.2,0.7-0.5,0.7c-0.5,0-1.1,0-1.6,0c-0.5,0-0.7-0.2-0.8-0.6c0,0,0,0,0-0.1c-0.3-1.2-0.3-1.2-1.6-1.2
			C115.2,54,114.9,54,114.7,54z M114.8,51.9c0.3,0,0.5,0,0.8,0c0.3,0,0.4-0.1,0.3-0.4c-0.3-0.9-0.5-1.7-0.8-2.6
			c0-0.1-0.1-0.3-0.2-0.3c-0.2,0-0.2,0.2-0.2,0.3c-0.2,0.6-0.4,1.2-0.6,1.8C113.5,52,113.4,51.9,114.8,51.9z"/>
		<path class="st0" d="M136.6,55.9c-0.1,0-0.2,0-0.3,0c-1.2,0-1.3,0-1.5-1.2c-0.1-0.6-0.4-0.7-0.9-0.7c-0.8,0-1.6,0-2.4,0
			c-0.6,0-0.8,0.2-0.9,0.7c-0.4,1.2-0.4,1.2-1.7,1.2c-0.3,0-0.6,0-1,0c-0.4,0-0.5-0.1-0.4-0.5c1.2-3.1,2.4-6.3,3.6-9.4
			c0.1-0.4,0.4-0.5,0.8-0.6c0.6-0.1,1.3,0.1,1.9,0.1c0.4,0,0.4,0.3,0.5,0.6c0.7,2,1.5,3.9,2.2,5.9c0.4,1.1,0.8,2.1,1.2,3.2
			c0.3,0.7,0.2,0.8-0.6,0.8C137,55.9,136.8,55.9,136.6,55.9C136.6,55.9,136.6,55.9,136.6,55.9z M132.7,51.9c0.3,0,0.5,0,0.8,0
			c0.3,0,0.4-0.1,0.3-0.4c-0.3-0.8-0.6-1.7-0.8-2.5c0-0.1-0.1-0.3-0.3-0.3c-0.1,0-0.2,0.2-0.2,0.3c-0.2,0.6-0.4,1.2-0.6,1.8
			C131.5,51.9,131.5,51.9,132.7,51.9z"/>
		<path class="st0" d="M203.1,39c-0.2,0-0.3,0-0.5,0c-1,0-1,0-1.3-1c-0.2-0.9-0.3-1-1.3-0.9c-0.7,0-1.5,0-2.2,0
			c-0.4,0-0.7,0.2-0.8,0.6c-0.4,1.5-0.4,1.3-1.9,1.3c-1.4,0-1.4,0-0.9-1.3c1.1-2.8,2.2-5.6,3.2-8.5c0.2-0.5,0.5-0.7,1-0.7
			c2,0,2,0,2.7,1.8c1.1,2.7,2.1,5.5,3.2,8.2c0.2,0.4,0,0.5-0.4,0.5C203.7,39,203.4,39.1,203.1,39C203.1,39.1,203.1,39.1,203.1,39z
			 M199.2,35.2c0.2,0,0.4,0,0.6,0c0.5,0,0.6-0.2,0.5-0.6c-0.3-0.8-0.5-1.5-0.8-2.3c0-0.1-0.1-0.3-0.3-0.3c-0.2,0-0.2,0.2-0.2,0.4
			c-0.2,0.6-0.4,1.1-0.6,1.7C198,35.2,197.9,35.2,199.2,35.2z"/>
		<path class="st0" d="M125.1,51.8c0,1.2,0,2.3,0,3.5c0,0.5-0.2,0.7-0.6,0.6c-0.5,0-1.1,0-1.6,0c-0.5,0-0.6-0.2-0.6-0.7
			c0-2.2,0-4.4,0-6.6c0-0.9,0-0.9-0.9-0.9c-0.6,0-1.1,0-1.7,0c-0.4,0-0.6-0.2-0.6-0.6c0,0,0,0,0-0.1c-0.1-1.7-0.1-1.7,1.7-1.7
			c2.3-0.1,4.6-0.1,6.9,0c0.5,0,0.7,0.2,0.7,0.7c0,1.9,0.2,1.6-1.7,1.6c-1.5,0-1.5,0-1.5,1.5c0,0.4,0,0.9,0,1.3
			C125.1,51,125.1,51.4,125.1,51.8C125.1,51.8,125.1,51.8,125.1,51.8z"/>
		<path class="st0" d="M208.2,28.5c1.3,0,2.6,0,3.9,0c0.5,0,0.8,0.2,0.8,0.8c0,2,0.2,1.7-1.7,1.7c-0.1,0-0.3,0-0.4,0
			c-1.1,0-1.1,0-1.1,1c0,2.1,0,4.3,0,6.4c0,0.5-0.1,0.7-0.7,0.7c-0.5-0.1-1.1,0-1.6,0c-0.4,0-0.6-0.1-0.6-0.5c0-2.3-0.1-4.6,0.1-6.9
			c0-0.5-0.1-0.8-0.7-0.8c-0.6,0-1.3,0-1.9,0c-0.4,0-0.7-0.2-0.7-0.6c0-2.2-0.2-1.8,1.6-1.8c0.5,0,1,0,1.5,0
			C207.2,28.5,207.7,28.5,208.2,28.5z"/>
		<path class="st0" d="M191.6,35.1c0,1.1,0,2.2,0,3.3c0,0.6-0.2,0.8-0.8,0.7c-0.5-0.1-1.1,0-1.6-0.1c-0.3,0-0.4-0.1-0.4-0.4
			c-0.1-2.3-0.1-4.6,0-6.8c0-0.8,0-0.9-0.8-0.9c-0.6,0-1.1,0-1.7,0c-0.4,0-0.7-0.1-0.6-0.6c0-0.5-0.2-1.1,0.1-1.5
			c0.3-0.4,0.9-0.2,1.4-0.2c2.4-0.1,4.7,0,7.1-0.1c0.4,0,0.6,0.2,0.6,0.6c0,0,0,0,0,0.1c-0.1,2.1,0.2,1.8-1.7,1.8
			c-1.8,0-1.5-0.2-1.6,1.5c0,0.4,0,0.9,0,1.3C191.6,34.2,191.6,34.7,191.6,35.1z"/>
		<path class="st0" d="M173.9,53.7c0.2-1.2-0.2-2.3-0.9-3.4c-0.9-1.4-1.8-3-2.7-4.4c-0.2-0.3-0.2-0.5,0.3-0.5c0.7,0,1.4,0,2,0
			c0.4,0,0.6,0.3,0.8,0.6c0.5,1,1,2,1.5,3c0.1,0.2,0.1,0.4,0.4,0.4c0.3,0,0.2-0.3,0.3-0.4c0.5-1,1-2,1.5-3c0.2-0.4,0.4-0.5,0.8-0.6
			c0.7-0.1,1.3,0,2,0c0.5,0,0.5,0.2,0.3,0.5c-0.9,1.5-1.8,3.1-2.8,4.6c-0.6,0.9-0.9,1.9-0.8,3c0.1,0.6,0,1.2,0,1.8
			c0,0.4-0.1,0.6-0.6,0.6c-0.5,0-1.1,0-1.6,0c-0.4,0-0.6-0.2-0.6-0.6C173.9,54.8,173.9,54.3,173.9,53.7z"/>
		<path class="st0" d="M142.1,49.4c0,1.1,0,2.2,0,3.3c0,0.5,0.1,0.7,0.7,0.7c1.2,0,2.3,0,3.5,0c0.5,0,0.7,0.1,0.7,0.7
			c0,2.2,0.2,1.8-1.7,1.8c-1.8,0-3.7,0-5.5,0c-0.4,0-0.6-0.1-0.6-0.5c0.2-3,0-6,0.1-9.1c0-0.9,0-0.9,0.9-1c0.5,0,0.9,0,1.4,0
			c0.4,0,0.6,0.2,0.6,0.6C142,47.1,142.1,48.2,142.1,49.4C142.1,49.4,142.1,49.4,142.1,49.4z"/>
		<path class="st0" d="M110,20.3c0-2.7,0-5.2,0-7.8c0-0.6,0.2-0.8,0.8-0.8c0.4,0,0.6,0.1,0.6,0.5c0,3.2,0,6.4,0,9.6
			c0,0.2,0,0.5-0.3,0.5c-0.5,0-1.1,0.1-1.4-0.4c-0.5-0.8-1.1-1.7-1.6-2.5c-1.1-1.7-2.2-3.4-3.3-5.1c-0.1-0.1-0.1-0.2-0.2-0.2
			c-0.3,0.2-0.2,0.5-0.2,0.7c0.1,2.3,0.1,4.7,0,7c0,0.4-0.2,0.6-0.5,0.6c-0.4,0-0.8,0.1-0.8-0.6c0-3.2,0-6.3,0-9.5
			c0-0.2,0-0.5,0.3-0.5c0.5,0,1-0.2,1.4,0.2c0.2,0.2,0.3,0.5,0.5,0.7C106.7,15.2,108.3,17.7,110,20.3z"/>
		<path class="st0" d="M91.2,19.5c0,0.8,0,1.5,0,2.3c0,0.3-0.1,0.6-0.4,0.5c-0.3,0-0.7,0-0.7-0.5c0-0.1,0-0.2,0-0.3
			c0-0.5-0.2-0.5-0.5-0.2c-1.8,1.5-3.7,1.6-5.6,0.4c-1.9-1.1-2.6-3-2.4-5.2c0.1-1.1,0.4-2.2,1.1-3.1c1.6-2.3,5.4-2.7,7.4-0.7
			c0.4,0.4,0.7,0.8,0.8,1.4c0.1,0.2,0.4,0.6,0,0.7c-0.4,0.1-0.8,0.2-1.2-0.2c-0.1-0.1-0.2-0.3-0.3-0.5c-0.4-0.8-1-1.2-1.8-1.4
			c-2.5-0.6-4.4,0.9-4.7,3.6c-0.1,1.1,0,2.1,0.5,3.1c0.7,1.3,2.3,2.1,3.6,1.9c1.6-0.2,2.6-1.3,2.9-2.8c0.1-0.5,0-0.7-0.6-0.7
			c-0.7,0-1.5,0-2.2,0c-0.5,0-0.7-0.3-0.6-0.7c0-0.5,0.3-0.5,0.7-0.5c1.1,0,2.3,0.1,3.4-0.1c0.5-0.1,0.7,0.1,0.7,0.6
			C91.2,18.1,91.2,18.8,91.2,19.5z"/>
		<path class="st0" d="M143.5,17c0-1.5,0-3,0-4.5c0-0.5,0.1-0.8,0.7-0.7c1.4,0.1,2.7-0.1,4.1,0.1c2.1,0.3,3.6,1.6,3.9,3.7
			c0.2,1.1,0.1,2.2-0.2,3.3c-0.6,2.1-1.8,3.1-4.4,3.4c-1.2,0.1-2.3,0-3.5,0c-0.5,0-0.6-0.2-0.6-0.6C143.5,20.1,143.5,18.6,143.5,17z
			 M144.9,17C144.9,17,144.9,17,144.9,17c0,0.6,0,1.1,0,1.7c0,0.6,0,1.1,0,1.7c0,0.5,0.1,0.8,0.7,0.7c0.6-0.1,1.2,0,1.8,0
			c1.5,0,2.7-0.9,3.1-2.4c0.3-0.9,0.3-1.8,0.2-2.7c-0.2-1.4-0.7-2.6-2.3-2.9c-1.1-0.3-2.2-0.1-3.3-0.1c-0.3,0-0.3,0.2-0.3,0.5
			C144.9,14.6,144.9,15.8,144.9,17z"/>
		<path class="st0" d="M158,11.7c1,0,2,0,3,0c0.4,0,0.6,0,0.6,0.5c0,0.4,0,0.8-0.6,0.8c-1.5,0-3,0-4.4,0c-0.8,0-0.8,0-0.8,0.8
			c0,0.7,0,1.3,0,2c0,0.5,0.2,0.6,0.6,0.6c1.4,0,2.8,0,4.2,0c0.4,0,0.7,0.1,0.7,0.6c0,0.5-0.2,0.7-0.7,0.7c-1.4,0-2.8,0-4.3,0
			c-0.5,0-0.6,0.2-0.6,0.6c0,0.8,0,1.7,0,2.5c0,0.4,0.2,0.6,0.6,0.6c1.5,0,3,0,4.4,0c0.4,0,0.9-0.1,0.9,0.5c0,0.6-0.4,0.7-0.9,0.7
			c-1.1,0-2.3,0-3.4-0.1c-0.9,0-1.7,0.2-2.6,0c-0.4-0.1-0.5-0.2-0.5-0.6c0.1-3.1,0.1-6.2,0-9.3c0-0.6,0.2-0.7,0.7-0.7
			C156,11.8,157,11.7,158,11.7z"/>
		<path class="st0" d="M97.1,11.8c1.1,0,2.1,0,3.2,0c0.5,0,0.6,0.2,0.6,0.6c0,0.5-0.2,0.6-0.6,0.6c-1.6,0-3.1,0-4.7,0
			c-0.5,0-0.7,0.2-0.7,0.7c0,0.7,0,1.4,0,2.1c0,0.5,0.2,0.6,0.6,0.6c1.4,0,2.8,0,4.2-0.1c0.5,0,0.7,0.1,0.7,0.7
			c0,0.5-0.2,0.7-0.7,0.7c-1.4-0.1-2.8,0-4.2,0c-0.5,0-0.7,0.2-0.6,0.6c0,0.8,0,1.6,0,2.3c0,0.6,0.2,0.8,0.8,0.7c1.5,0,3,0,4.4,0
			c0.5,0,0.8,0.1,0.8,0.7c0,0.6-0.5,0.5-0.8,0.5c-1.3-0.1-2.7-0.1-4-0.1c-0.6,0-1.3,0.1-1.9,0.1c-0.4,0-0.6-0.2-0.6-0.6
			c0-3.2,0-6.4,0-9.6c0-0.4,0.1-0.5,0.5-0.4C95.1,11.8,96.1,11.7,97.1,11.8C97.1,11.7,97.1,11.7,97.1,11.8z"/>
		<path class="st0" d="M132.8,11.8c0.5-0.1,0.9,0.2,1.1,0.7c1.1,3,2.3,6,3.5,9c0.1,0.1,0.1,0.3,0.2,0.4c0.1,0.3,0,0.5-0.4,0.5
			c-0.7,0-1-0.2-1.3-0.9c-0.2-0.6-0.4-1.2-0.6-1.8c-0.1-0.3-0.3-0.5-0.7-0.5c-1.2,0-2.3,0-3.5,0c-0.4,0-0.7,0.2-0.8,0.6
			c-0.2,0.7-0.5,1.3-0.7,1.9c-0.1,0.3-0.2,0.5-0.6,0.6c-0.3,0.1-0.6,0.1-0.9-0.1c-0.2-0.2,0-0.5,0.1-0.7c1.2-3,2.4-6.1,3.5-9.1
			C132,11.9,132.2,11.7,132.8,11.8z M132.7,17.9C132.7,17.9,132.7,17.9,132.7,17.9c0.4,0,0.8,0,1.2,0c0.5,0,0.6-0.1,0.5-0.6
			c-0.5-1.2-0.9-2.5-1.3-3.7c-0.1-0.2,0-0.4-0.2-0.4c-0.3,0-0.3,0.2-0.3,0.4c-0.5,1.3-0.9,2.6-1.4,3.8c-0.1,0.3-0.1,0.5,0.3,0.5
			C131.9,17.9,132.3,17.9,132.7,17.9z"/>
		<path class="st0" d="M79.9,22.4c-0.5,0-0.9-0.1-1.1-0.7c-0.1-0.6-0.5-1.2-0.7-1.8c-0.1-0.5-0.4-0.6-0.9-0.6c-1.1,0-2.2,0-3.4-0.1
			c-0.4,0-0.6,0.1-0.8,0.5c-0.2,0.7-0.5,1.4-0.7,2.1c-0.1,0.4-1.1,0.7-1.5,0.4c-0.2-0.2,0-0.3,0-0.5c1.1-2.7,2.1-5.3,3.2-8
			c0.2-0.5,0.4-1,0.6-1.5c0.2-0.5,0.5-0.6,1-0.6c0.5,0,0.8,0.1,1,0.6c1.1,2.9,2.3,5.8,3.4,8.7c0.1,0.2,0.2,0.4,0.3,0.6
			C80.6,22.2,80.5,22.4,79.9,22.4z M75.7,17.9C75.7,17.9,75.7,17.9,75.7,17.9c0.4,0,0.8,0,1.3,0c0.3,0,0.5-0.1,0.4-0.4
			c-0.5-1.3-0.9-2.6-1.4-3.9c0-0.1-0.1-0.3-0.2-0.3c-0.2,0-0.2,0.1-0.2,0.3c-0.5,1.3-1,2.5-1.5,3.8c-0.1,0.3,0,0.5,0.4,0.5
			C74.8,17.9,75.3,17.9,75.7,17.9z"/>
		<path class="st0" d="M114.8,17.1c0,1,0.2,2,0.7,2.8c0.7,1.1,2,1.7,3.3,1.5c1.6-0.3,2.4-1.1,2.7-2.5c0.1-0.5,0.4-0.6,1-0.5
			c0.5,0.1,0.3,0.5,0.3,0.7c-0.4,1.9-1.7,3.1-3.7,3.4c-2,0.3-3.9-0.5-4.8-2.1c-1.2-2.1-1.1-5.1,0.4-7c1.9-2.5,6.6-2.4,7.9,0.8
			c0.1,0.3,0.4,0.7,0,0.8c-0.4,0.1-0.9,0.2-1.2-0.3c-0.2-0.3-0.3-0.6-0.5-0.9c-0.9-1.2-2.2-1.1-3.4-0.9c-1.2,0.3-1.9,1.1-2.3,2.2
			C114.9,15.7,114.8,16.4,114.8,17.1z"/>
		<path class="st0" d="M83.4,33.8c0-1.6,0-3.1,0-4.7c0-0.5,0.1-0.6,0.6-0.6c0.5,0,1.1,0,1.6,0c0.4,0,0.5,0.2,0.5,0.6
			c0,3.1,0,6.3,0,9.4c0,0.4-0.1,0.6-0.6,0.5c-0.5,0-1.1-0.1-1.6,0c-0.5,0.1-0.6-0.2-0.6-0.6C83.4,36.9,83.4,35.4,83.4,33.8
			C83.4,33.8,83.4,33.8,83.4,33.8z"/>
		<path class="st0" d="M125.1,17c0-1.6,0-3.1,0-4.7c0-0.3,0-0.7,0.5-0.6c0.4,0.1,0.9-0.1,0.9,0.7c-0.1,3.1-0.1,6.2,0,9.2
			c0,0.5-0.1,0.8-0.6,0.8c-0.5,0-0.8-0.1-0.8-0.7C125.1,20.1,125.1,18.5,125.1,17z"/>
		<path class="st0" d="M95.7,8.6c0.5,0,0.9,0.2,1.1,0.6c0.2,0.4,0.5,0.7,0.7,1.1c0.1,0.2,0.3,0.4,0.1,0.6c-0.2,0.2-0.4,0-0.6-0.1
			c-0.3-0.2-0.5-0.4-0.7-0.7c-0.3-0.3-0.5-0.5-0.7-0.8C95.3,9.1,95,9,95.1,8.7C95.2,8.5,95.5,8.6,95.7,8.6z"/>
	</g>
</g>
</svg>
