<?xml version="1.0" encoding="utf-8"?>
<!-- Generator: Adobe Illustrator 27.4.0, SVG Export Plug-In . SVG Version: 6.00 Build 0)  -->
<svg version="1.1" xmlns="http://www.w3.org/2000/svg" xmlns:xlink="http://www.w3.org/1999/xlink" x="0px" y="0px"
	 viewBox="0 0 219 119.1" style="enable-background:new 0 0 219 119.1;" xml:space="preserve">
<style type="text/css">
	.st0{fill:#FFFFFF;}
</style>
<g id="Capa_2">
</g>
<g id="Capa_1">
	<g>
		<g>
			<path class="st0" d="M41.2,81.7c0.9,0,1.8,0,2.7,0c0.6,0,0.9,0.2,1,0.8c0.3,3.9,3.5,5.3,6.9,5.6c1.5,0.1,2.9-0.1,4.3-0.6
				c0.6-0.2,1.2-0.5,1.6-0.9c1.9-1.5,1.9-4.1,0-5.5c-1-0.8-2.1-1.2-3.3-1.6c-2.9-0.8-5.9-1.4-8.8-2.4c-1.8-0.7-3.4-1.5-4.8-2.9
				c-3-3-2.9-8.6-0.1-11.8c2.4-2.8,5.6-4,9.2-4.3c2.5-0.2,5-0.1,7.4,0.7c3.1,1,5.6,2.7,7,5.8c0.5,1.2,0.6,2.4,0.8,3.6
				c0.1,0.5-0.2,0.8-0.7,0.8c-2,0-4,0-6,0c-0.4,0-0.7-0.2-0.7-0.7c-0.2-2.2-1.4-3.4-3.4-4.1c-2-0.6-4.1-0.7-6.1,0.1
				c-1.9,0.8-2.7,2.4-2.2,4.3c0.2,0.8,0.7,1.2,1.3,1.6c1.5,0.8,3.2,1.2,4.9,1.7c2.9,0.8,5.9,1.3,8.7,2.6c3.2,1.5,5.2,3.9,5.4,7.5
				c0.2,4.1-1.3,7.3-4.8,9.5c-2.5,1.5-5.2,2.2-8.1,2.2c-3.1,0.1-6.1-0.1-8.9-1.4c-4.1-1.9-6.6-5-7-9.6c-0.1-0.9,0.2-1.2,1.1-1.1
				C39.5,81.7,40.4,81.7,41.2,81.7C41.2,81.7,41.2,81.7,41.2,81.7z"/>
			<path class="st0" d="M98.5,70.4c-1,0-2,0-3,0c-0.3,0-0.7,0-0.8-0.5c-0.2-2.4-1.9-3.8-3.8-4.7c-3.4-1.7-8.9-1-11.2,3.6
				c-2.2,4.4-2.2,9.1-0.4,13.6c1.5,3.6,4.4,5.2,8.4,5.1c3.2-0.1,5.3-1.6,6.6-4.4c0.3-0.7,0.5-1.5,0.7-2.3c0.2-0.7,0.5-1,1.2-1
				c1.7,0,3.4,0,5.2,0c0.8,0,1.1,0.3,0.9,1.2c-0.9,5.6-3.6,9.9-9,11.8C83.1,96.3,72.9,91,70.9,80c-1-5.3-0.3-10.5,2.8-15.1
				c3-4.5,7.4-6.7,12.8-6.9c3.4-0.1,6.6,0.4,9.5,2.3c3.1,1.9,5,4.7,5.9,8.2c0.4,1.8,0.5,1.8-1.4,1.8C99.8,70.4,99.2,70.4,98.5,70.4z
				"/>
			<path class="st0" d="M150.6,70.4c-0.8,0-1.6-0.1-2.3,0c-0.9,0.1-1.4-0.3-1.6-1.2c-0.6-1.9-1.9-3.2-3.6-4.1
				c-3-1.5-8.4-1.2-10.7,2.8c-2.9,4.9-3.1,10.1-0.5,15.2c2.1,4.1,6.3,5,10.3,4c2.8-0.7,4.1-3,4.8-5.6c0.5-1.7,0.4-1.7,2.2-1.7
				c1.4,0,2.9,0,4.3,0c0.8,0,1.1,0.2,1,1.1c-1,6.4-4.4,10.9-10.8,12.4c-9.7,2.3-18.5-2.8-20.6-12.6c-1-4.9-0.6-9.7,1.7-14.2
				c2.9-5.4,7.6-8.2,13.7-8.5c3.4-0.1,6.7,0.5,9.6,2.3c3.3,2.1,5.1,5.1,6,8.8c0.2,0.7,0,1.2-0.9,1.1
				C152.4,70.3,151.5,70.4,150.6,70.4z"/>
			<path class="st0" d="M186.7,93c-1,0-2,0-3,0c-0.7,0-1-0.2-1.2-0.9c-0.6-2-1.3-3.9-1.9-5.9c-0.2-0.7-0.7-0.9-1.4-0.8
				c-3.7,0.2-7.3,0.1-11,0c-0.7,0-0.9,0.2-1.1,0.8c-0.6,2-1.4,3.9-2,5.8c-0.2,0.7-0.6,1.1-1.4,1c-1.8-0.1-3.7,0-5.5,0
				c-0.7,0-0.9-0.2-0.7-0.9c3.8-9.9,7.6-19.8,11.3-29.6c0.3-0.9,0.7-1.8,0.9-2.7c0.2-0.6,0.4-0.9,1-0.9c2.1,0,4.3,0,6.4,0
				c0.5,0,0.8,0.2,1,0.7c2.1,5.8,4.3,11.6,6.5,17.4c1.9,5.1,3.8,10.1,5.7,15.2c0.3,0.7,0.1,1-0.7,0.9C188.7,93,187.7,93,186.7,93
				C186.7,93,186.7,93,186.7,93z M173.8,79.8C173.8,79.8,173.8,79.8,173.8,79.8c1.1,0,2.1,0,3.2,0c1.2,0,1.3-0.2,0.9-1.3
				c-1.2-3.4-2.4-6.8-3.5-10.1c-0.1-0.3-0.1-0.6-0.4-0.6c-0.3,0-0.3,0.4-0.4,0.7c-1.3,3.5-2.5,7-3.8,10.6c-0.3,0.7,0,0.9,0.7,0.9
				C171.6,79.8,172.7,79.8,173.8,79.8z"/>
			<path class="st0" d="M19.3,85.4c-1.9,0-3.9,0.1-5.8-0.1c-0.8-0.1-1.2,0.2-1.5,1c-0.7,2-1.4,3.9-2.1,5.9C9.8,92.8,9.4,93,8.9,93
				c-2,0-3.9,0-5.9,0c-1,0-0.7-0.6-0.5-1.1c1.6-4.1,3.1-8.2,4.7-12.2c2.5-6.6,5-13.2,7.5-19.8c0.3-0.8,0.8-1.2,1.7-1.1
				c1.7,0,3.4,0.1,5.1,0c1,0,1.5,0.3,1.9,1.3c1.8,4.8,3.6,9.6,5.4,14.4c2.2,5.9,4.5,11.9,6.7,17.8c0.2,0.6,0.2,0.8-0.5,0.8
				c-2,0-3.9-0.1-5.9,0c-0.7,0-1.2-0.3-1.4-1c-0.6-1.9-1.3-3.8-2-5.8c-0.2-0.8-0.7-1-1.5-0.9C22.5,85.5,20.9,85.4,19.3,85.4z
				 M18.8,79.8C18.8,79.8,18.8,79.8,18.8,79.8c1.2,0,2.4,0,3.7,0c0.7,0,0.8-0.3,0.6-0.9c-1.3-3.6-2.5-7.3-3.7-10.9
				c-0.1-0.2,0-0.6-0.4-0.5c-0.3,0-0.3,0.4-0.4,0.6c-0.5,1.3-0.9,2.7-1.4,4c-0.8,2.2-1.6,4.5-2.4,6.7c-0.3,1-0.3,1.1,0.8,1.1
				C16.6,79.8,17.7,79.8,18.8,79.8z"/>
			<path class="st0" d="M95.3,28.4c0-2.5,0-5,0-7.5c0-5.7,4.6-10.7,10.3-11.3c4.6-0.5,9.3,2.6,11.3,7.3c0.6,1.6,0.8,3.2,0.9,4.9
				c0.1,4.3,0,8.6,0,12.8c0,2.9-1.6,4.7-4,4.9c-2.7,0.2-4.8-1.7-4.9-4.7c0-4.2,0-8.5,0-12.7c0-1.1-0.4-2.1-1.5-2.6
				c-1.3-0.5-2.8,0.2-3.1,1.6c-0.1,0.6-0.2,1.2-0.2,1.9c0,3.8,0,7.7,0,11.5c0,3.1,0.9,5.8,3.4,7.8c2.9,2.3,6.1,2.7,9.4,1.3
				c3.5-1.5,5.5-4.3,5.6-8.1c0.1-4.9,0.1-9.7,0-14.6c-0.2-8.2-5.8-14.6-14.2-15.8c-0.6-0.1-1.1-0.1-1.7-0.2c-0.6-0.1-1.1-0.3-1.1-1
				c0-0.7,0.5-0.9,1.2-1c1.7-0.1,3.3,0.3,4.9,0.8c6.9,2.2,11.1,7,12.6,14c0.2,1.1,0.3,2.2,0.3,3.3c0,4.7,0,9.3,0,14
				c0,3.3-1.1,6.2-3.6,8.5c-5.5,5.2-14.9,3.3-17.9-3.7c-0.7-1.6-1-3.2-1-4.9c0-4.3,0-8.6,0-12.9c0-0.9,0.2-1.8,0.7-2.6
				c0.9-1.5,3-2.4,4.5-2.1c1.9,0.5,3.4,2.1,3.5,3.9c0.3,4.4,0.2,8.9,0.1,13.3c0,1.5,0.4,2.5,1.6,3c1.4,0.5,2.8-0.3,3.1-1.8
				c0.1-0.2,0.1-0.5,0.1-0.7c0-4.2,0.1-8.4-0.1-12.5c-0.1-1.5-0.1-3-0.6-4.4c-1.8-4.5-6.3-7-10.8-5.9c-3.2,0.7-6.1,3.9-6.8,7.4
				c-0.1,0.7-0.2,1.5-0.2,2.2c0,4.6,0,9.2,0,13.9c0,7.8,5.9,13.5,11.7,15c1.1,0.3,2.1,0.4,3.2,0.5c0.4,0,0.7,0.1,1.1,0.2
				c0.5,0.1,1,0.3,1,0.9c-0.1,0.6-0.5,1-1.2,1c-0.7,0-1.4-0.1-2.1-0.2c-8.8-1-15.7-8.7-15.7-17.5C95.3,33,95.3,30.7,95.3,28.4
				C95.3,28.4,95.3,28.4,95.3,28.4z"/>
			<path class="st0" d="M206.4,79.2c0,4.3,0,8.6,0,12.8c0,0.8-0.2,1.1-1.1,1.1c-1.8-0.1-3.5,0-5.3,0c-1.3,0-1.3,0-1.3-1.3
				c0-2.1,0-4.2,0-6.4c0-6.3,0-12.7,0-19c0-1.2,0-1.3-1.3-1.3c-2.6,0-5.3,0-7.9,0c-0.8,0-1.1-0.3-1.1-1.1c0.1-1.4,0-2.9,0-4.3
				c0-0.6,0.3-0.9,0.9-0.9c0.9,0,1.8,0,2.7,0c7.7,0,15.4,0,23.1,0c1.4,0,1.4,0,1.4,1.4c0,1.3,0,2.7,0,4c0,0.7-0.3,0.9-1,0.9
				c-2.8-0.1-5.6,0-8.4-0.1c-0.9,0-0.9,0.4-0.9,1.1C206.4,70.5,206.4,74.9,206.4,79.2C206.4,79.2,206.4,79.2,206.4,79.2z"/>
			<path class="st0" d="M108.8,75.8c0-5.3,0-10.7,0-16c0-0.7,0.2-1,0.9-1c1.9,0,3.8,0,5.7,0c0.7,0,1,0.3,1,1c0,10.7,0,21.4,0,32.1
				c0,0.8-0.3,1.1-1.1,1.1c-1.8,0-3.6-0.1-5.4,0c-0.9,0-1.2-0.3-1.2-1.2C108.8,86.5,108.8,81.2,108.8,75.8
				C108.8,75.8,108.8,75.8,108.8,75.8z"/>
			<path class="st0" d="M100.8,28.7c0,2.4,0,4.7,0,7.1c0,3.4,1.4,6.2,3.8,8.4c3.9,3.7,9.8,4.5,14.5,2c4-2.2,6.3-5.7,6.8-10.3
				c0-0.3,0.1-0.7,0.1-1c0.1-0.5,0.4-0.8,1-0.8c0.6,0.1,0.9,0.4,0.9,1c0.1,2.1-0.4,4.1-1.3,6c-2.6,5.2-6.8,8.1-12.6,8.5
				c-6.6,0.5-14.1-4.3-15.1-12.5c-0.7-5.7-0.5-11.4-0.1-17.1c0.3-4.4,4-6.8,6.9-6.9c4.4-0.2,7.7,2.1,8.5,6.2c0.1,0.7,0.2,1.3,0.2,2
				c0,4.1,0,8.1,0,12.2c0,1.3-0.3,1.8-1,1.8c-0.7,0-1.1-0.4-1.1-1.7c0-4.1,0-8.2-0.1-12.4c0-1.8-0.6-3.3-1.9-4.5
				c-1.6-1.5-3.6-2.2-5.7-1.3c-2.2,0.9-3.6,2.6-3.7,4.9C100.7,23.1,100.8,25.9,100.8,28.7C100.8,28.7,100.8,28.7,100.8,28.7z"/>
			<path class="st0" d="M121.1,27.7c0,2.4,0,4.9,0,7.3c0,3.9-3.3,7.5-7,7.7c-4.3,0.3-7.8-2.4-8.5-6.6c-0.3-1.7-0.1-3.5-0.2-5.2
				c0-2.9,0-5.8,0-8.7c0-1.3,0.3-1.8,1-1.8c0.8,0,1.2,0.6,1.2,1.8c0,4.4,0,8.8,0,13.2c0,2.5,2.2,5,4.8,5.4c2.7,0.4,5.6-1.3,6.4-3.7
				c0.3-0.8,0.4-1.7,0.4-2.6c0-4.4,0-8.9,0-13.3c0-8.2-7.5-14.3-15.6-12.6c-5,1-9.3,5.9-9.7,11.1c0,0.3,0,0.6-0.1,0.8
				c-0.1,0.5-0.1,1.3-1,1.1c-0.8-0.1-1.2-0.7-1.1-1.5c0.2-1.4,0.4-2.8,0.9-4.1c2.2-6.5,8.8-10.5,15.6-9.8
				c5.7,0.6,11.6,5.5,12.6,11.8c0.4,2.5,0.2,5,0.3,7.6C121.2,26.3,121.1,27,121.1,27.7z"/>
		</g>
		<g>
			<g>
				<path class="st0" d="M12.8,113.8h-0.9l2-5.7h1l2,5.7H16l-1.6-4.7h0L12.8,113.8z M12.9,111.6h3v0.7h-3V111.6z"/>
				<path class="st0" d="M20.8,109.6c0-0.3-0.2-0.5-0.4-0.6c-0.2-0.1-0.5-0.2-0.8-0.2c-0.2,0-0.4,0-0.6,0.1s-0.3,0.2-0.4,0.3
					s-0.1,0.3-0.1,0.4c0,0.1,0,0.3,0.1,0.3c0.1,0.1,0.1,0.2,0.3,0.2c0.1,0.1,0.2,0.1,0.3,0.2c0.1,0,0.2,0.1,0.3,0.1l0.6,0.1
					c0.2,0,0.4,0.1,0.6,0.2c0.2,0.1,0.4,0.2,0.5,0.3c0.2,0.1,0.3,0.3,0.4,0.5c0.1,0.2,0.2,0.4,0.2,0.7c0,0.3-0.1,0.6-0.2,0.9
					c-0.2,0.2-0.4,0.4-0.7,0.6c-0.3,0.1-0.7,0.2-1.1,0.2c-0.4,0-0.8-0.1-1.1-0.2c-0.3-0.1-0.6-0.3-0.7-0.6c-0.2-0.2-0.3-0.5-0.3-0.9
					h0.9c0,0.2,0.1,0.4,0.2,0.5s0.3,0.2,0.5,0.3c0.2,0.1,0.4,0.1,0.6,0.1c0.2,0,0.5,0,0.6-0.1c0.2-0.1,0.3-0.2,0.4-0.3
					c0.1-0.1,0.2-0.3,0.2-0.5c0-0.2,0-0.3-0.1-0.4s-0.2-0.2-0.4-0.3c-0.2-0.1-0.3-0.1-0.5-0.2l-0.7-0.2c-0.5-0.1-0.8-0.3-1.1-0.5
					c-0.3-0.2-0.4-0.6-0.4-1c0-0.3,0.1-0.6,0.3-0.9c0.2-0.2,0.4-0.4,0.7-0.6s0.6-0.2,1-0.2c0.4,0,0.7,0.1,1,0.2
					c0.3,0.1,0.5,0.3,0.7,0.6c0.2,0.2,0.3,0.5,0.3,0.8H20.8z"/>
				<path class="st0" d="M25.9,109.6c0-0.3-0.2-0.5-0.4-0.6c-0.2-0.1-0.5-0.2-0.8-0.2c-0.2,0-0.4,0-0.6,0.1s-0.3,0.2-0.4,0.3
					s-0.1,0.3-0.1,0.4c0,0.1,0,0.3,0.1,0.3c0.1,0.1,0.1,0.2,0.3,0.2c0.1,0.1,0.2,0.1,0.3,0.2c0.1,0,0.2,0.1,0.3,0.1l0.6,0.1
					c0.2,0,0.4,0.1,0.6,0.2c0.2,0.1,0.4,0.2,0.5,0.3c0.2,0.1,0.3,0.3,0.4,0.5c0.1,0.2,0.2,0.4,0.2,0.7c0,0.3-0.1,0.6-0.2,0.9
					c-0.2,0.2-0.4,0.4-0.7,0.6c-0.3,0.1-0.7,0.2-1.1,0.2c-0.4,0-0.8-0.1-1.1-0.2c-0.3-0.1-0.6-0.3-0.7-0.6c-0.2-0.2-0.3-0.5-0.3-0.9
					h0.9c0,0.2,0.1,0.4,0.2,0.5s0.3,0.2,0.5,0.3c0.2,0.1,0.4,0.1,0.6,0.1c0.2,0,0.5,0,0.6-0.1c0.2-0.1,0.3-0.2,0.4-0.3
					c0.1-0.1,0.2-0.3,0.2-0.5c0-0.2,0-0.3-0.1-0.4s-0.2-0.2-0.4-0.3c-0.2-0.1-0.3-0.1-0.5-0.2l-0.7-0.2c-0.5-0.1-0.8-0.3-1.1-0.5
					c-0.3-0.2-0.4-0.6-0.4-1c0-0.3,0.1-0.6,0.3-0.9c0.2-0.2,0.4-0.4,0.7-0.6s0.6-0.2,1-0.2c0.4,0,0.7,0.1,1,0.2
					c0.3,0.1,0.5,0.3,0.7,0.6c0.2,0.2,0.3,0.5,0.3,0.8H25.9z"/>
				<path class="st0" d="M32.7,111c0,0.6-0.1,1.1-0.3,1.6c-0.2,0.4-0.5,0.8-0.9,1c-0.4,0.2-0.8,0.4-1.3,0.4c-0.5,0-0.9-0.1-1.3-0.4
					c-0.4-0.2-0.7-0.6-0.9-1c-0.2-0.4-0.3-1-0.3-1.6c0-0.6,0.1-1.1,0.3-1.6c0.2-0.4,0.5-0.8,0.9-1c0.4-0.2,0.8-0.4,1.3-0.4
					c0.5,0,0.9,0.1,1.3,0.4c0.4,0.2,0.7,0.6,0.9,1C32.6,109.8,32.7,110.4,32.7,111z M31.9,111c0-0.5-0.1-0.9-0.2-1.2
					s-0.4-0.6-0.6-0.7c-0.3-0.2-0.5-0.2-0.9-0.2c-0.3,0-0.6,0.1-0.9,0.2s-0.5,0.4-0.6,0.7s-0.2,0.7-0.2,1.2c0,0.5,0.1,0.9,0.2,1.2
					s0.4,0.6,0.6,0.7c0.3,0.2,0.5,0.2,0.9,0.2c0.3,0,0.6-0.1,0.9-0.2c0.3-0.2,0.5-0.4,0.6-0.7S31.9,111.4,31.9,111z"/>
				<path class="st0" d="M38.5,110h-0.9c0-0.2-0.1-0.3-0.2-0.5c-0.1-0.1-0.2-0.3-0.3-0.4c-0.1-0.1-0.3-0.2-0.4-0.2
					c-0.2,0-0.3-0.1-0.5-0.1c-0.3,0-0.6,0.1-0.9,0.2c-0.3,0.2-0.5,0.4-0.6,0.7s-0.2,0.7-0.2,1.2c0,0.5,0.1,0.9,0.2,1.2
					c0.1,0.3,0.4,0.6,0.6,0.7c0.3,0.2,0.6,0.2,0.9,0.2c0.2,0,0.4,0,0.5-0.1c0.2,0,0.3-0.1,0.4-0.2c0.1-0.1,0.2-0.2,0.3-0.4
					c0.1-0.1,0.2-0.3,0.2-0.5l0.9,0c0,0.3-0.1,0.5-0.3,0.8s-0.3,0.4-0.5,0.6c-0.2,0.2-0.4,0.3-0.7,0.4c-0.3,0.1-0.6,0.1-0.9,0.1
					c-0.5,0-0.9-0.1-1.3-0.4c-0.4-0.2-0.7-0.6-0.9-1c-0.2-0.4-0.3-1-0.3-1.6c0-0.6,0.1-1.1,0.3-1.6c0.2-0.4,0.5-0.8,0.9-1
					c0.4-0.2,0.8-0.4,1.3-0.4c0.3,0,0.6,0,0.8,0.1s0.5,0.2,0.7,0.4c0.2,0.2,0.4,0.4,0.5,0.6C38.4,109.4,38.5,109.7,38.5,110z"/>
				<path class="st0" d="M40.4,108.1v5.7h-0.9v-5.7H40.4z"/>
				<path class="st0" d="M42.1,113.8h-0.9l2-5.7h1l2,5.7h-0.9l-1.6-4.7h0L42.1,113.8z M42.3,111.6h3v0.7h-3V111.6z"/>
				<path class="st0" d="M51.8,110H51c0-0.2-0.1-0.3-0.2-0.5c-0.1-0.1-0.2-0.3-0.3-0.4c-0.1-0.1-0.3-0.2-0.4-0.2
					c-0.2,0-0.3-0.1-0.5-0.1c-0.3,0-0.6,0.1-0.9,0.2c-0.3,0.2-0.5,0.4-0.6,0.7s-0.2,0.7-0.2,1.2c0,0.5,0.1,0.9,0.2,1.2
					c0.1,0.3,0.4,0.6,0.6,0.7c0.3,0.2,0.6,0.2,0.9,0.2c0.2,0,0.4,0,0.5-0.1c0.2,0,0.3-0.1,0.4-0.2c0.1-0.1,0.2-0.2,0.3-0.4
					c0.1-0.1,0.2-0.3,0.2-0.5l0.9,0c0,0.3-0.1,0.5-0.3,0.8s-0.3,0.4-0.5,0.6c-0.2,0.2-0.4,0.3-0.7,0.4c-0.3,0.1-0.6,0.1-0.9,0.1
					c-0.5,0-0.9-0.1-1.3-0.4c-0.4-0.2-0.7-0.6-0.9-1c-0.2-0.4-0.3-1-0.3-1.6c0-0.6,0.1-1.1,0.3-1.6c0.2-0.4,0.5-0.8,0.9-1
					c0.4-0.2,0.8-0.4,1.3-0.4c0.3,0,0.6,0,0.8,0.1s0.5,0.2,0.7,0.4c0.2,0.2,0.4,0.4,0.5,0.6C51.7,109.4,51.8,109.7,51.8,110z"/>
				<path class="st0" d="M53.7,108.1v5.7h-0.9v-5.7H53.7z"/>
				<path class="st0" d="M59.9,111c0,0.6-0.1,1.1-0.3,1.6c-0.2,0.4-0.5,0.8-0.9,1c-0.4,0.2-0.8,0.4-1.3,0.4c-0.5,0-0.9-0.1-1.3-0.4
					c-0.4-0.2-0.7-0.6-0.9-1c-0.2-0.4-0.3-1-0.3-1.6c0-0.6,0.1-1.1,0.3-1.6c0.2-0.4,0.5-0.8,0.9-1c0.4-0.2,0.8-0.4,1.3-0.4
					c0.5,0,0.9,0.1,1.3,0.4c0.4,0.2,0.7,0.6,0.9,1C59.8,109.8,59.9,110.4,59.9,111z M59.1,111c0-0.5-0.1-0.9-0.2-1.2
					s-0.4-0.6-0.6-0.7c-0.3-0.2-0.5-0.2-0.9-0.2c-0.3,0-0.6,0.1-0.9,0.2s-0.5,0.4-0.6,0.7s-0.2,0.7-0.2,1.2c0,0.5,0.1,0.9,0.2,1.2
					s0.4,0.6,0.6,0.7c0.3,0.2,0.5,0.2,0.9,0.2c0.3,0,0.6-0.1,0.9-0.2c0.3-0.2,0.5-0.4,0.6-0.7S59.1,111.4,59.1,111z"/>
				<path class="st0" d="M64.9,113.8H63v-5.7h1.9c0.6,0,1,0.1,1.4,0.3c0.4,0.2,0.7,0.6,0.9,1c0.2,0.4,0.3,0.9,0.3,1.5
					c0,0.6-0.1,1.1-0.3,1.5c-0.2,0.4-0.5,0.8-0.9,1C66,113.7,65.5,113.8,64.9,113.8z M63.9,113.1h0.9c0.4,0,0.8-0.1,1.1-0.2
					c0.3-0.2,0.5-0.4,0.6-0.7s0.2-0.7,0.2-1.1c0-0.4-0.1-0.8-0.2-1.1c-0.1-0.3-0.4-0.5-0.6-0.7s-0.6-0.2-1-0.2h-1V113.1z"/>
				<path class="st0" d="M68.7,113.8v-5.7h3.6v0.7h-2.7v1.7h2.5v0.7h-2.5v1.7h2.7v0.7H68.7z"/>
				<path class="st0" d="M80.2,110h-0.9c0-0.2-0.1-0.3-0.2-0.5c-0.1-0.1-0.2-0.3-0.3-0.4c-0.1-0.1-0.3-0.2-0.4-0.2
					c-0.2,0-0.3-0.1-0.5-0.1c-0.3,0-0.6,0.1-0.9,0.2c-0.3,0.2-0.5,0.4-0.6,0.7s-0.2,0.7-0.2,1.2c0,0.5,0.1,0.9,0.2,1.2
					c0.1,0.3,0.4,0.6,0.6,0.7c0.3,0.2,0.6,0.2,0.9,0.2c0.2,0,0.4,0,0.5-0.1c0.2,0,0.3-0.1,0.4-0.2c0.1-0.1,0.2-0.2,0.3-0.4
					c0.1-0.1,0.2-0.3,0.2-0.5l0.9,0c0,0.3-0.1,0.5-0.3,0.8s-0.3,0.4-0.5,0.6c-0.2,0.2-0.4,0.3-0.7,0.4c-0.3,0.1-0.6,0.1-0.9,0.1
					c-0.5,0-0.9-0.1-1.3-0.4c-0.4-0.2-0.7-0.6-0.9-1c-0.2-0.4-0.3-1-0.3-1.6c0-0.6,0.1-1.1,0.3-1.6c0.2-0.4,0.5-0.8,0.9-1
					c0.4-0.2,0.8-0.4,1.3-0.4c0.3,0,0.6,0,0.8,0.1s0.5,0.2,0.7,0.4c0.2,0.2,0.4,0.4,0.5,0.6C80,109.4,80.1,109.7,80.2,110z"/>
				<path class="st0" d="M82.1,108.1v5.7h-0.9v-5.7H82.1z"/>
				<path class="st0" d="M83.3,113.8v-5.7h2.1c0.4,0,0.7,0.1,1,0.2c0.3,0.1,0.5,0.3,0.6,0.5s0.2,0.5,0.2,0.8c0,0.2,0,0.4-0.1,0.6
					s-0.2,0.3-0.3,0.4c-0.1,0.1-0.3,0.2-0.5,0.2v0.1c0.2,0,0.4,0.1,0.6,0.2s0.3,0.3,0.4,0.5c0.1,0.2,0.2,0.5,0.2,0.7
					c0,0.3-0.1,0.6-0.2,0.8c-0.1,0.2-0.3,0.4-0.6,0.5c-0.3,0.1-0.6,0.2-1.1,0.2H83.3z M84.2,110.6h1.1c0.2,0,0.4,0,0.5-0.1
					c0.2-0.1,0.3-0.2,0.4-0.3c0.1-0.1,0.1-0.3,0.1-0.5c0-0.2-0.1-0.4-0.2-0.6s-0.4-0.2-0.8-0.2h-1.2V110.6z M84.2,113.1h1.2
					c0.4,0,0.7-0.1,0.9-0.2c0.2-0.2,0.3-0.4,0.3-0.6c0-0.2,0-0.3-0.1-0.5c-0.1-0.1-0.2-0.3-0.4-0.4s-0.4-0.1-0.6-0.1h-1.3V113.1z"/>
				<path class="st0" d="M88.4,113.8v-5.7H92v0.7h-2.7v1.7h2.5v0.7h-2.5v1.7H92v0.7H88.4z"/>
				<path class="st0" d="M93.1,113.8v-5.7h2c0.4,0,0.8,0.1,1.1,0.2c0.3,0.2,0.5,0.4,0.7,0.6c0.1,0.3,0.2,0.6,0.2,0.9
					c0,0.3-0.1,0.7-0.2,0.9c-0.1,0.3-0.4,0.5-0.7,0.6c-0.3,0.1-0.7,0.2-1.1,0.2h-1.5v-0.7h1.5c0.3,0,0.5,0,0.7-0.1
					c0.2-0.1,0.3-0.2,0.4-0.3c0.1-0.2,0.1-0.3,0.1-0.5c0-0.2,0-0.4-0.1-0.6s-0.2-0.3-0.4-0.4s-0.4-0.1-0.7-0.1H94v4.9H93.1z
					 M95.9,111.2l1.4,2.6h-1l-1.4-2.6H95.9z"/>
				<path class="st0" d="M101.3,109.6c0-0.3-0.2-0.5-0.4-0.6c-0.2-0.1-0.5-0.2-0.8-0.2c-0.2,0-0.4,0-0.6,0.1s-0.3,0.2-0.4,0.3
					s-0.1,0.3-0.1,0.4c0,0.1,0,0.3,0.1,0.3c0.1,0.1,0.1,0.2,0.3,0.2c0.1,0.1,0.2,0.1,0.3,0.2c0.1,0,0.2,0.1,0.3,0.1l0.6,0.1
					c0.2,0,0.4,0.1,0.6,0.2c0.2,0.1,0.4,0.2,0.5,0.3c0.2,0.1,0.3,0.3,0.4,0.5c0.1,0.2,0.2,0.4,0.2,0.7c0,0.3-0.1,0.6-0.2,0.9
					c-0.2,0.2-0.4,0.4-0.7,0.6c-0.3,0.1-0.7,0.2-1.1,0.2c-0.4,0-0.8-0.1-1.1-0.2c-0.3-0.1-0.6-0.3-0.7-0.6c-0.2-0.2-0.3-0.5-0.3-0.9
					h0.9c0,0.2,0.1,0.4,0.2,0.5s0.3,0.2,0.5,0.3c0.2,0.1,0.4,0.1,0.6,0.1c0.2,0,0.5,0,0.6-0.1c0.2-0.1,0.3-0.2,0.4-0.3
					c0.1-0.1,0.2-0.3,0.2-0.5c0-0.2,0-0.3-0.1-0.4s-0.2-0.2-0.4-0.3c-0.2-0.1-0.3-0.1-0.5-0.2l-0.7-0.2c-0.5-0.1-0.8-0.3-1.1-0.5
					c-0.3-0.2-0.4-0.6-0.4-1c0-0.3,0.1-0.6,0.3-0.9c0.2-0.2,0.4-0.4,0.7-0.6s0.6-0.2,1-0.2c0.4,0,0.7,0.1,1,0.2
					c0.3,0.1,0.5,0.3,0.7,0.6c0.2,0.2,0.3,0.5,0.3,0.8H101.3z"/>
				<path class="st0" d="M103.2,113.8v-5.7h3.6v0.7h-2.7v1.7h2.5v0.7h-2.5v1.7h2.7v0.7H103.2z"/>
				<path class="st0" d="M111.8,109.9c-0.1-0.2-0.1-0.3-0.2-0.5c-0.1-0.1-0.2-0.2-0.3-0.3c-0.1-0.1-0.3-0.2-0.4-0.2
					s-0.3-0.1-0.5-0.1c-0.3,0-0.6,0.1-0.9,0.2c-0.3,0.2-0.5,0.4-0.6,0.7c-0.1,0.3-0.2,0.7-0.2,1.2c0,0.5,0.1,0.8,0.2,1.2
					c0.1,0.3,0.4,0.6,0.6,0.7c0.3,0.2,0.6,0.2,0.9,0.2c0.3,0,0.6-0.1,0.8-0.2s0.4-0.3,0.5-0.5c0.1-0.2,0.2-0.5,0.2-0.8l0.2,0h-1.6
					v-0.7h2.2v0.6c0,0.5-0.1,0.9-0.3,1.2s-0.5,0.6-0.8,0.8c-0.4,0.2-0.8,0.3-1.2,0.3c-0.5,0-1-0.1-1.4-0.4c-0.4-0.2-0.7-0.6-0.9-1
					c-0.2-0.4-0.3-1-0.3-1.6c0-0.5,0.1-0.9,0.2-1.2s0.3-0.7,0.5-0.9s0.5-0.4,0.8-0.6c0.3-0.1,0.6-0.2,1-0.2c0.3,0,0.6,0,0.9,0.1
					c0.3,0.1,0.5,0.2,0.7,0.4c0.2,0.2,0.4,0.4,0.5,0.6c0.1,0.2,0.2,0.5,0.3,0.8H111.8z"/>
				<path class="st0" d="M117.4,108.1h0.9v3.7c0,0.4-0.1,0.8-0.3,1.1c-0.2,0.3-0.4,0.5-0.8,0.7c-0.3,0.2-0.7,0.3-1.2,0.3
					c-0.5,0-0.8-0.1-1.2-0.3c-0.3-0.2-0.6-0.4-0.8-0.7c-0.2-0.3-0.3-0.7-0.3-1.1v-3.7h0.9v3.7c0,0.3,0.1,0.5,0.2,0.7
					s0.3,0.4,0.5,0.5c0.2,0.1,0.5,0.2,0.7,0.2c0.3,0,0.5-0.1,0.7-0.2c0.2-0.1,0.4-0.3,0.5-0.5s0.2-0.4,0.2-0.7V108.1z"/>
				<path class="st0" d="M119.5,113.8v-5.7h2c0.4,0,0.8,0.1,1.1,0.2c0.3,0.2,0.5,0.4,0.7,0.6c0.1,0.3,0.2,0.6,0.2,0.9
					c0,0.3-0.1,0.7-0.2,0.9c-0.1,0.3-0.4,0.5-0.7,0.6c-0.3,0.1-0.7,0.2-1.1,0.2H120v-0.7h1.5c0.3,0,0.5,0,0.7-0.1
					c0.2-0.1,0.3-0.2,0.4-0.3c0.1-0.2,0.1-0.3,0.1-0.5c0-0.2,0-0.4-0.1-0.6s-0.2-0.3-0.4-0.4s-0.4-0.1-0.7-0.1h-1.1v4.9H119.5z
					 M122.3,111.2l1.4,2.6h-1l-1.4-2.6H122.3z"/>
				<path class="st0" d="M124.6,113.8v-5.7h3.6v0.7h-2.7v1.7h2.5v0.7h-2.5v1.7h2.7v0.7H124.6z"/>
				<path class="st0" d="M129,108.9v-0.7h4.4v0.7h-1.8v4.9h-0.9v-4.9H129z"/>
				<path class="st0" d="M134.9,113.8h-0.9l2-5.7h1l2,5.7h-0.9l-1.6-4.7h0L134.9,113.8z M135,111.6h3v0.7h-3V111.6z"/>
				<path class="st0" d="M139.6,108.9v-0.7h4.4v0.7h-1.8v4.9h-0.9v-4.9H139.6z"/>
				<path class="st0" d="M148.8,113.8H147v-5.7h1.9c0.6,0,1,0.1,1.4,0.3s0.7,0.6,0.9,1s0.3,0.9,0.3,1.5c0,0.6-0.1,1.1-0.3,1.5
					c-0.2,0.4-0.5,0.8-0.9,1S149.4,113.8,148.8,113.8z M147.9,113.1h0.9c0.4,0,0.8-0.1,1.1-0.2c0.3-0.2,0.5-0.4,0.6-0.7
					c0.1-0.3,0.2-0.7,0.2-1.1c0-0.4-0.1-0.8-0.2-1.1c-0.1-0.3-0.4-0.5-0.6-0.7s-0.6-0.2-1-0.2h-1V113.1z"/>
				<path class="st0" d="M152.6,113.8v-5.7h3.6v0.7h-2.7v1.7h2.5v0.7h-2.5v1.7h2.7v0.7H152.6z"/>
				<path class="st0" d="M164.1,110h-0.9c0-0.2-0.1-0.3-0.2-0.5c-0.1-0.1-0.2-0.3-0.3-0.4c-0.1-0.1-0.3-0.2-0.4-0.2
					c-0.2,0-0.3-0.1-0.5-0.1c-0.3,0-0.6,0.1-0.9,0.2c-0.3,0.2-0.5,0.4-0.6,0.7c-0.1,0.3-0.2,0.7-0.2,1.2c0,0.5,0.1,0.9,0.2,1.2
					c0.1,0.3,0.4,0.6,0.6,0.7c0.3,0.2,0.6,0.2,0.9,0.2c0.2,0,0.4,0,0.5-0.1c0.2,0,0.3-0.1,0.4-0.2c0.1-0.1,0.2-0.2,0.3-0.4
					c0.1-0.1,0.2-0.3,0.2-0.5l0.9,0c0,0.3-0.1,0.5-0.3,0.8c-0.1,0.2-0.3,0.4-0.5,0.6c-0.2,0.2-0.4,0.3-0.7,0.4
					c-0.3,0.1-0.6,0.1-0.9,0.1c-0.5,0-0.9-0.1-1.3-0.4c-0.4-0.2-0.7-0.6-0.9-1c-0.2-0.4-0.3-1-0.3-1.6c0-0.6,0.1-1.1,0.3-1.6
					c0.2-0.4,0.5-0.8,0.9-1c0.4-0.2,0.8-0.4,1.3-0.4c0.3,0,0.6,0,0.8,0.1s0.5,0.2,0.7,0.4c0.2,0.2,0.4,0.4,0.5,0.6
					C164,109.4,164.1,109.7,164.1,110z"/>
				<path class="st0" d="M165.6,113.8h-0.9l2-5.7h1l2,5.7h-0.9l-1.6-4.7h0L165.6,113.8z M165.8,111.6h3v0.7h-3V111.6z"/>
				<path class="st0" d="M170.4,108.9v-0.7h4.4v0.7H173v4.9h-0.9v-4.9H170.4z"/>
				<path class="st0" d="M176.2,113.8h-0.9l2-5.7h1l2,5.7h-0.9l-1.6-4.7h0L176.2,113.8z M176.3,111.6h3v0.7h-3V111.6z"/>
				<path class="st0" d="M181.2,113.8v-5.7h0.9v4.9h2.6v0.7H181.2z"/>
				<path class="st0" d="M189.3,108.1h0.9v3.7c0,0.4-0.1,0.8-0.3,1.1c-0.2,0.3-0.4,0.5-0.8,0.7c-0.3,0.2-0.7,0.3-1.2,0.3
					c-0.5,0-0.8-0.1-1.2-0.3c-0.3-0.2-0.6-0.4-0.8-0.7c-0.2-0.3-0.3-0.7-0.3-1.1v-3.7h0.9v3.7c0,0.3,0.1,0.5,0.2,0.7
					c0.1,0.2,0.3,0.4,0.5,0.5c0.2,0.1,0.5,0.2,0.7,0.2c0.3,0,0.5-0.1,0.7-0.2c0.2-0.1,0.4-0.3,0.5-0.5c0.1-0.2,0.2-0.4,0.2-0.7
					V108.1z"/>
				<path class="st0" d="M195.9,108.1v5.7h-0.8l-2.9-4.2h-0.1v4.2h-0.9v-5.7h0.8l2.9,4.2h0.1v-4.2H195.9z"/>
				<path class="st0" d="M196.8,108.1h1l1.5,2.6h0.1l1.5-2.6h1l-2.1,3.5v2.2h-0.9v-2.2L196.8,108.1z"/>
				<path class="st0" d="M203,113.8h-0.9l2-5.7h1l2,5.7h-0.9l-1.6-4.7h0L203,113.8z M203.2,111.6h3v0.7h-3V111.6z"/>
			</g>
		</g>
	</g>
</g>
</svg>
