<?xml version="1.0" encoding="utf-8"?>
<!-- Generator: Adobe Illustrator 27.4.0, SVG Export Plug-In . SVG Version: 6.00 Build 0)  -->
<svg version="1.1" xmlns="http://www.w3.org/2000/svg" xmlns:xlink="http://www.w3.org/1999/xlink" x="0px" y="0px"
	 viewBox="0 0 265.6 67.8" style="enable-background:new 0 0 265.6 67.8;" xml:space="preserve">
<style type="text/css">
	.st0{fill:#FFFFFF;}
</style>
<g id="Capa_2">
</g>
<g id="Capa_1">
	<g>
		<g>
			<path class="st0" d="M1,56.6c0.1,0,0.2,0,0.3,0s0.2,0,0.3,0s0.2,0,0.3,0s0.2,0,0.3,0v8.3c-0.1,0-0.2,0-0.3,0c-0.1,0-0.2,0-0.3,0
				c-0.1,0-0.2,0-0.3,0c-0.1,0-0.2,0-0.3,0C1,64.9,1,56.6,1,56.6z"/>
			<path class="st0" d="M4.3,56.6c0.1,0,0.2,0,0.3,0c0.1,0,0.2,0,0.3,0c0.1,0,0.2,0,0.3,0c0.1,0,0.2,0,0.3,0l3.6,6.2v-6.2
				c0.1,0,0.2,0,0.3,0s0.2,0,0.3,0s0.2,0,0.3,0s0.2,0,0.3,0v8.3c-0.1,0-0.2,0-0.3,0s-0.2,0-0.3,0s-0.2,0-0.3,0s-0.2,0-0.3,0
				l-3.6-6.2v6.2c-0.1,0-0.2,0-0.3,0c-0.1,0-0.2,0-0.3,0c-0.1,0-0.2,0-0.3,0c-0.1,0-0.2,0-0.3,0C4.3,64.9,4.3,56.6,4.3,56.6z"/>
			<path class="st0" d="M12.1,63.7c0.3,0.1,0.5,0.2,0.8,0.2c0.3,0.1,0.6,0.1,1,0.1c0.6,0,1.1-0.1,1.4-0.4c0.3-0.3,0.5-0.6,0.5-1
				c0-0.2,0-0.4-0.1-0.6s-0.2-0.3-0.3-0.4c-0.1-0.1-0.3-0.2-0.5-0.3s-0.4-0.2-0.7-0.3l-0.7-0.3c-0.2-0.1-0.4-0.2-0.6-0.3
				c-0.2-0.1-0.3-0.2-0.5-0.4c-0.1-0.2-0.2-0.3-0.3-0.6S12,58.9,12,58.6c0-0.7,0.2-1.3,0.7-1.6s1.1-0.6,2-0.6c0.4,0,0.7,0,1.1,0.1
				c0.3,0.1,0.6,0.1,0.9,0.2c0,0.3-0.1,0.6-0.3,1c-0.2-0.1-0.4-0.1-0.7-0.2c-0.3-0.1-0.6-0.1-0.9-0.1c-0.5,0-0.9,0.1-1.1,0.3
				c-0.3,0.2-0.4,0.5-0.4,0.9c0,0.2,0,0.3,0.1,0.4c0.1,0.1,0.2,0.2,0.3,0.3s0.2,0.2,0.4,0.3c0.1,0.1,0.3,0.1,0.5,0.2l0.6,0.3
				c0.3,0.1,0.6,0.3,0.8,0.4c0.2,0.1,0.4,0.3,0.6,0.5s0.3,0.4,0.4,0.6c0.1,0.2,0.1,0.5,0.1,0.9c0,0.8-0.3,1.4-0.8,1.9
				S15,65.1,14,65.1c-0.2,0-0.5,0-0.6,0c-0.2,0-0.4,0-0.5-0.1c-0.2,0-0.3-0.1-0.5-0.1s-0.3-0.1-0.5-0.2c0-0.2,0-0.3,0.1-0.5
				C12,64,12.1,63.8,12.1,63.7z"/>
			<path class="st0" d="M20.2,57.6H18c0-0.1,0-0.2,0-0.3s0-0.2,0-0.3s0-0.2,0-0.3s0-0.2,0-0.2h5.5c0,0.1,0,0.2,0,0.2s0,0.2,0,0.3
				s0,0.2,0,0.3s0,0.2,0,0.3h-2.2v7.3c-0.2,0-0.4,0-0.6,0s-0.4,0-0.6,0v-7.3H20.2z"/>
			<path class="st0" d="M24.9,56.6c0.1,0,0.2,0,0.3,0s0.2,0,0.3,0s0.2,0,0.3,0s0.2,0,0.3,0v8.3c-0.1,0-0.2,0-0.3,0
				c-0.1,0-0.2,0-0.3,0c-0.1,0-0.2,0-0.3,0c-0.1,0-0.2,0-0.3,0V56.6z"/>
			<path class="st0" d="M29.7,57.6h-2.2c0-0.1,0-0.2,0-0.3s0-0.2,0-0.3s0-0.2,0-0.3s0-0.2,0-0.2H33c0,0.1,0,0.2,0,0.2s0,0.2,0,0.3
				s0,0.2,0,0.3s0,0.2,0,0.3h-2.2v7.3c-0.2,0-0.4,0-0.6,0s-0.4,0-0.6,0v-7.3H29.7z"/>
			<path class="st0" d="M34.4,56.6c0.2,0,0.4,0,0.6,0c0.2,0,0.4,0,0.6,0v4.7c0,0.5,0,0.9,0.1,1.2s0.2,0.6,0.3,0.8s0.3,0.4,0.5,0.5
				S37,64,37.3,64s0.6-0.1,0.8-0.2c0.2-0.1,0.4-0.3,0.5-0.5s0.2-0.5,0.3-0.8s0.1-0.7,0.1-1.2v-4.7c0.2,0,0.4,0,0.6,0
				c0.2,0,0.4,0,0.6,0v4.9c0,0.6-0.1,1.1-0.2,1.5c-0.1,0.4-0.3,0.8-0.5,1.1c-0.2,0.3-0.5,0.5-0.9,0.7S37.8,65,37.2,65
				c-0.5,0-1-0.1-1.4-0.2c-0.4-0.2-0.7-0.4-0.9-0.7c-0.2-0.3-0.4-0.7-0.5-1.1s-0.2-0.9-0.2-1.5v-4.9H34.4z"/>
			<path class="st0" d="M43.8,57.6h-2.2c0-0.1,0-0.2,0-0.3s0-0.2,0-0.3s0-0.2,0-0.3s0-0.2,0-0.2h5.5c0,0.1,0,0.2,0,0.2s0,0.2,0,0.3
				s0,0.2,0,0.3s0,0.2,0,0.3H45v7.3c-0.2,0-0.4,0-0.6,0c-0.2,0-0.4,0-0.6,0C43.8,64.9,43.8,57.6,43.8,57.6z"/>
			<path class="st0" d="M51.3,65.1c-0.6,0-1.1-0.1-1.6-0.3s-0.8-0.5-1.1-0.9s-0.5-0.8-0.6-1.4s-0.2-1.1-0.2-1.7
				c0-0.6,0.1-1.2,0.2-1.7s0.4-1,0.6-1.4c0.3-0.4,0.7-0.7,1.1-0.9s1-0.3,1.6-0.3s1.1,0.1,1.6,0.3s0.8,0.5,1.1,0.9s0.5,0.8,0.6,1.4
				c0.1,0.5,0.2,1.1,0.2,1.7c0,0.6-0.1,1.2-0.2,1.7c-0.1,0.5-0.4,1-0.6,1.4c-0.3,0.4-0.7,0.7-1.1,0.9S51.9,65.1,51.3,65.1z M51.3,64
				c0.4,0,0.7-0.1,1-0.2c0.3-0.2,0.5-0.4,0.7-0.7s0.3-0.6,0.4-1c0.1-0.4,0.1-0.9,0.1-1.4s0-1-0.1-1.4s-0.2-0.7-0.4-1
				s-0.4-0.5-0.7-0.6c-0.3-0.2-0.6-0.2-1-0.2s-0.7,0.1-1,0.2c-0.3,0.2-0.5,0.4-0.7,0.6s-0.3,0.6-0.4,1c-0.1,0.4-0.1,0.9-0.1,1.4
				s0,1,0.1,1.4s0.2,0.7,0.4,1s0.4,0.5,0.7,0.7S51,64,51.3,64z"/>
			<path class="st0" d="M59.5,56.6c0.1,0,0.2,0,0.3,0s0.2,0,0.3,0s0.2,0,0.3,0s0.2,0,0.3,0l3.6,6.2v-6.2c0.1,0,0.2,0,0.3,0
				s0.2,0,0.3,0c0.1,0,0.2,0,0.3,0c0.1,0,0.2,0,0.3,0v8.3c-0.1,0-0.2,0-0.3,0c-0.1,0-0.2,0-0.3,0s-0.2,0-0.3,0c-0.1,0-0.2,0-0.3,0
				l-3.6-6.2v6.2c-0.1,0-0.2,0-0.3,0s-0.2,0-0.3,0s-0.2,0-0.3,0s-0.2,0-0.3,0V56.6z"/>
			<path class="st0" d="M71.6,63h-3.2l-0.6,1.9c-0.1,0-0.2,0-0.3,0c-0.1,0-0.2,0-0.3,0c-0.1,0-0.2,0-0.3,0c-0.1,0-0.2,0-0.3,0
				l2.7-8.3c0.1,0,0.2,0,0.3,0c0.1,0,0.2,0,0.4,0c0.1,0,0.2,0,0.3,0c0.1,0,0.2,0,0.3,0l2.7,8.3c-0.1,0-0.2,0-0.3,0
				c-0.1,0-0.2,0-0.3,0c-0.1,0-0.2,0-0.3,0c-0.1,0-0.2,0-0.3,0L71.6,63z M68.8,62h2.5L70,57.7L68.8,62z"/>
			<path class="st0" d="M79.8,63.7c0.2,0.3,0.3,0.7,0.3,1c-0.3,0.1-0.7,0.2-1,0.3s-0.7,0.1-1.1,0.1c-0.6,0-1.1-0.1-1.6-0.3
				s-0.9-0.5-1.2-0.8s-0.6-0.8-0.8-1.3s-0.3-1.1-0.3-1.8s0.1-1.3,0.3-1.8c0.2-0.5,0.4-1,0.8-1.4s0.7-0.7,1.2-0.9s1-0.3,1.6-0.3
				c0.4,0,0.8,0,1.1,0.1c0.3,0.1,0.6,0.1,0.8,0.2c0,0.2,0,0.3-0.1,0.5c0,0.2-0.1,0.3-0.2,0.5c-0.1,0-0.2-0.1-0.3-0.1
				c-0.1,0-0.2-0.1-0.3-0.1c-0.1,0-0.3,0-0.4-0.1s-0.3,0-0.5,0c-0.8,0-1.5,0.3-2,0.9c-0.5,0.6-0.7,1.4-0.7,2.5c0,0.5,0.1,1,0.2,1.4
				s0.3,0.7,0.6,1c0.2,0.3,0.5,0.5,0.9,0.6c0.3,0.1,0.7,0.2,1.1,0.2c0.3,0,0.6,0,0.9-0.1C79.3,63.9,79.6,63.8,79.8,63.7z"/>
			<path class="st0" d="M81.7,56.6c0.1,0,0.2,0,0.3,0s0.2,0,0.3,0s0.2,0,0.3,0s0.2,0,0.3,0v8.3c-0.1,0-0.2,0-0.3,0
				c-0.1,0-0.2,0-0.3,0c-0.1,0-0.2,0-0.3,0c-0.1,0-0.2,0-0.3,0V56.6z"/>
			<path class="st0" d="M88.3,65.1c-0.6,0-1.1-0.1-1.6-0.3s-0.8-0.5-1.1-0.9c-0.3-0.4-0.5-0.8-0.6-1.4s-0.2-1.1-0.2-1.7
				c0-0.6,0.1-1.2,0.2-1.7s0.4-1,0.6-1.4c0.3-0.4,0.7-0.7,1.1-0.9s1-0.3,1.6-0.3s1.1,0.1,1.6,0.3s0.8,0.5,1.1,0.9
				c0.3,0.4,0.5,0.8,0.6,1.4c0.1,0.5,0.2,1.1,0.2,1.7c0,0.6-0.1,1.2-0.2,1.7s-0.4,1-0.6,1.4c-0.3,0.4-0.7,0.7-1.1,0.9
				S88.9,65.1,88.3,65.1z M88.3,64c0.4,0,0.7-0.1,1-0.2c0.3-0.2,0.5-0.4,0.7-0.7s0.3-0.6,0.4-1s0.1-0.9,0.1-1.4s0-1-0.1-1.4
				s-0.2-0.7-0.4-1s-0.4-0.5-0.7-0.6c-0.3-0.2-0.6-0.2-1-0.2s-0.7,0.1-1,0.2c-0.3,0.2-0.5,0.4-0.7,0.6s-0.3,0.6-0.4,1
				s-0.1,0.9-0.1,1.4s0,1,0.1,1.4s0.2,0.7,0.4,1s0.4,0.5,0.7,0.7S87.9,64,88.3,64z"/>
			<path class="st0" d="M93.6,56.6c0.1,0,0.2,0,0.3,0c0.1,0,0.2,0,0.3,0c0.1,0,0.2,0,0.3,0c0.1,0,0.2,0,0.3,0l3.6,6.2v-6.2
				c0.1,0,0.2,0,0.3,0s0.2,0,0.3,0c0.1,0,0.2,0,0.3,0c0.1,0,0.2,0,0.3,0v8.3c-0.1,0-0.2,0-0.3,0c-0.1,0-0.2,0-0.3,0s-0.2,0-0.3,0
				c-0.1,0-0.2,0-0.3,0l-3.6-6.2v6.2c-0.1,0-0.2,0-0.3,0c-0.1,0-0.2,0-0.3,0c-0.1,0-0.2,0-0.3,0c-0.1,0-0.2,0-0.3,0V56.6z"/>
			<path class="st0" d="M105.7,63h-3.2l-0.6,1.9c-0.1,0-0.2,0-0.3,0c-0.1,0-0.2,0-0.3,0c-0.1,0-0.2,0-0.3,0c-0.1,0-0.2,0-0.3,0
				l2.7-8.3c0.1,0,0.2,0,0.3,0c0.1,0,0.2,0,0.4,0c0.1,0,0.2,0,0.3,0c0.1,0,0.2,0,0.3,0l2.7,8.3c-0.1,0-0.2,0-0.3,0
				c-0.1,0-0.2,0-0.3,0c-0.1,0-0.2,0-0.3,0c-0.1,0-0.2,0-0.3,0L105.7,63z M102.8,62h2.5l-1.3-4.2L102.8,62z"/>
			<path class="st0" d="M108.8,56.6c0.1,0,0.2,0,0.3,0c0.1,0,0.2,0,0.3,0c0.1,0,0.2,0,0.3,0s0.2,0,0.3,0v7.3h3.3c0,0.1,0,0.2,0,0.3
				s0,0.2,0,0.3c0,0.2,0,0.4,0,0.5h-4.4v-8.4H108.8z"/>
			<path class="st0" d="M117.5,56.6c0.3,0,0.6-0.1,0.9-0.1c0.4,0,0.7,0,1.1,0c1.5,0,2.5,0.4,3.3,1.1c0.7,0.7,1.1,1.8,1.1,3.2
				c0,1.5-0.4,2.5-1.1,3.2c-0.7,0.7-1.8,1.1-3.3,1.1c-0.4,0-0.7,0-1.1,0s-0.7-0.1-0.9-0.1V56.6z M118.7,63.9c0.1,0,0.2,0,0.4,0
				c0.2,0,0.3,0,0.5,0c0.5,0,0.9-0.1,1.2-0.2c0.4-0.1,0.7-0.3,1-0.5s0.5-0.6,0.6-1s0.2-0.9,0.2-1.6c0-0.6-0.1-1.1-0.2-1.5
				s-0.4-0.7-0.6-1c-0.3-0.3-0.6-0.4-1-0.6c-0.4-0.1-0.8-0.2-1.2-0.2c-0.1,0-0.3,0-0.5,0s-0.3,0-0.5,0L118.7,63.9L118.7,63.9z"/>
			<path class="st0" d="M125.7,56.6h4.6c0,0.2,0,0.3,0,0.5c0,0.1,0,0.2,0,0.3s0,0.2,0,0.3h-3.4V60h2.7c0,0.1,0,0.2,0,0.2
				c0,0.1,0,0.2,0,0.3s0,0.2,0,0.3s0,0.2,0,0.3h-2.7v2.8h3.5c0,0.2,0,0.3,0,0.5c0,0.1,0,0.2,0,0.3c0,0.1,0,0.2,0,0.3h-4.7
				L125.7,56.6L125.7,56.6z"/>
			<path class="st0" d="M140.2,63.7c0.2,0.3,0.3,0.7,0.3,1c-0.3,0.1-0.7,0.2-1,0.3s-0.7,0.1-1.1,0.1c-0.6,0-1.1-0.1-1.6-0.3
				s-0.9-0.5-1.2-0.8c-0.3-0.4-0.6-0.8-0.8-1.3s-0.3-1.1-0.3-1.8s0.1-1.3,0.3-1.8s0.4-1,0.8-1.4c0.3-0.4,0.7-0.7,1.2-0.9
				s1-0.3,1.6-0.3c0.4,0,0.8,0,1.1,0.1s0.6,0.1,0.8,0.2c0,0.2,0,0.3-0.1,0.5s-0.1,0.3-0.2,0.5c-0.1,0-0.2-0.1-0.3-0.1
				s-0.2-0.1-0.3-0.1s-0.3,0-0.4-0.1s-0.3,0-0.5,0c-0.8,0-1.5,0.3-2,0.9c-0.5,0.6-0.7,1.4-0.7,2.5c0,0.5,0.1,1,0.2,1.4
				c0.1,0.4,0.3,0.7,0.6,1s0.5,0.5,0.9,0.6c0.3,0.1,0.7,0.2,1.1,0.2c0.3,0,0.6,0,0.9-0.1C139.7,63.9,140,63.8,140.2,63.7z"/>
			<path class="st0" d="M142.1,56.6c0.1,0,0.2,0,0.3,0s0.2,0,0.3,0s0.2,0,0.3,0s0.2,0,0.3,0v8.3c-0.1,0-0.2,0-0.3,0s-0.2,0-0.3,0
				s-0.2,0-0.3,0s-0.2,0-0.3,0V56.6z"/>
			<path class="st0" d="M145.5,56.6c0.2,0,0.5-0.1,0.8-0.1s0.7,0,1.1,0c0.4,0,0.8,0,1.2,0.1s0.7,0.2,0.9,0.4
				c0.3,0.2,0.5,0.4,0.6,0.7s0.2,0.6,0.2,1c0,0.2,0,0.5-0.1,0.7s-0.2,0.4-0.3,0.5s-0.3,0.3-0.4,0.4c-0.2,0.1-0.3,0.2-0.5,0.2
				c0.2,0,0.4,0.1,0.7,0.2c0.2,0.1,0.4,0.2,0.6,0.4c0.2,0.2,0.3,0.4,0.4,0.6c0.1,0.3,0.2,0.6,0.2,0.9c0,0.4-0.1,0.8-0.3,1.1
				c-0.2,0.3-0.4,0.6-0.7,0.8c-0.3,0.2-0.7,0.3-1.1,0.4c-0.4,0.1-0.9,0.1-1.3,0.1c-0.3,0-0.6,0-1,0c-0.3,0-0.7-0.1-1-0.1L145.5,56.6
				L145.5,56.6z M147.5,60.1c0.5,0,0.9-0.1,1.2-0.3s0.4-0.6,0.4-1s-0.1-0.8-0.4-1c-0.3-0.2-0.7-0.3-1.2-0.3c-0.2,0-0.3,0-0.4,0
				s-0.3,0-0.4,0v2.6H147.5z M146.7,64c0.1,0,0.2,0,0.4,0s0.3,0,0.5,0c0.3,0,0.5,0,0.8-0.1c0.2,0,0.5-0.1,0.6-0.2
				c0.2-0.1,0.3-0.3,0.4-0.5c0.1-0.2,0.2-0.4,0.2-0.7s0-0.5-0.2-0.7c-0.1-0.2-0.2-0.4-0.4-0.5s-0.4-0.2-0.6-0.3
				c-0.2-0.1-0.5-0.1-0.8-0.1h-1V64H146.7z"/>
			<path class="st0" d="M152.5,56.6h4.6c0,0.2,0,0.3,0,0.5c0,0.1,0,0.2,0,0.3s0,0.2,0,0.3h-3.4V60h2.7c0,0.1,0,0.2,0,0.2
				c0,0.1,0,0.2,0,0.3s0,0.2,0,0.3s0,0.2,0,0.3h-2.7v2.8h3.5c0,0.2,0,0.3,0,0.5c0,0.1,0,0.2,0,0.3c0,0.1,0,0.2,0,0.3h-4.7
				L152.5,56.6L152.5,56.6z"/>
			<path class="st0" d="M158.8,56.6c0.2,0,0.3,0,0.5,0c0.1,0,0.3,0,0.4,0c0.1,0,0.3,0,0.4,0s0.3,0,0.5,0c0.4,0,0.8,0,1.2,0.1
				s0.7,0.2,1,0.4s0.5,0.5,0.7,0.8s0.3,0.7,0.3,1.2c0,0.3-0.1,0.6-0.2,0.8c-0.1,0.2-0.2,0.5-0.4,0.7s-0.3,0.4-0.5,0.5
				s-0.4,0.3-0.6,0.4l-0.1,0.1l2.4,3.5c-0.2,0-0.4,0-0.7,0c-0.2,0-0.4,0-0.6,0l-2.7-3.9l0,0h0.1c0.2-0.1,0.4-0.1,0.7-0.2
				c0.2-0.1,0.4-0.2,0.6-0.4c0.2-0.2,0.4-0.3,0.5-0.5s0.2-0.5,0.2-0.8c0-0.6-0.2-1-0.5-1.2c-0.3-0.3-0.8-0.4-1.3-0.4
				c-0.1,0-0.3,0-0.4,0c-0.1,0-0.2,0-0.4,0v7.4c-0.1,0-0.2,0-0.3,0s-0.2,0-0.3,0s-0.2,0-0.3,0s-0.2,0-0.3,0v-8.5H158.8z"/>
			<path class="st0" d="M165.6,63.7c0.3,0.1,0.5,0.2,0.8,0.2s0.6,0.1,1,0.1c0.6,0,1.1-0.1,1.4-0.4c0.3-0.3,0.5-0.6,0.5-1
				c0-0.2,0-0.4-0.1-0.6s-0.2-0.3-0.3-0.4s-0.3-0.2-0.5-0.3s-0.4-0.2-0.7-0.3l-0.7-0.3c-0.2-0.1-0.4-0.2-0.6-0.3
				c-0.2-0.1-0.3-0.2-0.5-0.4c-0.1-0.2-0.2-0.3-0.3-0.6s-0.1-0.5-0.1-0.8c0-0.7,0.2-1.3,0.7-1.6c0.5-0.4,1.1-0.6,2-0.6
				c0.4,0,0.7,0,1.1,0.1c0.3,0.1,0.6,0.1,0.9,0.2c0,0.3-0.1,0.6-0.3,1c-0.2-0.1-0.4-0.1-0.7-0.2c-0.3-0.1-0.6-0.1-0.9-0.1
				c-0.5,0-0.9,0.1-1.1,0.3c-0.3,0.2-0.4,0.5-0.4,0.9c0,0.2,0,0.3,0.1,0.4c0.1,0.1,0.2,0.2,0.3,0.3s0.2,0.2,0.4,0.3s0.3,0.1,0.5,0.2
				l0.6,0.3c0.3,0.1,0.6,0.3,0.8,0.4c0.2,0.1,0.4,0.3,0.6,0.5c0.2,0.2,0.3,0.4,0.4,0.6s0.1,0.5,0.1,0.9c0,0.8-0.3,1.4-0.8,1.9
				s-1.3,0.7-2.3,0.7c-0.2,0-0.5,0-0.6,0c-0.2,0-0.4,0-0.5-0.1c-0.2,0-0.3-0.1-0.5-0.1s-0.3-0.1-0.5-0.2c0-0.2,0-0.3,0.1-0.5
				C165.5,64,165.5,63.8,165.6,63.7z"/>
			<path class="st0" d="M172.2,56.6h4.6c0,0.2,0,0.3,0,0.5c0,0.1,0,0.2,0,0.3s0,0.2,0,0.3h-3.4V60h2.7c0,0.1,0,0.2,0,0.2
				c0,0.1,0,0.2,0,0.3s0,0.2,0,0.3s0,0.2,0,0.3h-2.7v2.8h3.5c0,0.2,0,0.3,0,0.5c0,0.1,0,0.2,0,0.3c0,0.1,0,0.2,0,0.3h-4.7
				L172.2,56.6L172.2,56.6z"/>
			<path class="st0" d="M183.3,60.6c0.1,0,0.2,0,0.3,0s0.2,0,0.3,0s0.2,0,0.3,0s0.2,0,0.3,0v4.1c-0.2,0.1-0.3,0.1-0.5,0.2
				s-0.4,0.1-0.6,0.1c-0.2,0-0.4,0-0.6,0.1c-0.2,0-0.4,0-0.6,0c-0.6,0-1.2-0.1-1.7-0.3c-0.5-0.2-0.9-0.5-1.2-0.8
				c-0.3-0.4-0.6-0.8-0.8-1.3s-0.3-1.1-0.3-1.8s0.1-1.3,0.3-1.8s0.4-1,0.8-1.4s0.8-0.7,1.2-0.9c0.5-0.2,1-0.3,1.6-0.3
				c0.4,0,0.8,0,1.1,0.1s0.6,0.1,0.9,0.2c0,0.2,0,0.3-0.1,0.5s-0.1,0.3-0.2,0.5c-0.2-0.1-0.4-0.1-0.7-0.2c-0.3-0.1-0.6-0.1-0.9-0.1
				c-0.4,0-0.8,0.1-1.1,0.2c-0.3,0.1-0.6,0.4-0.9,0.6c-0.2,0.3-0.4,0.6-0.5,1s-0.2,0.9-0.2,1.4s0.1,1,0.2,1.4c0.1,0.4,0.3,0.7,0.6,1
				s0.5,0.5,0.9,0.6c0.3,0.1,0.7,0.2,1.1,0.2c0.2,0,0.5,0,0.6,0c0.2,0,0.3-0.1,0.5-0.1v-3.2H183.3z"/>
			<path class="st0" d="M186.4,56.6c0.2,0,0.4,0,0.6,0c0.2,0,0.4,0,0.6,0v4.7c0,0.5,0,0.9,0.1,1.2s0.2,0.6,0.3,0.8s0.3,0.4,0.5,0.5
				s0.5,0.2,0.8,0.2s0.6-0.1,0.8-0.2c0.2-0.1,0.4-0.3,0.5-0.5s0.2-0.5,0.3-0.8s0.1-0.7,0.1-1.2v-4.7c0.2,0,0.4,0,0.6,0
				c0.2,0,0.4,0,0.6,0v4.9c0,0.6-0.1,1.1-0.2,1.5c-0.1,0.4-0.3,0.8-0.5,1.1c-0.2,0.3-0.5,0.5-0.9,0.7s-0.8,0.2-1.4,0.2
				c-0.5,0-1-0.1-1.4-0.2c-0.4-0.2-0.7-0.4-0.9-0.7s-0.4-0.7-0.5-1.1c-0.1-0.4-0.2-0.9-0.2-1.5v-4.9H186.4z"/>
			<path class="st0" d="M194.5,56.6c0.2,0,0.3,0,0.5,0c0.1,0,0.3,0,0.4,0c0.1,0,0.3,0,0.4,0s0.3,0,0.5,0c0.4,0,0.8,0,1.2,0.1
				s0.7,0.2,1,0.4s0.5,0.5,0.7,0.8s0.3,0.7,0.3,1.2c0,0.3-0.1,0.6-0.2,0.8c-0.1,0.2-0.2,0.5-0.4,0.7s-0.3,0.4-0.5,0.5
				s-0.4,0.3-0.6,0.4l-0.1,0.1l2.4,3.5c-0.2,0-0.4,0-0.7,0c-0.2,0-0.4,0-0.6,0l-2.7-3.9l0,0h0.1c0.2-0.1,0.4-0.1,0.7-0.2
				c0.2-0.1,0.4-0.2,0.6-0.4c0.2-0.2,0.4-0.3,0.5-0.5s0.2-0.5,0.2-0.8c0-0.6-0.2-1-0.5-1.2c-0.3-0.3-0.8-0.4-1.3-0.4
				c-0.1,0-0.3,0-0.4,0c-0.1,0-0.2,0-0.4,0v7.4c-0.1,0-0.2,0-0.3,0s-0.2,0-0.3,0s-0.2,0-0.3,0s-0.2,0-0.3,0v-8.5H194.5z"/>
			<path class="st0" d="M201.4,56.6c0.1,0,0.2,0,0.3,0s0.2,0,0.3,0s0.2,0,0.3,0s0.2,0,0.3,0v8.3c-0.1,0-0.2,0-0.3,0s-0.2,0-0.3,0
				s-0.2,0-0.3,0s-0.2,0-0.3,0V56.6z"/>
			<path class="st0" d="M204.8,56.6c0.3,0,0.6-0.1,0.9-0.1c0.4,0,0.7,0,1.1,0c1.5,0,2.5,0.4,3.3,1.1c0.7,0.7,1.1,1.8,1.1,3.2
				c0,1.5-0.4,2.5-1.1,3.2c-0.7,0.7-1.8,1.1-3.3,1.1c-0.4,0-0.7,0-1.1,0c-0.4,0-0.7-0.1-0.9-0.1V56.6z M206,63.9c0.1,0,0.2,0,0.4,0
				s0.3,0,0.5,0c0.5,0,0.9-0.1,1.2-0.2c0.4-0.1,0.7-0.3,1-0.5s0.5-0.6,0.6-1s0.2-0.9,0.2-1.6c0-0.6-0.1-1.1-0.2-1.5
				c-0.1-0.4-0.4-0.7-0.6-1c-0.3-0.3-0.6-0.4-1-0.6c-0.4-0.1-0.8-0.2-1.2-0.2c-0.1,0-0.3,0-0.5,0s-0.3,0-0.5,0v6.6H206z"/>
			<path class="st0" d="M216.8,63h-3.2l-0.6,1.9c-0.1,0-0.2,0-0.3,0s-0.2,0-0.3,0s-0.2,0-0.3,0s-0.2,0-0.3,0l2.7-8.3
				c0.1,0,0.2,0,0.3,0s0.2,0,0.4,0c0.1,0,0.2,0,0.3,0s0.2,0,0.3,0l2.7,8.3c-0.1,0-0.2,0-0.3,0s-0.2,0-0.3,0s-0.2,0-0.3,0
				s-0.2,0-0.3,0L216.8,63z M213.9,62h2.5l-1.3-4.2L213.9,62z"/>
			<path class="st0" d="M220,56.6c0.3,0,0.6-0.1,0.9-0.1c0.4,0,0.7,0,1.1,0c1.5,0,2.5,0.4,3.3,1.1c0.7,0.7,1.1,1.8,1.1,3.2
				c0,1.5-0.4,2.5-1.1,3.2c-0.7,0.7-1.8,1.1-3.3,1.1c-0.4,0-0.7,0-1.1,0c-0.4,0-0.7-0.1-0.9-0.1V56.6z M221.1,63.9
				c0.1,0,0.2,0,0.4,0s0.3,0,0.5,0c0.5,0,0.9-0.1,1.2-0.2c0.4-0.1,0.7-0.3,1-0.5s0.5-0.6,0.6-1s0.2-0.9,0.2-1.6
				c0-0.6-0.1-1.1-0.2-1.5c-0.1-0.4-0.4-0.7-0.6-1c-0.3-0.3-0.6-0.4-1-0.6c-0.4-0.1-0.8-0.2-1.2-0.2c-0.1,0-0.3,0-0.5,0
				s-0.3,0-0.5,0v6.6H221.1z"/>
		</g>
		<g>
			<path class="st0" d="M81,4.1h3.7v3.7H81V4.1z M81,38.7V12.6h3.7v26.1H81z"/>
			<path class="st0" d="M112.2,12.6c1.5,0,2.8,0.5,3.8,1.6c1.1,1.1,1.6,2.3,1.6,3.8v20.6h-3.7V18c0-0.5-0.2-0.9-0.5-1.2
				c-0.3-0.3-0.8-0.5-1.2-0.5H96.5c-0.5,0-0.9,0.2-1.3,0.5s-0.5,0.8-0.5,1.2v20.6H91v-26H112.2z"/>
		</g>
		<g>
			<path class="st0" d="M149.1,19.5h-19.5v12.3h19.6v6.9h-19.9c-1.8,0-3.3-0.6-4.6-1.9c-1.3-1.3-1.9-2.8-1.9-4.6v-13
				c0-1.8,0.6-3.3,1.9-4.6s2.8-1.9,4.6-1.9h19.9v6.8H149.1z"/>
			<path class="st0" d="M155.3,4.1h6.9V11h-6.9V4.1z M155.3,38.7V12.6h6.9v26.1H155.3z"/>
			<path class="st0" d="M187,12.6c1.8,0,3.3,0.6,4.6,1.9s1.9,2.8,1.9,4.6v13c0,1.8-0.6,3.3-1.9,4.6c-1.3,1.3-2.8,1.9-4.6,1.9h-19.9
				V4.1h6.9v8.5H187z M173.9,19.5v12.3h12.7V19.5H173.9z"/>
		</g>
		<g>
			<path class="st0" d="M219.3,12.6c1.5,0,2.8,0.5,3.9,1.6c1.1,1.1,1.6,2.3,1.6,3.8v9.4h-22.9v5.8c0,0.5,0.2,0.9,0.5,1.2
				s0.8,0.5,1.2,0.5h21.1v3.7h-21.1c-1.5,0-2.8-0.5-3.8-1.6c-1.1-1.1-1.6-2.3-1.6-3.8V18c0-1.5,0.5-2.8,1.6-3.8
				c1.1-1.1,2.3-1.6,3.8-1.6C203.6,12.6,219.3,12.6,219.3,12.6z M201.9,23.8h19.2V18c0-0.5-0.2-0.9-0.5-1.2
				c-0.3-0.3-0.8-0.5-1.2-0.5h-15.6c-0.5,0-0.9,0.2-1.2,0.5s-0.5,0.8-0.5,1.2v5.8H201.9z"/>
			<path class="st0" d="M263.6,38.7v3.7h-32.7v-3.7H263.6z"/>
		</g>
		<rect x="60" y="20.1" transform="matrix(0.7071 -0.7071 0.7071 0.7071 1.1278 53.6865)" class="st0" width="10.8" height="10.8"/>
		<path class="st0" d="M50.7,34.7l5.5-5.5l5.5,5.5l-5.5,5.5L50.7,34.7z M48.5,34.7l7.6,7.6l7.6-7.6l-7.6-7.6L48.5,34.7z"/>
		<rect x="50.8" y="11" transform="matrix(0.7071 -0.7071 0.7071 0.7071 4.8488 44.5198)" class="st0" width="10.8" height="10.8"/>
	</g>
</g>
</svg>
