<?xml version="1.0" encoding="UTF-8"?>
<svg id="Capa_2" data-name="Capa 2" xmlns="http://www.w3.org/2000/svg" viewBox="0 0 296.87 124.29">
  <defs>
    <style>
      .cls-1 {
        fill: #fff;
      }
    </style>
  </defs>
  <g id="Capa_1-2" data-name="Capa 1">
    <g>
      <path class="cls-1" d="m68.02,0C89.12,0,110.21,0,131.31,0c4.17,0,4.33.17,4.33,4.33,0,38.71,0,77.42,0,116.14,0,.08,0,.17,0,.25,0,3.07-.73,3.65-3.79,3.52-5.81-.25-11.62-.19-17.43-.03-3.07.08-6.15.04-9.22.04-6.48,0-12.96.11-19.44-.02-11.75-.25-23.5-.17-35.25-.08-8.26.06-16.53.19-24.79.06-7.72-.12-15.44-.02-23.16-.12-1.91-.03-2.23-.33-2.47-2.19-.09-.65-.09-1.32-.09-1.98C0,81.29,0,42.66,0,4.03c0-.17,0-.33,0-.5C.02.32.31.02,3.61.02c21.47,0,42.94,0,64.41,0h0Zm55.65,61.96c-.08-5.77-1.88-10.61-5.23-14.07-7.49-7.71-20.84-8.94-29.58-2.5-6.14,4.53-9.16,10.77-8.5,18.4.69,7.95,4.49,14,11.99,17.37,4.24,1.9,8.71,1.85,13.2,1.32,10.95-1.29,18.25-9.57,18.1-20.52Zm-83.21,13.07s.02,0,.03,0c0,1.45,0,2.9,0,4.35,0,.65.13,1.23.68,1.65,1.79,1.36,5.72,1.24,7.31-.35.78-.78,1.45-.81,2.43-.49,4.61,1.47,9.28,2.55,14.18,2.05,2.87-.3,5.66-.85,8.19-2.35,5.71-3.38,6.96-10.93,2.67-15.99-2.97-3.51-6.87-5.39-11.17-6.63-3.07-.88-6.15-1.75-9.22-2.61-.8-.23-1.58-.51-2.25-1.03-.72-.55-1.34-1.19-1.15-2.18.2-1.06.7-1.96,1.79-2.37,1.04-.39,2.11-.41,3.19-.25,4.27.63,7.81,2.71,10.92,5.57.94.86,1.97,1.35,3.22,1.42.91.05,1.83.1,2.74.08,2.33-.07,3.14-.82,3.24-3.16.11-2.52.16-5.05-.23-7.56-.28-1.8-.82-2.39-2.64-2.52-1.24-.09-2.49-.03-3.73-.1-.85-.05-1.42.19-1.75,1.03-.31.78-.82,1.18-1.76.76-5.73-2.55-11.66-2.97-17.77-1.69-5.54,1.17-9.74,6.03-9.36,11.24.28,3.91,2.35,6.9,5.57,9.11,4.41,3.01,9.43,4.43,14.55,5.59,1.38.31,2.79.47,4.11,1,1.03.41,1.91.98,1.94,2.3.05,2.08-1.11,3.31-3.47,3.25-4.12-.11-8.08-1.1-11.2-3.86-2.62-2.31-5.51-3.06-8.83-2.85-1.48.09-2.18.8-2.2,2.29-.02,1.45,0,2.9,0,4.35Zm-16.24-32.98s0,0,0-.01c-3.45,0-6.89-.02-10.34.01-1.62.02-2.17.55-2.27,2.16-.07,1.24-.06,2.48-.03,3.72.04,2.4.85,3.17,3.25,3.22,2.15.04,2.7.59,2.7,2.76,0,5.34,0,10.68,0,16.02,0,.45-.01.91-.09,1.36-.2,1.19-.93,1.8-2.13,1.85-.46.02-.91,0-1.37.02-1.51.08-2.29.82-2.36,2.32-.05,1.12,0,2.23,0,3.35,0,2.79.54,3.34,3.34,3.37,2.16.02,4.31-.24,6.47-.13,4.6.23,9.21.3,13.81-.05,1.48-.11,1.86-.5,1.9-2.02.04-1.36.03-2.73,0-4.1-.03-2.11-.64-2.71-2.77-2.76-2.43-.06-3.16-.79-3.13-3.27.03-2.52.16-5.04.15-7.57,0-2.69-.14-5.37-.17-8.06-.03-2.56.47-3.06,2.95-3.11.17,0,.33,0,.5-.01,1.74-.15,2.44-.87,2.47-2.63.02-1.24.02-2.48,0-3.72-.03-2.03-.67-2.71-2.68-2.73-3.4-.03-6.81,0-10.21,0Zm43.52,66.52c3.61.09,7.4-.35,11.13-1.2,9.92-2.25,17.95-7.58,24.55-15.17.95-1.09,1.79-2.28,2.66-3.44.25-.33.52-.76.06-1.09-.39-.29-.8-.09-1.11.23-.17.18-.32.38-.48.57-2,2.38-4.06,4.7-6.28,6.89-2.03,2-3.26,2.08-5.52.3-1.42-1.12-1.48-1.64-.43-3.09.97-1.34,1.92-2.7,2.87-4.06.21-.31.42-.7.08-1.02-.38-.35-.79-.11-1.12.15-.22.18-.41.41-.59.64-.99,1.28-1.98,2.55-2.94,3.85-.78,1.05-1.71,1.33-2.93.77-1.39-.65-2.81-1.23-4.22-1.84-.83-.36-1.2-.98-1.11-1.87.06-.58.21-1.27-.44-1.54-.66-.28-1.07.38-1.39.81-.75,1-1.67,1.21-2.85.95-1.5-.33-3.01-.59-4.53-.8-2.17-.3-4.32-.92-6.55-.55-2.94.49-5.95.59-8.86,1.3-1.27.31-2.18,0-2.88-1.08-.22-.34-.46-.78-.96-.65-.59.16-.54.71-.47,1.14.18,1.19-.51,1.74-1.46,2.14-.99.42-1.97.87-2.96,1.31-2.73,1.21-3.25,1.06-4.97-1.35-.75-1.05-1.5-2.08-2.28-3.11-.23-.31-.56-.52-.97-.25-.39.26-.37.64-.17.99.29.5.62.98.94,1.46.71,1.02,1.44,2.03,2.14,3.06.35.51.44,1.03.01,1.6-2,2.7-4.13,2.9-6.48.58-2.21-2.18-4.41-4.38-6.33-6.84-.42-.54-1.15-1.24-1.74-.79-.47.36.35,1.02.58,1.55.07.15.17.28.28.41,3.81,4.75,8.06,9.02,13.26,12.27,7.41,4.63,15.5,6.84,24.46,6.76Zm-.41-93.11c-6.35.4-12.76,1.44-18.73,4.3-7.58,3.64-14.34,8.33-19.01,15.53-.27.41-.92.92-.42,1.36.42.37,1-.14,1.42-.47.16-.13.3-.29.44-.44,2.15-2.3,4.3-4.6,6.46-6.89,1.83-1.93,2.8-2,4.93-.42.27.2.52.41.78.62.91.71,1.06,1.5.35,2.46-.91,1.23-1.78,2.49-2.67,3.74-.32.45-.67.97-.07,1.41.64.48.99-.14,1.3-.53.78-.96,1.5-1.98,2.28-2.95,1.01-1.25,2.32-1.71,3.88-1.22,1.19.37,2.36.77,3.54,1.18,1.22.43,2.05,1.11,1.67,2.58-.08.31-.11.71.28.86.32.12.56-.16.72-.39,1.12-1.58,2.68-1.59,4.36-1.28,1.43.26,2.85.55,4.29.73,2.17.27,4.33.78,6.55.52,2.35-.27,4.69-.64,6.99-1.17,1.71-.39,3.3-.5,4.43,1.21.15.23.4.47.73.37.39-.12.48-.5.41-.81-.31-1.53.6-2.3,1.77-2.91.81-.42,1.64-.79,2.47-1.18,1.55-.73,2.91-.39,4.09.77.53.52,1.01,1.1,1.5,1.66.68.78,1.32,1.59,2.03,2.35.27.29.68.6,1.09.26.42-.34.2-.77-.05-1.11-.82-1.15-1.63-2.29-2.49-3.41-.97-1.26-1.02-2.26-.1-3.33,1.14-1.33,2.88-1.82,4.07-1.15,1.24.7,2.28,1.65,3.31,2.62,1.68,1.57,2.8,3.6,4.42,5.2.48.47,1,1.57,1.73.96.74-.62-.24-1.33-.64-1.86-9.56-12.44-22.34-18.59-38.14-19.21Z"/>
      <path class="cls-1" d="m221.02,40.46c7.25-.09,12.19,3.6,15.1,10.31.25.58.3,1.59.96,1.6.74.01.84-1.01,1.11-1.6,2.58-5.7,6.85-9.23,13.08-10.34,6.15-1.09,12.61,1.67,15.64,7.11,5.39,9.68,5.47,19.49.15,29.27-2.46,4.52-6.56,6.62-11.45,7.16-4.73.53-9.19-.43-12.92-3.66-2.34-2.03-3.83-4.65-5.03-7.46-.15-.35-.12-.98-.61-.97-.52,0-.6.63-.74,1.04-.9,2.58-2.17,4.89-4.18,6.81-7.53,7.19-22.01,5.49-26.58-5.58-2.58-6.24-3.11-12.6-1.36-19.19.97-3.68,2.43-7.02,5.07-9.8,3.13-3.3,6.99-4.79,11.76-4.69Zm36.71,22.01c.08-1.62-.06-3.22-.32-4.82-.3-1.81-.79-3.56-1.83-5.1-1.38-2.05-3.12-2.08-4.59-.09-.24.33-.43.7-.63,1.07-1.11,2.09-1.56,4.35-1.7,6.67-.22,3.79-.05,7.54,1.82,10.97.66,1.21,1.39,2.62,3.06,2.56,1.68-.06,2.25-1.53,2.85-2.78,1.3-2.69,1.23-5.61,1.33-8.49Zm-32.67.18c0-.91.06-1.83-.01-2.73-.19-2.54-.67-5.03-2.15-7.17-1.69-2.45-3.5-2.28-4.87.36-1.91,3.69-2.49,7.63-2.04,11.7.31,2.82,1.24,5.5,2.82,7.89.99,1.5,2.56,1.56,3.77.24.46-.49.79-1.06,1.06-1.67,1.19-2.75,1.58-5.64,1.42-8.62Z"/>
      <path class="cls-1" d="m157.01,83.53c-4.4,0-8.81.01-13.21,0-2.5,0-2.79-.48-3.05-2.98-.34-3.23-.14-6.25,1.84-9,2.07-2.88,4.4-5.48,7.19-7.7,2.37-1.89,4.99-3.43,7.34-5.34.58-.47,1.14-.97,1.64-1.52.98-1.07,1.49-2.29.93-3.75-.56-1.47-1.79-2.01-3.22-2.19-1.64-.21-3.14.27-4.47,1.19-.64.44-1.22.99-1.79,1.53-1.58,1.5-2.25,1.51-3.74-.02-1.12-1.16-2.25-2.32-3.33-3.53-1.56-1.73-1.45-2.96.32-4.41,4.11-3.34,8.64-5.61,14.1-5.31,4.48.25,8.79,1.29,11.5,5.19,2.83,4.08,3.65,8.66,1.8,13.46-1.1,2.84-3.4,4.66-5.79,6.34-3.02,2.12-6.1,4.16-8.8,6.71-.15.14-.34.25-.47.41-.38.47-1.05.9-.75,1.57.25.58.96.35,1.48.36,1.49.02,2.99.02,4.48-.02,1.45-.04,1.84-.43,1.98-1.83.24-2.34.8-2.86,3.15-2.87,1.74,0,3.49-.04,5.23.03,2.11.08,2.69.68,2.64,2.74-.06,2.85.21,5.72-.17,8.56-.22,1.66-.7,2.18-2.4,2.28-2.24.13-4.48.11-6.72.12-2.58.02-5.15,0-7.73,0,0,0,0-.02,0-.03Z"/>
      <path class="cls-1" d="m189.02,41.01c4.36,0,8.72,0,13.08,0,2.3,0,2.84.42,3.35,2.63.71,3.1-.04,6-1.27,8.81-2.8,6.42-6.21,12.54-9.02,18.96-1.41,3.22-3,6.37-4.47,9.57-.83,1.8-2.08,2.73-4.19,2.62-2.69-.13-5.4-.02-8.1-.05-2.07-.02-2.51-.64-1.62-2.53,2.94-6.26,5.95-12.49,8.92-18.74,1.65-3.48,3.3-6.96,4.91-10.46.74-1.61.48-2-1.26-2.03-1.33-.03-2.66-.05-3.99-.06-1.61-.01-2.43.63-2.53,2.25-.07,1.21-.74,1.64-1.74,1.66-2.16.06-4.32.1-6.47-.02-1.57-.08-1.9-.59-1.94-2.14-.06-2.52-.16-5.04-.19-7.57-.02-2.13.61-2.81,2.83-2.86,2.95-.07,5.9-.03,8.85-.03,1.62,0,3.24,0,4.86,0h0Z"/>
      <path class="cls-1" d="m291.12,58.51c-.07,4.47.13,8.94-.09,13.41-.08,1.78.76,2.6,2.51,2.63,2.8.05,3.36.6,3.32,3.38-.02,1.36.06,2.72-.14,4.09-.13.9-.58,1.33-1.43,1.43-.45.06-.91.11-1.36.11-6.31,0-12.62,0-18.93,0-2.33,0-2.62-.32-2.64-2.65-.01-1.16-.06-2.32-.12-3.47-.09-1.91.68-2.77,2.59-2.87.37-.02.75,0,1.12-.02,1.38-.08,2.11-.69,2.13-2.07.04-5.59.03-11.18,0-16.76,0-1.13-.65-1.53-1.77-1.12-.73.27-1.4.71-2.1,1.08-.82.44-1.51.27-2.09-.44-1.22-1.47-1.98-3.14-2.23-5.04-.11-.84.19-1.44.96-1.82,3.07-1.52,5.89-3.38,8.19-5.97.94-1.06,2.18-1.44,3.59-1.4,1.83.05,3.66-.02,5.48.06,2.05.1,2.63.64,2.84,2.69.39,3.76.08,7.53.16,11.29.02,1.16,0,2.32,0,3.48Z"/>
      <path class="cls-1" d="m95.2,61.73c0-1.82-.11-3.64.33-5.43.96-3.91,4.02-6,7.95-5.37,1.87.3,3.24,1.35,4,3.02,2.33,5.11,2.48,10.32.29,15.52-.99,2.35-2.85,3.71-5.38,3.8-2.38.09-4.33-.96-5.66-3.01-1.02-1.58-1.43-3.34-1.53-5.18-.06-1.11-.01-2.23-.01-3.35Z"/>
      <path class="cls-1" d="m68.58,94.94c0-.99-.09-1.99.02-2.97.19-1.73,1.12-2.32,2.81-2.02,1.63.29,3.27.47,4.9.74,2.35.39,2.78,1.44,1.4,3.4-1.12,1.59-2.27,3.15-3.41,4.72-.72,1.01-1.64,1.6-2.93,1.52-2.07-.12-2.71-.74-2.81-2.8-.04-.86,0-1.73,0-2.6,0,0,0,0,.01,0Z"/>
      <path class="cls-1" d="m68.16,101.8c3.02.11,5.78.54,8.32,1.93.65.36,1.43.72,1.24,1.64-.18.85-1.02.95-1.7.98-3.35.17-6.63,1.17-10,.84-2.02-.2-4.02-.56-6.02-.89-.55-.09-1.26-.13-1.41-.81-.14-.63.48-.9.9-1.21,2.63-1.95,5.72-2.24,8.67-2.47Z"/>
      <path class="cls-1" d="m67.15,95.15c0,.79-.06,1.58.01,2.36.11,1.23-.32,2.09-1.48,2.57-1.44.58-2.99.39-3.79-.62-1.62-2.04-3.1-4.2-4.39-6.46-.54-.94-.23-1.78.86-1.99,2.31-.45,4.66-.8,7-1.03,1.14-.11,1.71.75,1.77,1.83.06,1.11.01,2.23.01,3.35,0,0,0,0,.01,0Z"/>
      <path class="cls-1" d="m53.74,92.26c.88-.04,1.35.38,1.7.89,1.52,2.21,3.03,4.44,4.5,6.69.4.61.57,1.35.04,1.97-.47.54-1.15.68-1.82.41-3.58-1.44-6.79-3.42-9.33-6.38-.55-.64-.53-1.19.14-1.67,1.47-1.06,3.17-1.59,4.77-1.91Z"/>
      <path class="cls-1" d="m77.7,101.93c-1,.07-1.49-.25-1.86-.81-.37-.56-.07-1.03.22-1.49,1.29-2.02,2.57-4.05,3.9-6.04.9-1.34,1.78-1.62,3.3-1.03,1.16.45,2.28.99,3.39,1.53.93.46,1.06,1.25.37,1.92-2.65,2.55-5.78,4.38-9.12,5.89-.14.06-.33.05-.19.03Z"/>
      <path class="cls-1" d="m54.39,104.9c-.67-.2-1.47-.43-2.26-.66-3.26-.94-6.17-2.6-8.97-4.45-1.39-.92-1.36-1.64-.05-2.68,1.88-1.49,2.41-1.45,4.34,0,2.58,1.94,5.21,3.79,7.81,5.7.4.29.9.62.66,1.19-.23.56-.77.83-1.53.9Z"/>
      <path class="cls-1" d="m81.73,104.63c-.62-.04-1.22-.28-1.51-.87-.33-.67.29-.97.74-1.23,2.79-1.66,5.33-3.64,7.77-5.77,1.44-1.26,4.07-.31,4.56,1.53.13.49.01.91-.4,1.21-3.31,2.35-6.9,4.11-10.86,5.09-.08.02-.16.02-.29.04Z"/>
      <path class="cls-1" d="m68.54,28.8c0-.42,0-1.12,0-1.82,0-1.04-.05-2.13,1.13-2.66,1.32-.59,2.81-.8,3.87.23,1.8,1.75,3.55,3.59,4.68,5.88.7,1.43,0,2.85-1.55,3.31-.92.27-1.87.34-2.82.35-.91.01-1.81,0-2.72.19-1.35.28-2-.16-2.38-1.5-.34-1.22-.07-2.47-.2-3.98Z"/>
      <path class="cls-1" d="m67.14,29.36c0,.99.04,1.98-.01,2.97-.07,1.29-.99,2.23-2.17,2.01-1.92-.37-3.86-.38-5.79-.62-1.37-.17-1.75-.72-1.64-2.1.12-1.44.76-2.67,1.58-3.84.89-1.27,1.95-2.35,3.1-3.36.91-.8,1.96-1.05,3.11-.51,1.16.54,1.77,1.46,1.82,2.73.03.91,0,1.82,0,2.72,0,0,0,0,0,0Z"/>
      <path class="cls-1" d="m67.88,17.13c2.77-.12,5.57.51,8.38.98.6.1,1.36.2,1.44.95.08.75-.54,1.17-1.14,1.48-3.51,1.81-7.2,2.41-11.09,1.66-2.34-.45-4.59-1.11-6.59-2.47-.37-.25-.92-.36-.85-.94.06-.56.63-.49.99-.56,2.88-.63,5.77-1.18,8.85-1.09Z"/>
      <path class="cls-1" d="m60.38,23.4c0,.48-.25.87-.5,1.25-1.43,2.08-2.84,4.17-4.31,6.22-.96,1.34-1.46,1.48-2.96.92-1.09-.4-2.16-.84-3.22-1.31-1.29-.57-1.44-1.25-.5-2.26,2.52-2.72,5.61-4.64,9-6.08,1.29-.55,2.54.14,2.5,1.26Z"/>
      <path class="cls-1" d="m75.79,23.45c.01-1.17.78-1.24,1.55-1.04,1.44.37,2.87.86,4.17,1.57,1.97,1.08,3.74,2.44,5.29,4.07.93.97.86,1.62-.35,2.22-1.26.62-2.58,1.11-3.88,1.66-.67.28-1.27.1-1.69-.4-1.94-2.32-3.71-4.76-4.95-7.53-.08-.19-.11-.4-.15-.55Z"/>
      <path class="cls-1" d="m45.42,28.38c-1.1.04-3-1.5-3.22-2.59-.13-.66.3-1.01.75-1.3,3.4-2.18,7.03-3.85,10.91-4.98.77-.22,1.44-.09,1.84.61.43.76-.23,1.14-.72,1.48-2.85,1.98-5.76,3.89-8.34,6.23-.34.31-.74.54-1.22.54Z"/>
      <path class="cls-1" d="m81.62,19.69c2.43.49,4.8,1.21,6.99,2.43,1.37.77,2.76,1.51,3.95,2.57,1,.89,1.01,1.45-.05,2.28-.26.2-.54.39-.82.56-1.61.97-1.95.96-3.42-.26-1.72-1.43-3.37-2.94-5.25-4.16-.73-.47-1.45-.97-2.14-1.49-.38-.29-.91-.61-.64-1.2.24-.52.77-.71,1.37-.73Z"/>
    </g>
  </g>
</svg>