<?xml version="1.0" encoding="UTF-8"?>
<svg id="Capa_2" data-name="Capa 2" xmlns="http://www.w3.org/2000/svg" xmlns:xlink="http://www.w3.org/1999/xlink" viewBox="0 0 965.19 230.39">
  <defs>
    <style>
      .cls-1 {
        font-family: RalewayRoman-SemiBold, Raleway;
        font-size: 37.96px;
        font-variation-settings: 'wght' 600;
        font-weight: 600;
      }

      .cls-1, .cls-2, .cls-3 {
        fill: #050915;
      }

      .cls-4 {
        letter-spacing: 0em;
      }

      .cls-5 {
        letter-spacing: -.01em;
      }

      .cls-6 {
        letter-spacing: 0em;
      }

      .cls-7 {
        fill: #3886f4;
      }

      .cls-7, .cls-2 {
        letter-spacing: 0em;
      }

      .cls-8 {
        letter-spacing: 0em;
      }

      .cls-9 {
        letter-spacing: 0em;
      }

      .cls-10 {
        font-family: RalewayRoman-Bold, Raleway;
        font-size: 143.49px;
        font-variation-settings: 'wght' 700;
        font-weight: 700;
      }

      .cls-11 {
        letter-spacing: -.03em;
      }

      .cls-12 {
        fill: url(#Degradado_sin_nombre_58);
      }

      .cls-3 {
        letter-spacing: -.11em;
      }
    </style>
    <radialGradient id="Degradado_sin_nombre_58" data-name="Degradado sin nombre 58" cx="97.5" cy="115.2" fx="97.5" fy="115.2" r="106.72" gradientUnits="userSpaceOnUse">
      <stop offset="0" stop-color="#5eb9f0"/>
      <stop offset="1" stop-color="#0168ff"/>
    </radialGradient>
  </defs>
  <g id="Capa_1-2" data-name="Capa 1">
    <g>
      <path class="cls-12" d="m195,130.71c-.85,6.42-2.72,15.53-7.21,25.59-6.04,13.51-13.7,21.89-21.38,30.12-4.75,5.09-18.79,19.45-41.57,31.95-10.69,5.82-20.25,9.62-27.39,12.02-5.35-2.53-13.16-6.42-22.3-11.74-16.83-9.81-32.11-18.85-46.66-35.24-4.05-4.56-10.41-11.77-16.29-22.87-7.47-14.14-10.57-27.52-11.74-36.16C.77,92.47-.43,62.03.17,30.12,31.49,20.5,65.21,9.65,96.53,0c32.65,9.14,65.26,18.28,97.88,27.43.06,8.79.13,17.56.16,26.35H19.02v28.57h60.04v111.98l35.27-39.04.41-72.88h79.97c.09,16.1.19,32.2.28,48.31Z"/>
      <text class="cls-10" transform="translate(270.71 142.22)"><tspan class="cls-3" x="0" y="0">T</tspan><tspan class="cls-2" x="73.47" y="0">utum</tspan><tspan class="cls-7" x="439.51" y="0">Sec</tspan></text>
      <text class="cls-1" transform="translate(292.44 204.21)"><tspan x="0" y="0">Cybersecurit</tspan><tspan class="cls-11" x="230.23" y="0">y</tspan><tspan x="249.97" y="0" xml:space="preserve"> Consulting &amp; </tspan><tspan class="cls-4" x="498.8" y="0">S</tspan><tspan class="cls-9" x="521.72" y="0">t</tspan><tspan class="cls-8" x="535.69" y="0">r</tspan><tspan class="cls-6" x="549.62" y="0">a</tspan><tspan class="cls-5" x="570.88" y="0">t</tspan><tspan x="584.36" y="0">eg</tspan><tspan class="cls-11" x="630.78" y="0">y</tspan></text>
    </g>
  </g>
</svg>